<?xml version="1.0" encoding="UTF-8"?>
<svg width="50px" height="50px" viewBox="0 0 50 50" version="1.1" xmlns="http://www.w3.org/2000/svg" xmlns:xlink="http://www.w3.org/1999/xlink">
    <!-- Generator: Sketch 57.1 (83088) - https://sketch.com -->
    <title>Icon/Amenities/Art Room</title>
    <desc>Created with Sketch.</desc>
    <defs>
        <path d="M30.0342471,29.000315 L36,29 C36.5522847,29 37,29.4477153 37,30 C37,30.5522847 36.5522847,31 36,31 L31.387,31 L32.9486833,35.6837722 C33.1233311,36.2077156 32.8401711,36.7740355 32.3162278,36.9486833 C31.7922844,37.1233311 31.2259645,36.8401711 31.0513167,36.3162278 L29.279,31 L20.72,31 L18.9486833,36.3162278 C18.7740355,36.8401711 18.2077156,37.1233311 17.6837722,36.9486833 C17.1598289,36.7740355 16.8766689,36.2077156 17.0513167,35.6837722 L18.612,31 L14,31 C13.4477153,31 13,30.5522847 13,30 C13,29.4477153 13.4477153,29 14,29 L19.9657529,29.000315 L19.9856588,28.9998303 L29.9943884,28.9997454 C30.0077048,28.9996682 30.0209934,28.9998592 30.0342471,29.000315 Z M34,13 C34.5522847,13 35,13.4477153 35,14 L35,26 C35,26.5522847 34.5522847,27 34,27 C33.4477153,27 33,26.5522847 33,26 L33,15 L17,15 L17,26 C17,26.5522847 16.5522847,27 16,27 C15.4477153,27 15,26.5522847 15,26 L15,14 C15,13.4477153 15.4477153,13 16,13 L34,13 Z M25.7682213,19.3598156 L30.7682213,25.3598156 C31.1217854,25.7840925 31.0644613,26.4146572 30.6401844,26.7682213 C30.2159075,27.1217854 29.5853428,27.0644613 29.2317787,26.6401844 L25,21.5620499 L20.7682213,26.6401844 C20.4146572,27.0644613 19.7840925,27.1217854 19.3598156,26.7682213 C18.9355387,26.4146572 18.8782146,25.7840925 19.2317787,25.3598156 L24.2317787,19.3598156 C24.6315738,18.8800615 25.3684262,18.8800615 25.7682213,19.3598156 Z M30,17 C30.5522847,17 31,17.4477153 31,18 L31,18.01 C31,18.5622847 30.5522847,19.01 30,19.01 C29.4477153,19.01 29,18.5622847 29,18.01 L29,18 C29,17.4477153 29.4477153,17 30,17 Z" id="path-1"></path>
    </defs>
    <g id="Icon/Amenities/Art-Room" stroke="none" stroke-width="1" fill="none" fill-rule="evenodd">
        <mask id="mask-2" fill="white">
            <use xlink:href="#path-1"></use>
        </mask>
        <use id="Mask" fill="#000000" fill-rule="nonzero" xlink:href="#path-1"></use>
    </g>
</svg>