<?xml version="1.0" encoding="UTF-8"?>
<svg width="50px" height="50px" viewBox="0 0 50 50" version="1.1" xmlns="http://www.w3.org/2000/svg" xmlns:xlink="http://www.w3.org/1999/xlink">
    <!-- Generator: Sketch 57.1 (83088) - https://sketch.com -->
    <title>Icon/Amenities/Basketball Court</title>
    <desc>Created with Sketch.</desc>
    <g id="Icon/Amenities/Basketball-Court" stroke="none" stroke-width="1" fill="none" fill-rule="evenodd">
        <g id="basketball" transform="translate(13.000000, 13.000000)" fill="#000000" fill-rule="nonzero">
            <path d="M11.6950252,23.9962001 C5.20854437,23.8343928 0,18.5254567 0,12 C0,5.372583 5.372583,0 12,0 C18.627417,0 24,5.372583 24,12 C24,18.627417 18.627417,24 12,24 L12,24 Z M11.0003575,18.0456286 C9.14281395,18.215952 7.38648617,18.8588417 5.87269858,19.9023388 C7.3181712,21.0256372 9.07908785,21.7598854 10.9998991,21.9506147 L11.0003575,18.0456286 Z M13.0006393,18.04572 L13.0010997,21.9505155 C14.9215226,21.7596308 16.6820793,21.0254428 18.1268777,19.9038435 C16.6138745,18.8590613 14.8578619,18.2161864 13.0006393,18.04572 Z M2.04948449,13.0010997 C2.25708185,15.0896631 3.10728402,16.9891409 4.39956231,18.4990047 C6.31623716,17.0820671 8.5909112,16.2249838 10.9999819,16.0385655 L11,13 Z M21.9505155,13.0010997 L13,13 L13.0010181,16.038643 C15.4097471,16.2252232 17.6840825,17.0822834 19.6010276,18.4972588 C20.892716,16.9891409 21.7429181,15.0896631 21.9505155,13.0010997 Z M21.9506147,10.9998991 C21.7431892,8.91094251 20.892922,7.01109973 19.6004377,5.50099532 C17.6840825,6.91771664 15.4097471,7.77477677 13.0010181,7.96135704 L13,11 Z M4.39904115,5.50279192 L4.31469115,5.60147964 C3.06988482,7.09499518 2.25223597,8.95701521 2.04938526,10.9998991 L11,11 L10.9999819,7.96143446 C8.5909112,7.77501619 6.31623716,6.91793295 4.39904115,5.50279192 Z M13.0010997,2.04948449 L13.0006393,5.95427997 C14.8578619,5.78381358 16.6138745,5.14093874 18.1274177,4.09758109 C16.6820793,2.97455719 14.9215226,2.24036916 13.0010997,2.04948449 Z M10.9998991,2.04938526 C9.07908785,2.24011461 7.3181712,2.97436275 5.87312233,4.09615649 C7.38648617,5.14115831 9.14281395,5.78404796 11.0003575,5.95437141 Z" id="Combined-Shape"></path>
        </g>
    </g>
</svg>