<?xml version="1.0" encoding="UTF-8"?>
<svg width="24px" height="24px" viewBox="0 0 24 24" version="1.1" xmlns="http://www.w3.org/2000/svg" xmlns:xlink="http://www.w3.org/1999/xlink">
    <!-- Generator: Sketch 57.1 (83088) - https://sketch.com -->
    <title>Icon / Area</title>
    <desc>Created with Sketch.</desc>
    <defs>
        <path d="M21,11 L23,11 C23.5128358,11 23.9355072,11.3860402 23.9932723,11.8833789 L24,12 C24,12.5128358 23.6139598,12.9355072 23.1166211,12.9932723 L23,13 L22,13 L22,17 C22,18.6351969 21.2149152,20.0871363 20.0011398,20.9994239 L20,23 C20,23.5522847 19.5522847,24 19,24 C18.9929194,24 18.985856,23.9999264 18.9788106,23.99978 L18.958,24 C18.4451642,24 18.0224928,23.6139598 17.9647277,23.1166211 L17.958,23 L17.9591523,21.908083 C17.6487292,21.9684017 17.3280525,22 17,22 L17,22 L7,22 C6.65748499,22 6.32301044,21.9655542 5.99985171,21.8999381 L6,23 C6,23.5522847 5.55228475,24 5,24 C4.48716416,24 4.06449284,23.6139598 4.00672773,23.1166211 L4,23 L3.99986531,21.0001792 C2.78551827,20.0879378 2,18.6356482 2,17 L2,17 L2,13 L1,13 C0.44771525,13 0,12.5522847 0,12 C0,11.4871642 0.38604019,11.0644928 0.883378875,11.0067277 L1,11 L1.999,11 L2,3.606 C2,1.61471525 3.61471525,0 5.606,0 C6.7295734,0 7.78344858,0.523160326 8.46350098,1.40656826 L8.69510784,1.25107772 C9.15456583,0.944619236 9.7754638,1.06864985 10.0819223,1.52810784 C10.3664909,1.9547474 10.2798724,2.52058777 9.89817871,2.84461319 L9.80489216,2.91492228 L7.80489216,4.24892228 C7.34543417,4.55538076 6.7245362,4.43135015 6.41807772,3.97189216 C6.13350913,3.5452526 6.22012756,2.97941223 6.60182129,2.65538681 L6.69510784,2.58507772 L6.79075196,2.52188353 C6.48877838,2.1919207 6.06020717,2 5.606,2 C4.76854671,2 4.08043729,2.64158424 4.00656542,3.45985903 L4,3.606 L3.999,11 L21,11 Z M20,13 L4,13 L4,17 C4,18.5975468 5.24904921,19.9036513 6.82374106,19.9949068 L7,20 L17,20 C17.4741522,20 17.9226312,19.8899708 18.3212942,19.6940551 C18.4100322,19.6204754 18.5118585,19.5620395 18.6226934,19.5226017 C19.4511984,18.9898281 20,18.0589404 20,17 L20,17 L20,13 Z M14.0820503,2.6952998 C14.3665204,3.12200501 14.2797714,3.68782538 13.898003,4.01176272 L13.8047002,4.08205029 L7.8047002,8.08205029 C7.34517151,8.38840275 6.72430216,8.26422888 6.41794971,7.8047002 C6.13347957,7.37799499 6.22022855,6.81217462 6.60199704,6.48823728 L6.6952998,6.41794971 L12.6952998,2.41794971 C13.1548285,2.11159725 13.7756978,2.23577112 14.0820503,2.6952998 Z" id="path-1"></path>
    </defs>
    <g id="Property-Page" stroke="none" stroke-width="1" fill="none" fill-rule="evenodd" opacity="0.5">
        <g transform="translate(-529.000000, -789.000000)" id="Group">
            <g transform="translate(49.000000, 761.000000)">
                <g id="Icon-/-Bathdroom" transform="translate(462.000000, 10.000000)">
                    <g id="Color-/-Smoke" transform="translate(18.000000, 18.000000)">
                        <mask id="mask-2" fill="white">
                            <use xlink:href="#path-1"></use>
                        </mask>
                        <use id="Mask" fill="#000000" fill-rule="nonzero" xlink:href="#path-1"></use>
                        <g id="Color-/-Blue" mask="url(#mask-2)" fill="#252851">
                            <g transform="translate(-18.000000, -18.000000)" id="White">
                                <rect x="0" y="0" width="60" height="60"></rect>
                            </g>
                        </g>
                    </g>
                </g>
            </g>
        </g>
    </g>
</svg>