<?xml version="1.0" encoding="UTF-8"?>
<svg width="24px" height="22px" viewBox="0 0 24 22" version="1.1" xmlns="http://www.w3.org/2000/svg" xmlns:xlink="http://www.w3.org/1999/xlink">
    <!-- Generator: Sketch 57.1 (83088) - https://sketch.com -->
    <title>Icon / Bedroom</title>
    <desc>Created with Sketch.</desc>
    <defs>
        <path d="M20,0 C21.598096,0 22.9036905,1.24851967 22.9949089,2.82368432 L23,3 L23.0000895,9.76367048 C23.6138384,10.3129282 24,11.1112294 24,12 L24,12 L24,18 L24,21 C24,21.5522847 23.5522847,22 23,22 C22.4871642,22 22.0644928,21.6139598 22.0067277,21.1166211 L22,21 L22,19 L2,19 L2,21 C2,21.5522847 1.55228475,22 1,22 C0.487164161,22 0.0644928393,21.6139598 0.00672773133,21.1166211 L0,21 L0,18 L0,12 C0,11.1107596 0.386569866,10.3120843 1.00088389,9.76279978 L1,3 C1,1.40190399 2.24851967,0.0963094688 3.82368432,0.00509110492 L4,0 L20,0 Z M21,11 L3,11 C2.86530469,11 2.73687073,11.0265636 2.61964572,11.0747431 C2.54798471,11.1337278 2.46715745,11.1814182 2.38017425,11.2171989 C2.14811066,11.398801 2,11.6819448 2,12 L2,12 L2,17 L22,17 L22,12 C22,11.6819448 21.8518893,11.398801 21.6208075,11.2157082 C21.5328425,11.1814182 21.4520153,11.1337278 21.3793741,11.0761578 C21.2631293,11.0265636 21.1346953,11 21,11 L21,11 Z M10,7 L4,7 C3.48676441,7 3.06443573,7.38566899 3.00672161,7.88329933 L3,8 L3,9 L11,9 L11,8 C11,7.48676441 10.614331,7.06443573 10.1167007,7.00672161 L10,7 Z M20,7 L14,7 C13.4867644,7 13.0644357,7.38566899 13.0067216,7.88329933 L13,8 L13,9 L21,9 L21,9 L21,8 C21,7.48676441 20.614331,7.06443573 20.1167007,7.00672161 L20,7 Z M20,2 L4,2 C3.48676441,2 3.06443573,2.38566899 3.00672161,2.88329933 L3,3 L2.99991906,5.17062869 C3.25014308,5.08222457 3.51561676,5.02606468 3.79135224,5.00713689 L4,5 L10,5 C10.7685141,5 11.4693848,5.28873097 12.0000895,5.76367048 C12.4783338,5.33590734 13.0935499,5.05954476 13.7717151,5.00854988 L14,5 L20,5 C20.3510632,5 20.688011,5.06025045 21.0010707,5.17097855 L21,3 C21,2.48676441 20.614331,2.06443573 20.1167007,2.00672161 L20,2 Z" id="path-1"></path>
    </defs>
    <g id="Symbols" stroke="none" stroke-width="1" fill="none" fill-rule="evenodd">
        <g id="Propertie" transform="translate(-286.000000, -417.000000)">
            <g id="Icon-/-c" transform="translate(268.000000, 398.000000)">
                <g id="Color-/-Smoke" transform="translate(18.000000, 19.000000)">
                    <mask id="mask-2" fill="white">
                        <use xlink:href="#path-1"></use>
                    </mask>
                    <use id="Mask" fill="#000000" fill-rule="nonzero" xlink:href="#path-1"></use>
                    <g id="Color-/-Blue-Gray" mask="url(#mask-2)" fill="#9197B6">
                        <g transform="translate(-18.000000, -19.000000)" id="White">
                            <rect x="0" y="0" width="60" height="60"></rect>
                        </g>
                    </g>
                </g>
            </g>
        </g>
    </g>
</svg>