<?xml version="1.0" encoding="UTF-8"?>
<svg width="60px" height="60px" viewBox="0 0 60 60" version="1.1" xmlns="http://www.w3.org/2000/svg" xmlns:xlink="http://www.w3.org/1999/xlink">
    <!-- Generator: Sketch 57.1 (83088) - https://sketch.com -->
    <title>travel-card</title>
    <desc>Created with Sketch.</desc>
    <g id="Citizenship" stroke="none" stroke-width="1" fill="none" fill-rule="evenodd">
        <g transform="translate(-967.000000, -3488.000000)" fill="#FFFFFF" fill-rule="nonzero" id="Group-4">
            <g transform="translate(935.000000, 3441.000000)">
                <g id="travel-card" transform="translate(32.000000, 47.000000)">
                    <g id="calendar">
                        <path d="M2.5,27.5 L57.5,27.5 C58.8807119,27.5 60,26.3807119 60,25 C60,23.6192881 58.8807119,22.5 57.5,22.5 L2.5,22.5 C1.11928813,22.5 0,23.6192881 0,25 C0,26.3807119 1.11928813,27.5 2.5,27.5 Z" id="Path"></path>
                        <path d="M52.5,60 L7.5,60 C3.35745807,60 0,56.6413822 0,52.5 L0,12.5 C0,8.35745807 3.35861781,5 7.5,5 L52.5,5 C56.6425419,5 60,8.35861781 60,12.5 L60,52.5 C60,56.6407119 56.6407119,60 52.5,60 Z M52.5,55 C53.8792881,55 55,53.8792881 55,52.5 L55,12.5 C55,11.1196551 53.8807315,10 52.5,10 L7.5,10 C6.11965507,10 5,11.1192685 5,12.5 L5,52.5 C5,53.8803449 6.11926845,55 7.5,55 L52.5,55 Z" id="Path"></path>
                        <path d="M12.5,2.5 L12.5,15 C12.5,16.3807119 13.6192881,17.5 15,17.5 C16.3807119,17.5 17.5,16.3807119 17.5,15 L17.5,2.5 C17.5,1.11928813 16.3807119,0 15,0 C13.6192881,0 12.5,1.11928813 12.5,2.5 Z" id="Path"></path>
                        <path d="M42.5,2.5 L42.5,15 C42.5,16.3807119 43.6192881,17.5 45,17.5 C46.3807119,17.5 47.5,16.3807119 47.5,15 L47.5,2.5 C47.5,1.11928813 46.3807119,0 45,0 C43.6192881,0 42.5,1.11928813 42.5,2.5 Z" id="Path"></path>
                    </g>
                </g>
            </g>
        </g>
    </g>
</svg>