<?xml version="1.0" encoding="UTF-8"?>
<svg width="18px" height="24px" viewBox="0 0 18 24" version="1.1" xmlns="http://www.w3.org/2000/svg" xmlns:xlink="http://www.w3.org/1999/xlink">
    <!-- Generator: Sketch 57.1 (83088) - https://sketch.com -->
    <title>Icon / Mail</title>
    <desc>Created with Sketch.</desc>
    <defs>
        <path d="M15,0 C16.6572847,0 18,1.34271525 18,3 L18,21 C18,22.6572847 16.6572847,24 15,24 L3,24 C1.34271525,24 0,22.6572847 0,21 L0,3 C0,1.34271525 1.34271525,0 3,0 L7,0 L11,0 L15,0 Z M15,2 L12,2 C12,3.10428475 11.1042847,4 10,4 L10,4 L8,4 C6.89571525,4 6,3.10428475 6,2 L6,2 L3,2 C2.44728475,2 2,2.44728475 2,3 L2,21 C2,21.5527153 2.44728475,22 3,22 L15,22 C15.5527153,22 16,21.5527153 16,21 L16,3 C16,2.44728475 15.5527153,2 15,2 Z" id="path-1"></path>
    </defs>
    <g id="Contact" stroke="none" stroke-width="1" fill="none" fill-rule="evenodd">
        <g id="Contact-Us" transform="translate(-166.000000, -937.000000)">
            <g id="Icon-/-Mobile" transform="translate(145.000000, 919.000000)">
                <g id="Color-/-Smoke" transform="translate(21.000000, 18.000000)">
                    <mask id="mask-2" fill="white">
                        <use xlink:href="#path-1"></use>
                    </mask>
                    <use id="Mask" fill="#000000" fill-rule="nonzero" xlink:href="#path-1"></use>
                    <g id="Color-/-Blue" mask="url(#mask-2)" fill="#252851">
                        <g transform="translate(-21.000000, -18.000000)" id="White">
                            <rect x="0" y="0" width="60" height="60"></rect>
                        </g>
                    </g>
                </g>
            </g>
        </g>
    </g>
</svg>