<?xml version="1.0" encoding="UTF-8"?>
<svg width="50px" height="50px" viewBox="0 0 50 50" version="1.1" xmlns="http://www.w3.org/2000/svg" xmlns:xlink="http://www.w3.org/1999/xlink">
    <!-- Generator: Sketch 57.1 (83088) - https://sketch.com -->
    <title>Icon/Amenities/Children Playgraund</title>
    <desc>Created with Sketch.</desc>
    <defs>
        <path d="M21.5,14 C24.5372847,14 27,16.4627153 27,19.5 L27,21 L29,21 C29.5522847,21 30,21.4477153 30,22 C30,22.5522847 29.5522847,23 29,23 L28.866,23 L26.9899495,36.1414214 C26.9195711,36.6340701 26.4976504,37 26,37 L17,37 C16.5023496,37 16.0804289,36.6340701 16.0100505,36.1414214 L14.133,23 L14,23 C13.4477153,23 13,22.5522847 13,22 C13,21.4477153 13.4477153,21 14,21 L16,21 L16,19.5 C16,16.4627153 18.4627153,14 21.5,14 Z M33,13 C34.6568542,13 36,14.3431458 36,16 C36,17.3058822 35.1656226,18.4168852 34.0009007,18.8289758 L34,27 C35.6572847,27 37,28.3427153 37,30 L37,36 C37,36.5522847 36.5522847,37 36,37 L30,37 C29.4477153,37 29,36.5522847 29,36 L29,30 C29,28.3427153 30.3427153,27 32,27 L32.0000889,18.8293257 C30.8348501,18.4175144 30,17.3062521 30,16 C30,14.3431458 31.3431458,13 33,13 Z M26.848,23 L16.151,23 L17.8672954,35 L25.1327046,35 L26.848,23 Z M34,29 L32,29 C31.4472847,29 31,29.4472847 31,30 L31,35 L35,35 L35,30 C35,29.4472847 34.5527153,29 34,29 Z M21.5,16 C19.5672847,16 18,17.5672847 18,19.5 L18,21 L25,21 L25,19.5 C25,17.5672847 23.4327153,16 21.5,16 Z M33,15 C32.4477153,15 32,15.4477153 32,16 C32,16.5522847 32.4477153,17 33,17 C33.5522847,17 34,16.5522847 34,16 C34,15.4477153 33.5522847,15 33,15 Z" id="path-1"></path>
    </defs>
    <g id="Icon/Amenities/Children-Playgraund" stroke="none" stroke-width="1" fill="none" fill-rule="evenodd">
        <mask id="mask-2" fill="white">
            <use xlink:href="#path-1"></use>
        </mask>
        <use id="Mask" fill="#000000" fill-rule="nonzero" xlink:href="#path-1"></use>
    </g>
</svg>