<?xml version="1.0" encoding="UTF-8"?>
<svg width="24px" height="24px" viewBox="0 0 24 24" version="1.1" xmlns="http://www.w3.org/2000/svg" xmlns:xlink="http://www.w3.org/1999/xlink">
    <!-- Generator: Sketch 57.1 (83088) - https://sketch.com -->
    <title>Icon/Amenities/Gardens</title>
    <desc>Created with Sketch.</desc>
    <defs>
        <path d="M22.5,13 C24.7970166,13 26.8724091,14.2035779 28.0360367,16.0969544 C28.3524937,16.0329634 28.6745435,16 29,16 C31.5071162,16 33.5834374,17.8455482 33.9444346,20.2521154 C35.7347765,20.8563054 37,22.5397791 37,24.5 C37,26.9852847 34.9852847,29 32.5,29 L30.414,29 L26,33.414 L26,36 C26,36.5522847 25.5522847,37 25,37 C24.4477153,37 24,36.5522847 24,36 L24,33.4142136 L19.585,29 L17.5,29 C15.0147153,29 13,26.9852847 13,24.5 C13,22.5364121 14.2662184,20.8616843 16.0451748,20.2571097 C16.015213,20.0065273 16,19.7539273 16,19.5 C16,15.9097153 18.9097153,13 22.5,13 Z M27.584,29 L22.415,29 L25,31.585 L27.584,29 Z M22.5,15 C20.0142847,15 18,17.0142847 18,19.5 C18,19.9216277 18.0612534,20.3395441 18.1802436,20.7488364 C18.3569952,21.3568118 17.9313981,21.9739323 17.3002955,22.0247711 C16.0024587,22.1293191 15,23.201345 15,24.5 C15,25.8807153 16.1192847,27 17.5,27 L32.5,27 C33.8807153,27 35,25.8807153 35,24.5 C35,23.2582417 34.0806127,22.2150334 32.8537421,22.0399728 C32.3610197,21.9696669 31.995,21.5477131 31.995,21.05 C31.9970733,21.0102154 31.9985449,20.9819769 31.9997518,20.9610117 C31.9788742,19.3222612 30.6436996,18 29,18 C28.6286491,18 28.2603784,18.0736541 27.9008644,18.2158794 C27.4011405,18.4135724 26.8345227,18.1809502 26.6178665,17.6891509 C25.9036053,16.0678115 24.3002764,15 22.5,15 Z" id="path-1"></path>
    </defs>
    <g id="Symbols" stroke="none" stroke-width="1" fill="none" fill-rule="evenodd">
        <g id="Group-4" transform="translate(-13.000000, -13.000000)">
            <g id="Icon/Amenities/Gardens">
                <g>
                    <mask id="mask-2" fill="white">
                        <use xlink:href="#path-1"></use>
                    </mask>
                    <use id="Mask" fill="#000000" fill-rule="nonzero" xlink:href="#path-1"></use>
                </g>
            </g>
        </g>
    </g>
</svg>