<?xml version="1.0" encoding="UTF-8"?>
<svg width="50px" height="50px" viewBox="0 0 50 50" version="1.1" xmlns="http://www.w3.org/2000/svg" xmlns:xlink="http://www.w3.org/1999/xlink">
    <!-- Generator: Sketch 57.1 (83088) - https://sketch.com -->
    <title>Icon/Amenities/Coffee Restaurant</title>
    <desc>Created with Sketch.</desc>
    <defs>
        <path d="M35,35 C35.5522847,35 36,35.4477153 36,36 C36,36.5522847 35.5522847,37 35,37 L19,37 C18.4477153,37 18,36.5522847 18,36 C18,35.4477153 18.4477153,35 19,35 L35,35 Z M35,22 C35.5522847,22 36,22.4477153 36,23 L36,24 C36,28.9702847 31.9702847,33 27,33 C24.3349616,33 21.940341,31.8414394 20.2923553,30.0005352 L18,30 C15.7907153,30 14,28.2092847 14,26 C14,23.7907153 15.7907153,22 18,22 L35,22 Z M34,24 L20,24 C20,27.8657153 23.1342847,31 27,31 C30.8657153,31 34,27.8657153 34,24 Z M18,24 C16.8952847,24 16,24.8952847 16,26 C16,27.1047153 16.8952847,28 18,28 L18.9361125,28.0009712 C18.3739358,26.8701776 18.0426152,25.6044077 18.0038374,24.2653479 L18,24 Z M21,13 C21.5522847,13 22,13.4477153 22,14 C22,14.2645692 22.1071813,14.7468853 22.4246429,15.2230776 C22.6632091,15.5809269 22.9948182,15.8793751 23.4472136,16.1055728 C24.2170405,16.4904862 24.8113573,17.0253714 25.2394577,17.667522 C25.810885,18.524663 26,19.3756803 26,20 C26,20.5522847 25.5522847,21 25,21 C24.4477153,21 24,20.5522847 24,20 C24,19.7354308 23.8928187,19.2531147 23.5753571,18.7769224 C23.3367909,18.4190731 23.0051818,18.1206249 22.5527864,17.8944272 C21.7829595,17.5095138 21.1886427,16.9746286 20.7605423,16.332478 C20.189115,15.475337 20,14.6243197 20,14 C20,13.4477153 20.4477153,13 21,13 Z M27,13 C27.5522847,13 28,13.4477153 28,14 C28,14.2645692 28.1071813,14.7468853 28.4246429,15.2230776 C28.6632091,15.5809269 28.9948182,15.8793751 29.4472136,16.1055728 C30.2170405,16.4904862 30.8113573,17.0253714 31.2394577,17.667522 C31.810885,18.524663 32,19.3756803 32,20 C32,20.5522847 31.5522847,21 31,21 C30.4477153,21 30,20.5522847 30,20 C30,19.7354308 29.8928187,19.2531147 29.5753571,18.7769224 C29.3367909,18.4190731 29.0051818,18.1206249 28.5527864,17.8944272 C27.7829595,17.5095138 27.1886427,16.9746286 26.7605423,16.332478 C26.189115,15.475337 26,14.6243197 26,14 C26,13.4477153 26.4477153,13 27,13 Z" id="path-1"></path>
    </defs>
    <g id="Icon/Amenities/Coffee-Restaurant" stroke="none" stroke-width="1" fill="none" fill-rule="evenodd">
        <mask id="mask-2" fill="white">
            <use xlink:href="#path-1"></use>
        </mask>
        <use id="Mask" fill="#000000" fill-rule="nonzero" xlink:href="#path-1"></use>
    </g>
</svg>