<?xml version="1.0" encoding="UTF-8"?>
<svg width="50px" height="50px" viewBox="0 0 50 50" version="1.1" xmlns="http://www.w3.org/2000/svg" xmlns:xlink="http://www.w3.org/1999/xlink">
    <!-- Generator: Sketch 57.1 (83088) - https://sketch.com -->
    <title>Icon/Amenities/Commercial Room</title>
    <desc>Created with Sketch.</desc>
    <defs>
        <path d="M25.6332378,13.2260427 L36.6332378,22.2260427 C36.8653732,22.4159717 37,22.7000669 37,23 L37,34 C37,35.6572847 35.6572847,37 34,37 L16,37 C14.3427153,37 13,35.6572847 13,34 L13,23 C13,22.7000669 13.1346268,22.4159717 13.3667622,22.2260427 L24.3667622,13.2260427 C24.7351281,12.9246524 25.2648719,12.9246524 25.6332378,13.2260427 Z M25,15.2920609 L15,23.4738791 L15,34 C15,34.5527153 15.4472847,35 16,35 L34,35 C34.5527153,35 35,34.5527153 35,34 L35,23.4738791 L25,15.2920609 Z M25,20 C25.5522847,20 26,20.4477153 26,21 L26,22 L27,22 C27.5522847,22 28,22.4477153 28,23 C28,23.5522847 27.5522847,24 27,24 L24,24 C23.4472847,24 23,24.4472847 23,25 C23,25.5527153 23.4472847,26 24,26 L26,26 C27.6572847,26 29,27.3427153 29,29 C29,30.6572847 27.6572847,32 26,32 L26,33 C26,33.5522847 25.5522847,34 25,34 C24.4477153,34 24,33.5522847 24,33 L24,32 L22.5,32 C21.9477153,32 21.5,31.5522847 21.5,31 C21.5,30.4477153 21.9477153,30 22.5,30 L26,30 C26.5527153,30 27,29.5527153 27,29 C27,28.4472847 26.5527153,28 26,28 L24,28 C22.3427153,28 21,26.6572847 21,25 C21,23.3427153 22.3427153,22 24,22 L24,21 C24,20.4477153 24.4477153,20 25,20 Z" id="path-1"></path>
    </defs>
    <g id="Icon/Amenities/Commercial-Room" stroke="none" stroke-width="1" fill="none" fill-rule="evenodd">
        <mask id="mask-2" fill="white">
            <use xlink:href="#path-1"></use>
        </mask>
        <use id="Mask" fill="#000000" fill-rule="nonzero" xlink:href="#path-1"></use>
    </g>
</svg>