<?xml version="1.0" encoding="UTF-8"?>
<svg width="50px" height="50px" viewBox="0 0 50 50" version="1.1" xmlns="http://www.w3.org/2000/svg" xmlns:xlink="http://www.w3.org/1999/xlink">
    <!-- Generator: Sketch 57.1 (83088) - https://sketch.com -->
    <title>Icon/Amenities/Conferance</title>
    <desc>Created with Sketch.</desc>
    <defs>
        <path d="M34,13 C35.6565529,13 37,14.3429832 37,16 L37,29 C37,30.6565529 35.6570168,32 34,32 L29.4806248,32 L25.7808688,36.624695 C25.3805435,37.1251017 24.6194565,37.1251017 24.2191312,36.624695 L20.5193752,32 L16,32 C14.3434471,32 13,30.6570168 13,29 L13,16 C13,14.3429832 14.3434471,13 16,13 L34,13 Z M34,15 L16,15 C15.447862,15 15,15.4477074 15,16 L15,29 C15,29.5522926 15.447862,30 16,30 L21,30 C21.3037837,30 21.5910966,30.1380897 21.7808688,30.375305 L25,34.3992189 L28.2191312,30.375305 C28.4089034,30.1380897 28.6962163,30 29,30 L34,30 C34.5522926,30 35,29.552138 35,29 L35,16 C35,15.4477074 34.552138,15 34,15 Z M25,25 C26.7974822,25 28.4845839,25.5053573 29.613462,26.3822757 C30.0496146,26.7210814 30.12853,27.3493093 29.7897243,27.785462 C29.4509186,28.2216146 28.8226907,28.30053 28.386538,27.9617243 C27.6325894,27.376053 26.3771616,27 25,27 C23.6217408,27 22.366855,27.3756606 21.6140004,27.9613057 C21.1780789,28.3004088 20.5497973,28.2219219 20.2106943,27.7860004 C19.8715912,27.3500789 19.9500781,26.7217973 20.3859996,26.3826943 C21.5142931,25.5049955 23.2012194,25 25,25 Z M25,17.001 C26.9329966,17.001 28.5,18.5680034 28.5,20.501 C28.5,22.4339966 26.9329966,24.001 25,24.001 C23.0670034,24.001 21.5,22.4339966 21.5,20.501 C21.5,18.5680034 23.0670034,17.001 25,17.001 Z M25,19.001 C24.1715729,19.001 23.5,19.6725729 23.5,20.501 C23.5,21.3294271 24.1715729,22.001 25,22.001 C25.8284271,22.001 26.5,21.3294271 26.5,20.501 C26.5,19.6725729 25.8284271,19.001 25,19.001 Z" id="path-1"></path>
    </defs>
    <g id="Icon/Amenities/Conferance" stroke="none" stroke-width="1" fill="none" fill-rule="evenodd">
        <mask id="mask-2" fill="white">
            <use xlink:href="#path-1"></use>
        </mask>
        <use id="Mask" fill="#000000" fill-rule="nonzero" xlink:href="#path-1"></use>
    </g>
</svg>