<?xml version="1.0" encoding="UTF-8"?>
<svg width="50px" height="50px" viewBox="0 0 50 50" version="1.1" xmlns="http://www.w3.org/2000/svg" xmlns:xlink="http://www.w3.org/1999/xlink">
    <!-- Generator: Sketch 57.1 (83088) - https://sketch.com -->
    <title>Icon/Amenities/Dinner Room</title>
    <desc>Created with Sketch.</desc>
    <defs>
        <path d="M9,0 C9.55228475,0 10,0.44771525 10,1 L10,9 C10,10.3066217 9.16537884,11.4177095 8,11.8293999 L8,21 C8,22.6572847 6.65728475,24 5,24 C3.34271525,24 2,22.6572847 2,21 L2,11.8293999 C0.834621164,11.4177095 0,10.3066217 0,9 L0,1 C0,0.44771525 0.44771525,0 1,0 C1.55228475,0 2,0.44771525 2,1 L2,9 C2,9.55271525 2.44728475,10 3,10 C3.55228475,10 4,10.4477153 4,11 L4,21 C4,21.5527153 4.44728475,22 5,22 C5.55271525,22 6,21.5527153 6,21 L6,11 C6,10.4477153 6.44771525,10 7,10 C7.55271525,10 8,9.55271525 8,9 L8,1 C8,0.44771525 8.44771525,0 9,0 Z M19,0 C19.5522847,0 20,0.44771525 20,1 L20,21 C20,22.6572847 18.6572847,24 17,24 C15.3427153,24 14,22.6572847 14,21 L14,16 L13,16 C12.4477153,16 12,15.5522847 12,15 L12,7 C12,3.13371525 15.1337153,0 19,0 Z M18,2.09998944 C15.7175777,2.56317607 14,4.58075734 14,7 L14,14 L15,14 C15.5522847,14 16,14.4477153 16,15 L16,21 C16,21.5527153 16.4472847,22 17,22 C17.5527153,22 18,21.5527153 18,21 L18,2.09998944 Z M5,0 C5.55228475,0 6,0.44771525 6,1 L6,7 C6,7.55228475 5.55228475,8 5,8 C4.44771525,8 4,7.55228475 4,7 L4,1 C4,0.44771525 4.44771525,0 5,0 Z" id="path-1"></path>
    </defs>
    <g id="Icon/Amenities/Dinner-Room" stroke="none" stroke-width="1" fill="none" fill-rule="evenodd">
        <g id="Color/Smoke" transform="translate(15.000000, 13.000000)">
            <mask id="mask-2" fill="white">
                <use xlink:href="#path-1"></use>
            </mask>
            <use id="Mask" fill="#000000" fill-rule="nonzero" xlink:href="#path-1"></use>
        </g>
    </g>
</svg>