<?xml version="1.0" encoding="UTF-8"?>
<svg width="61px" height="61px" viewBox="0 0 61 61" version="1.1" xmlns="http://www.w3.org/2000/svg" xmlns:xlink="http://www.w3.org/1999/xlink">
    <!-- Generator: Sketch 57.1 (83088) - https://sketch.com -->
    <title>world</title>
    <desc>Created with Sketch.</desc>
    <g id="Citizenship" stroke="none" stroke-width="1" fill="none" fill-rule="evenodd">
        <g transform="translate(-562.000000, -3487.000000)" fill="#FFFFFF" fill-rule="nonzero" id="Group-4">
            <g transform="translate(535.000000, 3441.000000)">
                <g id="world" transform="translate(27.000000, 46.000000)">
                    <path d="M30.5,60.5 C38.0924535,60.5 43,47.0042472 43,30.5 C43,13.9957528 38.0924535,0.5 30.5,0.5 C22.9075465,0.5 18,13.9957528 18,30.5 C18,47.0042472 22.9075465,60.5 30.5,60.5 Z M30.5,55.5 C27.0467585,55.5 23,44.371414 23,30.5 C23,16.628586 27.0467585,5.5 30.5,5.5 C33.9532415,5.5 38,16.628586 38,30.5 C38,44.371414 33.9532415,55.5 30.5,55.5 Z" id="Oval"></path>
                    <path d="M4.25,25.5 L56.75,25.5 C58.1307119,25.5 59.25,24.3807119 59.25,23 C59.25,21.6192881 58.1307119,20.5 56.75,20.5 L4.25,20.5 C2.86928813,20.5 1.75,21.6192881 1.75,23 C1.75,24.3807119 2.86928813,25.5 4.25,25.5 Z" id="Path"></path>
                    <path d="M4.25,40.5 L56.75,40.5 C58.1307119,40.5 59.25,39.3807119 59.25,38 C59.25,36.6192881 58.1307119,35.5 56.75,35.5 L4.25,35.5 C2.86928813,35.5 1.75,36.6192881 1.75,38 C1.75,39.3807119 2.86928813,40.5 4.25,40.5 Z" id="Path"></path>
                    <path d="M30.5,60.5 C47.0685425,60.5 60.5,47.0685425 60.5,30.5 C60.5,13.9314575 47.0685425,0.5 30.5,0.5 C13.9314575,0.5 0.5,13.9314575 0.5,30.5 C0.5,47.0685425 13.9314575,60.5 30.5,60.5 Z M30.5,55.5 C16.6928813,55.5 5.5,44.3071187 5.5,30.5 C5.5,16.6928813 16.6928813,5.5 30.5,5.5 C44.3071187,5.5 55.5,16.6928813 55.5,30.5 C55.5,44.3071187 44.3071187,55.5 30.5,55.5 Z" id="Oval"></path>
                </g>
            </g>
        </g>
    </g>
</svg>