<?xml version="1.0" encoding="UTF-8"?>
<svg width="61px" height="50px" viewBox="0 0 61 50" version="1.1" xmlns="http://www.w3.org/2000/svg" xmlns:xlink="http://www.w3.org/1999/xlink">
    <!-- Generator: Sketch 57.1 (83088) - https://sketch.com -->
    <title>travel-card</title>
    <desc>Created with Sketch.</desc>
    <g id="Citizenship" stroke="none" stroke-width="1" fill="none" fill-rule="evenodd">
        <g transform="translate(-964.000000, -3779.000000)" fill="#FFFFFF" fill-rule="nonzero" id="Group-4">
            <g transform="translate(935.000000, 3728.000000)">
                <g id="travel-card" transform="translate(29.000000, 51.000000)">
                    <g id="graduation-cap">
                        <path d="M45.3770734,40.8588193 C44.6728035,41.4036606 43.7837327,41.9604576 42.6992576,42.488703 C39.4940102,44.0499716 35.3765292,45 30.2396847,45 C25.1028403,45 20.9853593,44.0499716 17.7801119,42.488703 C16.6956368,41.9604576 15.806566,41.4036606 15.1022961,40.8588193 C15.0973484,40.8549916 15.0924199,40.8511722 15.0875108,40.8473612 L15.0875108,21.25 C15.0875108,19.8692881 13.9682227,18.75 12.5875108,18.75 C11.2067989,18.75 10.0875108,19.8692881 10.0875108,21.25 L10.0875108,41.9725 C10.0875108,42.595991 10.3204889,43.1969805 10.7407366,43.6575594 C10.9931151,43.9341585 11.4235776,44.3344516 12.0428342,44.8135245 C13.0131567,45.564191 14.1927001,46.3029018 15.5905619,46.983797 C19.4777058,48.8772159 24.3439205,50 30.2396847,50 C36.135449,50 41.0016636,48.8772159 44.8888075,46.983797 C46.2866694,46.3029018 47.4662127,45.564191 48.4365352,44.8135245 C49.0557918,44.3344516 49.4862544,43.9341585 49.7386328,43.6575594 C50.1588806,43.1969805 50.3918586,42.595991 50.3918586,41.9725 L50.3918586,21.25 C50.3918586,19.8692881 49.2725705,18.75 47.8918586,18.75 C46.5111468,18.75 45.3918586,19.8692881 45.3918586,21.25 L45.3918586,40.8473614 C45.3869495,40.8511722 45.3820211,40.8549916 45.3770734,40.8588193 Z" id="Path"></path>
                        <path d="M30.2396847,5.29028251 L56.8685117,18.4899166 C58.1055834,19.1031202 59.605528,18.5973752 60.2187317,17.3603035 C60.8319354,16.1232317 60.3261904,14.6232871 59.0891186,14.0100834 L31.3499882,0.260083437 C30.6504014,-0.0866944791 29.828968,-0.0866944791 29.1293813,0.260083437 L1.39025082,14.0100834 C0.15317906,14.6232871 -0.352565949,16.1232317 0.260637724,17.3603035 C0.873841397,18.5973752 2.373786,19.1031202 3.61085776,18.4899166 L30.2396847,5.29028251 Z" id="Path"></path>
                        <path d="M3.61085776,14.0100834 C2.373786,13.3968798 0.873841397,13.9026248 0.260637724,15.1396965 C-0.352565949,16.3767683 0.15317906,17.8767129 1.39025082,18.4899166 L29.1293813,32.2399166 C29.828968,32.5866945 30.6504014,32.5866945 31.3499882,32.2399166 L59.0891186,18.4899166 C60.3261904,17.8767129 60.8319354,16.3767683 60.2187317,15.1396965 C59.605528,13.9026248 58.1055834,13.3968798 56.8685117,14.0100834 L30.2396847,27.2097175 L3.61085776,14.0100834 Z" id="Path"></path>
                        <path d="M55.4788152,18.125 L55.4788152,36.875 C55.4788152,38.2557119 56.5981033,39.375 57.9788152,39.375 C59.359527,39.375 60.4788152,38.2557119 60.4788152,36.875 L60.4788152,18.125 C60.4788152,16.7442881 59.359527,15.625 57.9788152,15.625 C56.5981033,15.625 55.4788152,16.7442881 55.4788152,18.125 Z" id="Path"></path>
                    </g>
                </g>
            </g>
        </g>
    </g>
</svg>