<?xml version="1.0" encoding="UTF-8"?>
<svg width="50px" height="50px" viewBox="0 0 50 50" version="1.1" xmlns="http://www.w3.org/2000/svg" xmlns:xlink="http://www.w3.org/1999/xlink">
    <!-- Generator: Sketch 57.1 (83088) - https://sketch.com -->
    <title>Icon/Amenities/Entertainment Room</title>
    <desc>Created with Sketch.</desc>
    <defs>
        <path d="M18.5940671,21.2929009 L28.7090671,31.4079009 C29.2347176,31.9335514 29.0234222,32.828613 28.3181881,33.063691 L16.9841881,36.841691 C14.6214301,37.629277 12.372691,35.380538 13.1602771,33.0177799 L16.9382771,21.6837799 C17.1733551,20.9785458 18.0684167,20.7672504 18.5940671,21.2929009 Z M35.0019604,32.9900077 C35.5542451,32.9900077 36.0019604,33.4377229 36.0019604,33.9900077 L36.0019604,34.0000077 C36.0019604,34.5522924 35.5542451,35.0000077 35.0019604,35.0000077 C34.4496756,35.0000077 34.0019604,34.5522924 34.0019604,34.0000077 L34.0019604,33.9900077 C34.0019604,33.4377229 34.4496756,32.9900077 35.0019604,32.9900077 Z M18.3239764,23.8512373 L15.0576437,33.6502355 C14.7912297,34.4494774 15.5524906,35.2107384 16.3517326,34.9443244 L26.1507308,31.6779917 L18.3239764,23.8512373 Z M36.0019604,26.0000077 C36.5542451,26.0000077 37.0019604,26.4477229 37.0019604,27.0000077 C37.0019604,27.5522924 36.5542451,28.0000077 36.0019604,28.0000077 L34.1229604,28.0000077 C33.0304084,28.0000077 31.9816946,28.434487 31.2090671,29.2071145 C30.8185428,29.5976388 30.1853779,29.5976388 29.7948536,29.2071145 C29.4043293,28.8165902 29.4043293,28.1834252 29.7948536,27.7929009 C30.9425174,26.6452371 32.499924,26.0000077 34.1229604,26.0000077 L36.0019604,26.0000077 Z M27.0019604,23.0000077 C27.5542451,23.0000077 28.0019604,23.4477229 28.0019604,24.0000077 L28.0019604,24.0100077 C28.0019604,24.5622924 27.5542451,25.0100077 27.0019604,25.0100077 C26.4496756,25.0100077 26.0019604,24.5622924 26.0019604,24.0100077 L26.0019604,24.0000077 C26.0019604,23.4477229 26.4496756,23.0000077 27.0019604,23.0000077 Z M36.0019604,20.9900077 C36.5542451,20.9900077 37.0019604,21.4377229 37.0019604,21.9900077 L37.0019604,22.0000077 C37.0019604,22.5522924 36.5542451,23.0000077 36.0019604,23.0000077 C35.4496756,23.0000077 35.0019604,22.5522924 35.0019604,22.0000077 L35.0019604,21.9900077 C35.0019604,21.4377229 35.4496756,20.9900077 36.0019604,20.9900077 Z M23.0019604,13.0000077 C23.5542451,13.0000077 24.0019604,13.4477229 24.0019604,14.0000077 L24.0019604,15.8790077 C24.0019604,17.502044 23.356731,19.0594506 22.2090671,20.2071145 C21.8185428,20.5976388 21.1853779,20.5976388 20.7948536,20.2071145 C20.4043293,19.8165902 20.4043293,19.1834252 20.7948536,18.7929009 C21.567481,18.0202735 22.0019604,16.9715596 22.0019604,15.8790077 L22.0019604,14.0000077 C22.0019604,13.4477229 22.4496756,13.0000077 23.0019604,13.0000077 Z M36.7433323,13.3289134 C37.1139675,13.7383618 37.0825031,14.3707445 36.6730547,14.7413797 C35.9090657,15.432947 35.2596733,15.5531472 34.1715426,15.4314567 L33.9479027,15.403991 C33.914842,15.399604 33.914842,15.399604 33.8825973,15.3953523 C33.2585982,15.3133331 33.0792569,15.3396182 32.8281146,15.5673254 C32.5587385,15.8112059 32.5088964,16.0076606 32.5044424,16.7516195 C32.4968986,18.0112302 32.3270838,18.6788259 31.5234305,19.4070393 C30.7078052,20.1461008 30.0224138,20.2343715 28.7959251,20.0722604 C28.1016285,19.9804918 27.9315551,20.0023455 27.6731146,20.2363254 C27.2636961,20.6069937 26.6313109,20.5755804 26.2606426,20.1661619 C25.8899744,19.7567434 25.9213876,19.1243582 26.3308061,18.75369 C27.1463313,18.0153518 27.8311826,17.927351 29.0576365,18.0894575 C29.7517779,18.1812056 29.9218952,18.1592964 30.1804903,17.924976 C30.449822,17.6809268 30.5000229,17.4835712 30.5044605,16.7426132 C30.5120235,15.4793578 30.6810018,14.8133219 31.485263,14.085182 C32.2788389,13.3656568 32.9921586,13.2611091 34.1432378,13.4124084 C34.17752,13.4169288 34.17752,13.4169288 34.2109866,13.4213698 C34.9038699,13.5133119 35.0734954,13.4916092 35.3308661,13.2586357 C35.7403145,12.8880006 36.3726972,12.9194649 36.7433323,13.3289134 Z M17.0019604,14.0000077 C17.5542451,14.0000077 18.0019604,14.4477229 18.0019604,15.0000077 L18.0019604,15.0100077 C18.0019604,15.5622924 17.5542451,16.0100077 17.0019604,16.0100077 C16.4496756,16.0100077 16.0019604,15.5622924 16.0019604,15.0100077 L16.0019604,15.0000077 C16.0019604,14.4477229 16.4496756,14.0000077 17.0019604,14.0000077 Z" id="path-1"></path>
    </defs>
    <g id="Icon/Amenities/Entertainment-Room" stroke="none" stroke-width="1" fill="none" fill-rule="evenodd">
        <mask id="mask-2" fill="white">
            <use xlink:href="#path-1"></use>
        </mask>
        <use id="Mask" fill="#000000" fill-rule="nonzero" xlink:href="#path-1"></use>
    </g>
</svg>