<?xml version="1.0" encoding="UTF-8"?>
<svg width="24px" height="18px" viewBox="0 0 24 18" version="1.1" xmlns="http://www.w3.org/2000/svg" xmlns:xlink="http://www.w3.org/1999/xlink">
    <!-- Generator: Sketch 57.1 (83088) - https://sketch.com -->
    <title>Icon / Filter</title>
    <desc>Created with Sketch.</desc>
    <defs>
        <path d="M21,0 C22.6572847,0 24,1.34271525 24,3 L24,15 C24,16.6572847 22.6572847,18 21,18 L3,18 C1.34271525,18 0,16.6572847 0,15 L0,3 C0,1.34271525 1.34271525,0 3,0 L21,0 Z M21,2 L3,2 C2.44728475,2 2,2.44728475 2,3 L2,15 C2,15.5527153 2.44728475,16 3,16 L21,16 C21.5527153,16 22,15.5527153 22,15 L22,3 C22,2.44728475 21.5527153,2 21,2 Z M15,12 C15.5522847,12 16,12.4477153 16,13 C16,13.5128358 15.6139598,13.9355072 15.1166211,13.9932723 L15,14 L9,14 C8.44771525,14 8,13.5522847 8,13 C8,12.4871642 8.38604019,12.0644928 8.88337887,12.0067277 L9,12 L15,12 Z M6,7.99 C6.51283584,7.99 6.93550716,8.37604019 6.99327227,8.87337887 L7,8.99 L7,9 C7,9.55228475 6.55228475,10 6,10 C5.48716416,10 5.06449284,9.61395981 5.00672773,9.11662113 L5,9 L5,8.99 C5,8.43771525 5.44771525,7.99 6,7.99 Z M14,7.99 C14.5128358,7.99 14.9355072,8.37604019 14.9932723,8.87337887 L15,8.99 L15,9 C15,9.55228475 14.5522847,10 14,10 C13.4871642,10 13.0644928,9.61395981 13.0067277,9.11662113 L13,9 L13,8.99 C13,8.43771525 13.4477153,7.99 14,7.99 Z M18,7.99 C18.5128358,7.99 18.9355072,8.37604019 18.9932723,8.87337887 L19,8.99 L19,9 C19,9.55228475 18.5522847,10 18,10 C17.4871642,10 17.0644928,9.61395981 17.0067277,9.11662113 L17,9 L17,8.99 C17,8.43771525 17.4477153,7.99 18,7.99 Z M10,7.99 C10.5128358,7.99 10.9355072,8.37604019 10.9932723,8.87337887 L11,8.99 L11,9 C11,9.55228475 10.5522847,10 10,10 C9.48716416,10 9.06449284,9.61395981 9.00672773,9.11662113 L9,9 L9,8.99 C9,8.43771525 9.44771525,7.99 10,7.99 Z M18,3.99 C18.5128358,3.99 18.9355072,4.37604019 18.9932723,4.87337887 L19,4.99 L19,5 C19,5.55228475 18.5522847,6 18,6 C17.4871642,6 17.0644928,5.61395981 17.0067277,5.11662113 L17,5 L17,4.99 C17,4.43771525 17.4477153,3.99 18,3.99 Z M6,3.99 C6.51283584,3.99 6.93550716,4.37604019 6.99327227,4.87337887 L7,4.99 L7,5 C7,5.55228475 6.55228475,6 6,6 C5.48716416,6 5.06449284,5.61395981 5.00672773,5.11662113 L5,5 L5,4.99 C5,4.43771525 5.44771525,3.99 6,3.99 Z M10,3.99 C10.5128358,3.99 10.9355072,4.37604019 10.9932723,4.87337887 L11,4.99 L11,5 C11,5.55228475 10.5522847,6 10,6 C9.48716416,6 9.06449284,5.61395981 9.00672773,5.11662113 L9,5 L9,4.99 C9,4.43771525 9.44771525,3.99 10,3.99 Z M14,3.99 C14.5522847,3.99 15,4.43771525 15,4.99 L15,4.99 L15,5 C15,5.55228475 14.5522847,6 14,6 C13.4477153,6 13,5.55228475 13,5 L13,5 L13,4.99 C13,4.43771525 13.4477153,3.99 14,3.99 Z" id="path-1"></path>
    </defs>
    <g id="Symbols" stroke="none" stroke-width="1" fill="none" fill-rule="evenodd" opacity="0.5">
        <g id="Seacrh-Box-B" transform="translate(-1011.000000, -32.000000)">
            <g id="Seacrh-Box" transform="translate(0.000000, -1.000000)">
                <g id="Icon-/-Filter" transform="translate(993.000000, 12.000000)">
                    <g id="Color-/-Smoke" transform="translate(18.000000, 21.000000)">
                        <mask id="mask-2" fill="white">
                            <use xlink:href="#path-1"></use>
                        </mask>
                        <use id="Mask" fill="#000000" fill-rule="nonzero" xlink:href="#path-1"></use>
                        <g mask="url(#mask-2)" fill="#FFFFFF" id="White">
                            <g transform="translate(-18.000000, -21.000000)">
                                <rect x="0" y="0" width="60" height="60"></rect>
                            </g>
                        </g>
                    </g>
                </g>
            </g>
        </g>
    </g>
</svg>