<?xml version="1.0" encoding="UTF-8"?>
<svg width="61px" height="56px" viewBox="0 0 61 56" version="1.1" xmlns="http://www.w3.org/2000/svg" xmlns:xlink="http://www.w3.org/1999/xlink">
    <!-- Generator: Sketch 57.1 (83088) - https://sketch.com -->
    <title>travel-card</title>
    <desc>Created with Sketch.</desc>
    <g id="Citizenship" stroke="none" stroke-width="1" fill="none" fill-rule="evenodd">
        <g transform="translate(-165.000000, -4063.000000)" fill="#FFFFFF" fill-rule="nonzero" id="Group-4">
            <g transform="translate(135.000000, 4015.000000)">
                <g id="travel-card" transform="translate(30.000000, 48.000000)">
                    <g id="atm">
                        <path d="M20.5,23 L20.5,29.25 C20.5,32.7007119 23.2992881,35.5 26.75,35.5 C30.2007119,35.5 33,32.7007119 33,29.25 L33,26.75 C33,26.0607119 33.5607119,25.5 34.25,25.5 C34.9392881,25.5 35.5,26.0607119 35.5,26.75 L35.5,31.75 C35.5,33.1307119 36.6192881,34.25 38,34.25 C39.3807119,34.25 40.5,33.1307119 40.5,31.75 L40.5,26.75 C40.5,23.2992881 37.7007119,20.5 34.25,20.5 C30.7992881,20.5 28,23.2992881 28,26.75 L28,29.25 C28,29.9392881 27.4392881,30.5 26.75,30.5 C26.0607119,30.5 25.5,29.9392881 25.5,29.25 L25.5,23 C25.5,21.6192881 24.3807119,20.5 23,20.5 C21.6192881,20.5 20.5,21.6192881 20.5,23 Z" id="Path"></path>
                        <path d="M23,25.5 L19.25,25.5 C17.8692881,25.5 16.75,26.6192881 16.75,28 C16.75,29.3807119 17.8692881,30.5 19.25,30.5 L23,30.5 C24.3807119,30.5 25.5,29.3807119 25.5,28 C25.5,26.6192881 24.3807119,25.5 23,25.5 Z" id="Path"></path>
                        <path d="M41.75,25.5 L38,25.5 C36.6192881,25.5 35.5,26.6192881 35.5,28 C35.5,29.3807119 36.6192881,30.5 38,30.5 L41.75,30.5 C43.1307119,30.5 44.25,29.3807119 44.25,28 C44.25,26.6192881 43.1307119,25.5 41.75,25.5 Z" id="Path"></path>
                        <path d="M8,3 L8,48 C8,52.1432119 11.3567881,55.5 15.5,55.5 L45.5,55.5 C49.6432119,55.5 53,52.1432119 53,48 L53,3 C53,1.61928813 51.8807119,0.5 50.5,0.5 C49.1192881,0.5 48,1.61928813 48,3 L48,48 C48,49.3817881 46.8817881,50.5 45.5,50.5 L15.5,50.5 C14.1182119,50.5 13,49.3817881 13,48 L13,3 C13,1.61928813 11.8807119,0.5 10.5,0.5 C9.11928813,0.5 8,1.61928813 8,3 Z" id="Path"></path>
                        <path d="M5.5,5.5 L55.5,5.5 L55.5,13 C55.5,14.3807119 56.6192881,15.5 58,15.5 C59.3807119,15.5 60.5,14.3807119 60.5,13 L60.5,3 C60.5,1.61928813 59.3807119,0.5 58,0.5 L3,0.5 C1.61928813,0.5 0.5,1.61928813 0.5,3 L0.5,13 C0.5,14.3807119 1.61928813,15.5 3,15.5 C4.38071187,15.5 5.5,14.3807119 5.5,13 L5.5,5.5 Z" id="Path"></path>
                    </g>
                </g>
            </g>
        </g>
    </g>
</svg>