<?xml version="1.0" encoding="UTF-8"?>
<svg width="50px" height="50px" viewBox="0 0 50 50" version="1.1" xmlns="http://www.w3.org/2000/svg" xmlns:xlink="http://www.w3.org/1999/xlink">
    <!-- Generator: Sketch 57.1 (83088) - https://sketch.com -->
    <title>Icon/Amenities/Fitness</title>
    <desc>Created with Sketch.</desc>
    <defs>
        <path d="M14.7071068,30.2928932 L19.7071068,35.2928932 C20.0976311,35.6834175 20.0976311,36.3165825 19.7071068,36.7071068 C19.3165825,37.0976311 18.6834175,37.0976311 18.2928932,36.7071068 L16.5,34.915 L14.7071068,36.7071068 C14.3165825,37.0976311 13.6834175,37.0976311 13.2928932,36.7071068 C12.9023689,36.3165825 12.9023689,35.6834175 13.2928932,35.2928932 L15.085,33.5 L13.2928932,31.7071068 C12.9023689,31.3165825 12.9023689,30.6834175 13.2928932,30.2928932 C13.6834175,29.9023689 14.3165825,29.9023689 14.7071068,30.2928932 Z M28.1821068,14.0408932 L35.9596537,21.8184404 C37.1317066,22.9889926 37.1317066,24.889507 35.9601068,26.0611068 C34.7885825,27.2326311 32.8894175,27.2326311 31.7178932,26.0611068 L28.535,22.879 L22.879,28.535 L26.0611068,31.7178932 C27.2326311,32.8894175 27.2326311,34.7885825 26.0611068,35.9601068 C24.8895825,37.1316311 22.9904175,37.1316311 21.8188932,35.9601068 L14.0408932,28.1821068 C12.8693689,27.0105825 12.8693689,25.1114175 14.0408932,23.9398932 C15.2124175,22.7683689 17.1115825,22.7683689 18.2831068,23.9398932 L21.464,27.12 L27.12,21.464 L23.9398932,18.2831068 C22.7683689,17.1115825 22.7683689,15.2124175 23.9398932,14.0408932 C25.1114175,12.8693689 27.0105825,12.8693689 28.1821068,14.0408932 Z M15.4551068,25.3541068 C15.0646311,25.7445825 15.0646311,26.3774175 15.4551068,26.7678932 L23.2331068,34.5458932 C23.6235825,34.9363689 24.2564175,34.9363689 24.6468932,34.5458932 C25.0373689,34.1554175 25.0373689,33.5225825 24.6468932,33.1321068 L20.8480168,29.3345543 C20.8142808,29.3085219 20.7818258,29.2800394 20.7508932,29.2491068 C20.7199606,29.2181742 20.6914781,29.1857192 20.6654457,29.1519832 L16.8688932,25.3541068 C16.4784175,24.9636311 15.8455825,24.9636311 15.4551068,25.3541068 Z M25.3541068,15.4551068 C24.9636311,15.8455825 24.9636311,16.4784175 25.3541068,16.8688932 L29.2354872,20.7493532 C29.2380372,20.7518502 29.2405771,20.7543635 29.2431068,20.7568932 L29.25,20.764 L33.1321068,24.6468932 C33.5225825,25.0373689 34.1554175,25.0373689 34.5458932,24.6468932 C34.9362934,24.256493 34.9362934,23.6230074 34.5458932,23.2331068 L26.7678932,15.4551068 C26.3774175,15.0646311 25.7445825,15.0646311 25.3541068,15.4551068 Z M36.7071068,13.2928932 C37.0976311,13.6834175 37.0976311,14.3165825 36.7071068,14.7071068 L34.9,16.515 L36.6921068,18.3078932 C37.0826311,18.6984175 37.0826311,19.3315825 36.6921068,19.7221068 C36.3015825,20.1126311 35.6684175,20.1126311 35.2778932,19.7221068 L30.2778932,14.7221068 C29.8873689,14.3315825 29.8873689,13.6984175 30.2778932,13.3078932 C30.6684175,12.9173689 31.3015825,12.9173689 31.6921068,13.3078932 L33.485,15.1 L35.2928932,13.2928932 C35.6834175,12.9023689 36.3165825,12.9023689 36.7071068,13.2928932 Z" id="path-1"></path>
    </defs>
    <g id="Icon/Amenities/Fitness" stroke="none" stroke-width="1" fill="none" fill-rule="evenodd">
        <mask id="mask-2" fill="white">
            <use xlink:href="#path-1"></use>
        </mask>
        <use id="Mask" fill="#000000" fill-rule="nonzero" xlink:href="#path-1"></use>
    </g>
</svg>