<?xml version="1.0" encoding="UTF-8"?>
<svg width="50px" height="50px" viewBox="0 0 50 50" version="1.1" xmlns="http://www.w3.org/2000/svg" xmlns:xlink="http://www.w3.org/1999/xlink">
    <!-- Generator: Sketch 57.1 (83088) - https://sketch.com -->
    <title>Icon/Amenities/Football Court</title>
    <desc>Created with Sketch.</desc>
    <defs>
        <path d="M25,13 C31.627417,13 37,18.372583 37,25 C37,31.627417 31.627417,37 25,37 C18.372583,37 13,31.627417 13,25 C13,18.372583 18.372583,13 25,13 Z M18.8522073,28.1033219 L15.8744088,29.0954933 C17.308859,32.286807 20.3681732,34.5896314 23.9989003,34.9505155 L24,31.5351838 L18.8522073,28.1033219 Z M31.1477927,28.1033219 L26,31.5351838 L26.0010997,34.9505155 C29.6318268,34.5896314 32.691141,32.286807 34.1255912,29.0954933 L31.1477927,28.1033219 Z M28.245,21 L21.754,21 L20.162,26.572 L24.999,29.797 L29.837,26.572 L28.245,21 Z M15,25 C15,25.7552917 15.0837347,26.4910262 15.2424272,27.1984266 L18.183,26.218 L19.902,20.202 L18.0829404,17.7781875 C16.1830051,19.5984361 15,22.1610652 15,25 Z M31.9170596,17.7781875 L30.097,20.202 L31.816,26.218 L34.7575728,27.1984266 C34.9162653,26.4910262 35,25.7552917 35,25 C35,22.1610652 33.8169949,19.5984361 31.9170596,17.7781875 Z M25,15 C23.0359198,15 21.2040901,15.5662318 19.6588468,16.5443593 L21.5000272,19 L28.4999728,19 L30.3411532,16.5443593 C28.7959099,15.5662318 26.9640802,15 25,15 Z" id="path-1"></path>
    </defs>
    <g id="Icon/Amenities/Football-Court" stroke="none" stroke-width="1" fill="none" fill-rule="evenodd">
        <mask id="mask-2" fill="white">
            <use xlink:href="#path-1"></use>
        </mask>
        <use id="Mask" fill="#000000" fill-rule="nonzero" xlink:href="#path-1"></use>
    </g>
</svg>