<?xml version="1.0" encoding="UTF-8"?>
<svg width="50px" height="50px" viewBox="0 0 50 50" version="1.1" xmlns="http://www.w3.org/2000/svg" xmlns:xlink="http://www.w3.org/1999/xlink">
    <!-- Generator: Sketch 57.1 (83088) - https://sketch.com -->
    <title>Icon/Amenities/Gala Room</title>
    <desc>Created with Sketch.</desc>
    <defs>
        <path d="M20,37 C19.4477153,37 19,36.5522847 19,36 C19,35.4477153 19.4477153,35 20,35 L21.9999657,35 L21.9999657,29.357 L13.2260427,18.6332378 C13.1759079,18.5719976 13.1332299,18.5053126 13.0987879,18.4339087 C13.0908731,18.4174869 13.0836003,18.4012934 13.0767856,18.3849689 C13.068177,18.3643582 13.0601479,18.3431388 13.0528336,18.3215894 C13.0485718,18.3090466 13.0444482,18.2960345 13.0406,18.282966 C13.0333131,18.2582231 13.0269722,18.2331401 13.0215984,18.2077003 L13.0136065,18.1654344 C13.0100109,18.1438316 13.0070356,18.121409 13.0048157,18.0987648 C13.0022151,18.0726166 13.000684,18.0465581 13.0001673,18.0205024 L12.9999657,17.988 L13.0009657,17.953 L13.0009657,17.978 L13.0029657,17.923 L13.0034128,17.9174425 L13.0097083,17.8601014 L13.0176965,17.8125757 C13.0221799,17.7881469 13.0275828,17.7645184 13.0338057,17.7412249 C13.0370857,17.7296033 13.0404464,17.71787 13.0440232,17.7061938 C13.0517093,17.6806171 13.0605284,17.6555557 13.0702942,17.6309732 C13.0751204,17.6190075 13.0801712,17.60694 13.0854651,17.5949612 C13.095643,17.5719424 13.1065891,17.5495925 13.1183246,17.5277295 C13.1251377,17.5148598 13.1322796,17.5021892 13.1397138,17.489655 C13.152016,17.4691717 13.1651584,17.448779 13.1790035,17.4289125 C13.1877276,17.4160879 13.1969404,17.4034966 13.2064776,17.3910901 C13.2221522,17.3709873 13.2383185,17.3515284 13.2551874,17.3327123 C13.2631652,17.3236264 13.2715977,17.3145751 13.2802252,17.3056539 C13.3389404,17.2450102 13.4046855,17.1920266 13.4764328,17.1478505 L13.4932608,17.1377328 L13.5019657,17.132 L13.5205666,17.1222072 L13.5660913,17.0987879 L13.5660913,17.0987879 C13.5831619,17.0905605 13.6000164,17.083013 13.6170119,17.0759612 C13.6370087,17.0676606 13.6575551,17.0599124 13.6784106,17.0528336 C13.6909534,17.0485718 13.7039655,17.0444482 13.717034,17.0406 C13.7417769,17.0333131 13.7668599,17.0269722 13.7922997,17.0215984 L13.8345656,17.0136065 C13.8557965,17.0100731 13.8778391,17.0071356 13.9000963,17.004928 C13.9270485,17.0022214 13.953776,17.0006512 13.9804998,17.000148 L31.9999657,17 L32.0205024,17.0001673 C32.0465581,17.000684 32.0726166,17.0022151 32.0986145,17.004767 L32.0879657,17.004 L32.1660072,17.013716 C32.1794556,17.0159447 32.1934429,17.0185849 32.2073862,17.0215281 C32.2331401,17.0269722 32.2582231,17.0333131 32.2829092,17.0405809 L32.3219936,17.0529718 C32.3424449,17.0599124 32.3629913,17.0676606 32.3832029,17.0760528 C32.3999836,17.083013 32.4168381,17.0905605 32.433531,17.0986058 L32.4622912,17.1130424 L32.4902427,17.1282109 L32.5723923,17.1799144 L32.6419657,17.234 L32.6889657,17.277 L32.6479657,17.239 L32.6916333,17.2776829 L32.7059657,17.292 L32.7139657,17.3 L32.7129657,17.3 L32.7192955,17.3052944 L32.7450718,17.332802 C32.7616815,17.3515284 32.7778478,17.3709873 32.7932702,17.3910478 C32.8030596,17.4034966 32.8122724,17.4160879 32.8211596,17.4288515 C32.8348416,17.448779 32.847984,17.4691717 32.8603878,17.4900545 C32.8677204,17.5021892 32.8748623,17.5148598 32.881711,17.5276563 C32.8934109,17.5495925 32.904357,17.5719424 32.9144755,17.5947412 C32.9198288,17.60694 32.9248796,17.6190075 32.9296866,17.6311559 C32.9394716,17.6555557 32.9482907,17.6806171 32.956118,17.7061125 C32.9595536,17.71787 32.9629143,17.7296033 32.9660583,17.7413873 C32.9724172,17.7645184 32.9778201,17.7881469 32.9823703,17.8120775 L32.9902613,17.8607428 C32.9932373,17.8811431 32.9955281,17.9023946 32.9971428,17.9238348 C32.9985065,17.942395 32.9993885,17.960401 32.9997859,17.9784247 C32.9999192,17.9851834 33,17.9925823 33,18 L32.9989657,18.02 L32.9992744,18.0395427 L32.9959657,18.083 L32.986284,18.1660072 C32.9840553,18.1794556 32.9814151,18.1934429 32.9784719,18.2073862 C32.9730278,18.2331401 32.9666869,18.2582231 32.9594191,18.2829092 C32.9555518,18.2960345 32.9514282,18.3090466 32.9470282,18.3219936 L32.9231074,18.3852192 L32.9013942,18.433531 L32.8435489,18.5372741 L32.7744108,18.6327311 C32.7744846,18.632593 32.774221,18.6329154 32.7739573,18.6332378 L23.9999657,29.356 L23.9999657,35 L26,35 C26.5522847,35 27,35.4477153 27,36 C27,36.5522847 26.5522847,37 26,37 L23,37 L23,37 L20,37 Z M26.6159657,23 L19.3829657,23 L23,27.4208144 L26.6159657,23 Z M32,13 C34.7612847,13 37,15.2387153 37,18 C37,20.2947973 35.4413407,22.2782141 33.2492667,22.8424349 C32.7144149,22.9801011 32.1692313,22.6581185 32.0315651,22.1232667 C31.8938989,21.5884149 32.2158815,21.0432313 32.7507333,20.9055651 C34.0642744,20.5674711 35,19.3767465 35,18 C35,16.3432847 33.6567153,15 32,15 C31.4648375,15 30.9524263,15.1394186 30.5005719,15.400695 C30.0224618,15.6771532 29.4107633,15.513682 29.134305,15.0355719 C28.8578468,14.5574618 29.021318,13.9457633 29.4994281,13.669305 C30.2535167,13.2332674 31.1108543,13 32,13 Z M29.8889657,19 L16.1099657,19 L17.7469657,21 L28.2529657,21 L29.8889657,19 Z M32.6889657,17.277 L32.7129657,17.3 L32.7059657,17.292 L32.6889657,17.277 Z M13.5101117,17.1280247 L13.5019657,17.132 L13.4939657,17.137 L13.5101117,17.1280247 Z M32,17 L32.0879657,17.004 L32.0839642,17.0034751 L32,17 Z" id="path-1"></path>
    </defs>
    <g id="Icon/Amenities/Gala-Room" stroke="none" stroke-width="1" fill="none" fill-rule="evenodd">
        <mask id="mask-2" fill="white">
            <use xlink:href="#path-1"></use>
        </mask>
        <use id="Mask" fill="#000000" fill-rule="nonzero" xlink:href="#path-1"></use>
    </g>
</svg>