<?xml version="1.0" encoding="UTF-8"?>
<svg width="22px" height="24px" viewBox="0 0 22 24" version="1.1" xmlns="http://www.w3.org/2000/svg" xmlns:xlink="http://www.w3.org/1999/xlink">
    <!-- Generator: Sketch 57.1 (83088) - https://sketch.com -->
    <title>Icon / Password</title>
    <desc>Created with Sketch.</desc>
    <g id="Symbols" stroke="none" stroke-width="1" fill="none" fill-rule="evenodd">
        <g id="Propertie" transform="translate(-318.000000, -355.000000)" fill="#A53D4F">
            <g id="Icon-/-Pass" transform="translate(299.000000, 337.000000)">
                <g id="passport" transform="translate(19.000000, 18.000000)">
                    <path d="M11,19 C13.0160119,19 14.143,15.8446436 14.143,12 C14.143,8.15535644 13.0160119,5 11,5 C8.98398814,5 7.857,8.15535644 7.857,12 C7.857,15.8446436 8.98398814,19 11,19 Z M11.0192315,16.9931306 C11.0185382,16.9818015 10.9887625,16.9530421 10.9298805,16.8833128 C10.761709,16.6841606 10.5845505,16.3490624 10.426405,15.9062844 C10.0683934,14.9039187 9.857,13.5045999 9.857,12 C9.857,10.4954001 10.0683934,9.09608129 10.426405,8.0937156 C10.5845505,7.65093755 10.761709,7.31583943 10.9298805,7.11668717 C10.9887625,7.04695785 11.0185382,7.01819849 11.0192315,7.00686941 L10.9807709,7.00686941 C10.9815275,7.01826199 11.0113025,7.04703476 11.0701195,7.11668717 C11.238291,7.31583943 11.4154495,7.65093755 11.573595,8.0937156 C11.9316066,9.09608129 12.143,10.4954001 12.143,12 C12.143,13.5045999 11.9316066,14.9039187 11.573595,15.9062844 C11.4154495,16.3490624 11.238291,16.6841606 11.0701195,16.8833128 C11.0113025,16.9529652 10.9815275,16.981738 10.9807709,16.9931306 L11.0192315,16.9931306 Z" id="Oval" fill-rule="nonzero"></path>
                    <path d="M5,13 L17,13 C17.5522847,13 18,12.5522847 18,12 C18,11.4477153 17.5522847,11 17,11 L5,11 C4.44771525,11 4,11.4477153 4,12 C4,12.5522847 4.44771525,13 5,13 Z" id="Path" fill-rule="nonzero"></path>
                    <path d="M11,19 C14.8659932,19 18,15.8659932 18,12 C18,8.13400675 14.8659932,5 11,5 C7.13400675,5 4,8.13400675 4,12 C4,15.8659932 7.13400675,19 11,19 Z M11,17 C8.23857625,17 6,14.7614237 6,12 C6,9.23857625 8.23857625,7 11,7 C13.7614237,7 16,9.23857625 16,12 C16,14.7614237 13.7614237,17 11,17 Z" id="Oval" fill-rule="nonzero"></path>
                    <path d="M0,1 L0,23 C0,23.5522847 0.44771525,24 1,24 L19,24 C20.6572847,24 22,22.6572847 22,21 L22,3 C22,1.34271525 20.6572847,0 19,0 L1,0 C0.44771525,0 0,0.44771525 0,1 Z M2,2 L19,2 C19.5527153,2 20,2.44728475 20,3 L20,21 C20,21.5527153 19.5527153,22 19,22 L2,22 L2,2 Z" id="Path" fill-rule="nonzero"></path>
                </g>
            </g>
        </g>
    </g>
</svg>