<?xml version="1.0" encoding="UTF-8"?>
<svg width="50px" height="50px" viewBox="0 0 50 50" version="1.1" xmlns="http://www.w3.org/2000/svg" xmlns:xlink="http://www.w3.org/1999/xlink">
    <!-- Generator: Sketch 57.1 (83088) - https://sketch.com -->
    <title>Icon/Amenities/Green Space</title>
    <desc>Created with Sketch.</desc>
    <defs>
        <path d="M34.4984074,15.5564156 L34.422531,16.8991839 C34.3920715,17.4605076 34.3171539,18.3887253 34.1904513,19.5011646 C33.987014,21.2873281 33.702719,23.0638927 33.3228306,24.7249469 C33.2187868,25.1798762 32.8139129,25.5023554 32.3472378,25.5019997 L31.3271028,25.5012222 L32.2592596,27.4065347 C32.3810675,27.655508 32.3940762,27.9438694 32.2951811,28.2027992 C31.8316604,29.4164014 31.299297,30.4242261 30.6811884,31.2027844 C30.4145296,31.5386631 29.9633912,31.6671148 29.5598013,31.5220747 L28.2380402,31.0470668 L28.5145023,32.3587643 C28.6042188,32.7844314 28.408454,33.2192672 28.0302943,33.4342946 C26.1886813,34.4814641 24.1470562,34.7660236 22.193478,34.2475384 C20.9967991,33.9295665 19.8858835,33.2612401 18.9127655,32.3254836 L19.0818173,32.0729494 C18.5340165,32.883237 18.1006049,33.5954082 17.7699088,34.2021481 C17.5774322,34.5552917 17.4644032,34.7882923 17.4191782,34.8938419 C17.2016653,35.40149 16.6138062,35.6366911 16.1061581,35.4191782 C15.59851,35.2016653 15.3633089,34.6138062 15.5808218,34.1061581 C15.8359095,33.510815 16.4197242,32.4396695 17.4249327,30.9528006 L17.5196967,30.8129546 L17.5100925,30.8015099 C16.5860011,29.7053091 15.9446242,28.4619576 15.6751479,27.1417246 C15.0622246,24.1347133 16.0694904,21.03375 18.4727351,18.6630842 C18.6116306,18.5260717 18.7875717,18.4326818 18.9788839,18.3944193 C19.7253236,18.4927353 19.7253236,18.4927353 19.6452058,18.4922469 C19.6590453,18.4995496 19.6590453,18.4995496 19.6722752,18.5066494 C19.7020672,18.5227268 19.7020672,18.5227268 19.7426118,18.5447888 C19.8406181,18.5982825 19.8406181,18.5982825 19.9772433,18.6731638 C20.1008019,18.7409231 20.2555091,18.8259079 20.4359576,18.9251327 L20.6048705,17.7318447 C20.6529493,17.3921908 20.8717712,17.1008863 21.1845895,16.9600991 C23.0952607,16.1001815 25.5032667,15.4790898 28.1815323,15.0481961 C29.8187914,14.7847851 31.2040595,14.6429511 32.1669639,14.5809261 L33.4379639,14.5019261 C34.0359692,14.4647566 34.5322093,14.9582105 34.4984074,15.5564156 Z M32.4380606,16.5679332 L32.2932839,16.5769316 C31.3911066,16.6350474 30.0661716,16.770704 28.4992177,17.0228039 C26.2170288,17.3899747 24.1537251,17.9012781 22.5061715,18.5699559 L22.2131295,20.6401553 C22.1150139,21.3332948 21.3534043,21.7136984 20.740308,21.3757902 C20.6766042,21.3406798 20.6766042,21.3406798 20.4214719,21.2001221 C20.1024745,21.0244238 20.1024745,21.0244238 19.7194804,20.8136294 L19.716922,20.8122216 C19.5935604,20.7443444 19.4790232,20.6813496 19.3745859,20.6239415 C17.8122001,22.4354958 17.2034301,24.6257127 17.6347981,26.7420107 C17.8039234,27.5705986 18.1821642,28.3782298 18.7341538,29.1260595 C20.2115745,27.168937 22.0509449,25.0499814 24.2916738,22.7951196 C24.6809685,22.4033696 25.3141303,22.4013791 25.7058804,22.7906738 C26.0976304,23.1799685 26.0996209,23.8131303 25.7103262,24.2048804 C23.4025594,26.5272028 21.5418378,28.6909052 20.0794494,30.6654029 L19.9266844,30.5001469 C20.7605895,31.4194854 21.7146124,32.0508638 22.7066616,32.3144987 C23.9272631,32.6384164 25.1933867,32.5371943 26.3984955,32.0168367 L25.9114977,29.7062357 C25.750056,28.9402623 26.4915237,28.2941827 27.2281987,28.5589253 L29.5180317,29.381834 C29.7812978,28.9576944 30.031983,28.4576324 30.268218,27.8878647 L28.8257404,24.9394653 C28.5005617,24.2748056 28.9848207,23.4994363 29.7247622,23.5000003 L31.5419574,23.5013853 C31.8211114,22.1452707 32.0393583,20.71422 32.2032987,19.2748354 C32.3252635,18.2039945 32.3970445,17.3146387 32.4255926,16.7885844 L32.4380606,16.5679332 Z" id="path-1"></path>
    </defs>
    <g id="Icon/Amenities/Green-Space" stroke="none" stroke-width="1" fill="none" fill-rule="evenodd">
        <mask id="mask-2" fill="white">
            <use xlink:href="#path-1"></use>
        </mask>
        <use id="Mask" fill="#000000" fill-rule="nonzero" xlink:href="#path-1"></use>
    </g>
</svg>