<?xml version="1.0" encoding="UTF-8"?>
<svg width="50px" height="50px" viewBox="0 0 50 50" version="1.1" xmlns="http://www.w3.org/2000/svg" xmlns:xlink="http://www.w3.org/1999/xlink">
    <!-- Generator: Sketch 57.1 (83088) - https://sketch.com -->
    <title>Icon/Amenities/Gusto Room</title>
    <desc>Created with Sketch.</desc>
    <defs>
        <path d="M36,13 C36.5522847,13 37,13.4477153 37,14 C37,14.5522847 36.5522847,15 36,15 L36,36 C36,36.5522847 35.5522847,37 35,37 C34.4477153,37 34,36.5522847 34,36 L33.9995158,31.0674345 C32.352572,31.3029966 31.2949289,32.1462102 30.6444272,33.4472136 C30.3647991,34.0064697 30.1819859,34.6158472 30.0801439,35.226899 C30.0195805,35.5902798 30,35.8644061 30,36 C30,36.5522847 29.5522847,37 29,37 C28.4477153,37 28,36.5522847 28,36 C28,35.1086127 28.2111702,33.8415917 28.8555728,32.5527864 C29.5818845,31.100163 30.7101033,30.0182816 32.2598766,29.4499501 C31.2406755,28.7107538 30.2310865,27.8428407 29.2771286,26.8448576 C27.3670534,24.8466325 25.8968195,22.5680315 24.9991201,20.0059392 C24.1030888,22.5681736 22.632887,24.8466948 20.7228714,26.8448576 C19.7689135,27.8428407 18.7593245,28.7107538 17.7394617,29.4530389 C19.2898959,30.0182809 20.4181152,31.1001625 21.1444272,32.5527864 C21.7888298,33.8415917 22,35.1086127 22,36 C22,36.5522847 21.5522847,37 21,37 C20.4477153,37 20,36.5522847 20,36 C20,35.8644061 19.9804195,35.5902798 19.9198561,35.226899 C19.8180141,34.6158472 19.6352009,34.0064697 19.3555728,33.4472136 C18.7052016,32.1464713 17.6478524,31.303335 16.0014755,31.0675764 L16,36 C16,36.5522847 15.5522847,37 15,37 C14.4477153,37 14,36.5522847 14,36 L13.9999295,30.0182206 L13.9999126,29.9842649 L13.9999126,29.9842649 L14,15 C13.4477153,15 13,14.5522847 13,14 C13,13.4477153 13.4477153,13 14,13 L35,13 L36,13 Z M34,15 L26.0287328,15.000978 C26.2675774,19.1258314 27.9833973,22.5969915 30.7228714,25.4628924 C31.7644985,26.5525906 32.8821096,27.4741839 33.9980628,28.2295912 L33.999,28.23 L34,15 Z M23.9712672,15.000978 L16,15 L16.0019372,28.2295912 C17.1178904,27.4741839 18.2355015,26.5525906 19.2771286,25.4628924 C22.0166027,22.5969915 23.7324226,19.1258314 23.9712672,15.000978 Z" id="path-1"></path>
    </defs>
    <g id="Icon/Amenities/Gusto-Room" stroke="none" stroke-width="1" fill="none" fill-rule="evenodd">
        <mask id="mask-2" fill="white">
            <use xlink:href="#path-1"></use>
        </mask>
        <use id="Mask" fill="#000000" fill-rule="nonzero" xlink:href="#path-1"></use>
    </g>
</svg>