<?xml version="1.0" encoding="UTF-8"?>
<svg width="14px" height="14px" viewBox="0 0 14 14" version="1.1" xmlns="http://www.w3.org/2000/svg" xmlns:xlink="http://www.w3.org/1999/xlink">
    <!-- Generator: Sketch 57.1 (83088) - https://sketch.com -->
    <title>home-water@2x</title>
    <desc>Created with Sketch.</desc>
    <defs>
        <path d="M23,17 C23.5128358,17 23.9355072,17.3860402 23.9932723,17.8833789 L24,18 L24,23 C24,23.5128358 23.6139598,23.9355072 23.1166211,23.9932723 L23,24 L18,24 C17.4477153,24 17,23.5522847 17,23 C17,22.4871642 17.3860402,22.0644928 17.8833789,22.0067277 L18,22 L22,22 L22,18 C22,17.4477153 22.4477153,17 23,17 Z M1,17 C1.51283584,17 1.93550716,17.3860402 1.99327227,17.8833789 L2,18 L2,22 L6,22 C6.55228475,22 7,22.4477153 7,23 C7,23.5128358 6.61395981,23.9355072 6.11662113,23.9932723 L6,24 L1,24 C0.487164161,24 0.0644928393,23.6139598 0.00672773133,23.1166211 L0,23 L0,18 C0,17.4477153 0.44771525,17 1,17 Z M11.3018999,5.28399986 C11.6902757,4.90533338 12.3097243,4.90533338 12.6981001,5.28399986 L12.6981001,5.28399986 L18.6981001,11.1339999 C18.8911376,11.3222114 19,11.5803946 19,11.85 L19,11.85 L19,16.4 C19,16.9522847 18.5522847,17.4 18,17.4 C17.4477153,17.4 17,16.9522847 17,16.4 L17,16.4 L17,12.2716478 L12,7.39664777 L7,12.2716478 L7,16.4 C7,16.9522847 6.55228475,17.4 6,17.4 C5.44771525,17.4 5,16.9522847 5,16.4 L5,16.4 L5,11.85 C5,11.5803946 5.10886237,11.3222114 5.30189986,11.1339999 L5.30189986,11.1339999 Z M6,0 C6.55228475,0 7,0.44771525 7,1 C7,1.51283584 6.61395981,1.93550716 6.11662113,1.99327227 L6,2 L2,2 L2,6 C2,6.55228475 1.55228475,7 1,7 C0.487164161,7 0.0644928393,6.61395981 0.00672773133,6.11662113 L0,6 L0,1 C0,0.487164161 0.38604019,0.0644928393 0.883378875,0.00672773133 L1,0 L6,0 Z M23,0 C23.5128358,0 23.9355072,0.38604019 23.9932723,0.883378875 L24,1 L24,6 C24,6.55228475 23.5522847,7 23,7 C22.4871642,7 22.0644928,6.61395981 22.0067277,6.11662113 L22,6 L22,2 L18,2 C17.4477153,2 17,1.55228475 17,1 C17,0.487164161 17.3860402,0.0644928393 17.8833789,0.00672773133 L18,0 L23,0 Z" id="path-1"></path>
    </defs>
    <g id="Symbols" stroke="none" stroke-width="1" fill="none" fill-rule="evenodd">
        <g id="Icon-/-Area" transform="translate(-23.000000, -23.000000)">
            <rect fill="#CFCFCF" x="0" y="0" width="60" height="60"></rect>
            <g id="Home" transform="translate(18.000000, 18.000000)">
                <g id="Color-/-Smoke">
                    <mask id="mask-2" fill="white">
                        <use xlink:href="#path-1"></use>
                    </mask>
                    <use id="Mask" fill="#000000" fill-rule="nonzero" xlink:href="#path-1"></use>
                    <g mask="url(#mask-2)" fill="#FFFFFF" id="White">
                        <g transform="translate(-18.000000, -18.000000)">
                            <rect x="0" y="0" width="60" height="60"></rect>
                        </g>
                    </g>
                </g>
            </g>
            <g id="home-water" transform="translate(23.000000, 23.000000)"></g>
        </g>
    </g>
</svg>