<?xml version="1.0" encoding="UTF-8"?>
<svg width="61px" height="61px" viewBox="0 0 61 61" version="1.1" xmlns="http://www.w3.org/2000/svg" xmlns:xlink="http://www.w3.org/1999/xlink">
    <!-- Generator: Sketch 57.1 (83088) - https://sketch.com -->
    <title>hospital-square</title>
    <desc>Created with Sketch.</desc>
    <g id="Citizenship" stroke="none" stroke-width="1" fill="none" fill-rule="evenodd">
        <g transform="translate(-565.000000, -3774.000000)" fill="#FFFFFF" fill-rule="nonzero" id="Group-4">
            <g transform="translate(535.000000, 3728.000000)">
                <g id="hospital-square" transform="translate(30.000000, 46.000000)">
                    <path d="M48,60.5 L13,60.5 C6.09678813,60.5 0.5,54.9032119 0.5,48 L0.5,13 C0.5,6.09678813 6.09678813,0.5 13,0.5 L48,0.5 C54.9032119,0.5 60.5,6.09678813 60.5,13 L60.5,48 C60.5,54.9032119 54.9032119,60.5 48,60.5 Z M48,55.5 C52.1417881,55.5 55.5,52.1417881 55.5,48 L55.5,13 C55.5,8.85821187 52.1417881,5.5 48,5.5 L13,5.5 C8.85821187,5.5 5.5,8.85821187 5.5,13 L5.5,48 C5.5,52.1417881 8.85821187,55.5 13,55.5 L48,55.5 Z" id="Path"></path>
                    <path d="M15.5,18 L15.5,43 C15.5,44.3807119 16.6192881,45.5 18,45.5 C19.3807119,45.5 20.5,44.3807119 20.5,43 L20.5,18 C20.5,16.6192881 19.3807119,15.5 18,15.5 C16.6192881,15.5 15.5,16.6192881 15.5,18 Z" id="Path"></path>
                    <path d="M40.5,18 L40.5,43 C40.5,44.3807119 41.6192881,45.5 43,45.5 C44.3807119,45.5 45.5,44.3807119 45.5,43 L45.5,18 C45.5,16.6192881 44.3807119,15.5 43,15.5 C41.6192881,15.5 40.5,16.6192881 40.5,18 Z" id="Path"></path>
                    <path d="M18,33 L43,33 C44.3807119,33 45.5,31.8807119 45.5,30.5 C45.5,29.1192881 44.3807119,28 43,28 L18,28 C16.6192881,28 15.5,29.1192881 15.5,30.5 C15.5,31.8807119 16.6192881,33 18,33 Z" id="Path"></path>
                </g>
            </g>
        </g>
    </g>
</svg>