<?xml version="1.0" encoding="UTF-8"?>
<svg width="61px" height="51px" viewBox="0 0 61 51" version="1.1" xmlns="http://www.w3.org/2000/svg" xmlns:xlink="http://www.w3.org/1999/xlink">
    <!-- Generator: Sketch 57.1 (83088) - https://sketch.com -->
    <title>travel-card</title>
    <desc>Created with Sketch.</desc>
    <g id="Citizenship" stroke="none" stroke-width="1" fill="none" fill-rule="evenodd">
        <g transform="translate(-965.000000, -4066.000000)" fill="#FFFFFF" fill-rule="nonzero" id="Group-4">
            <g transform="translate(935.000000, 4015.000000)">
                <g id="travel-card" transform="translate(30.000000, 51.000000)">
                    <g id="contact-card">
                        <path d="M21.75,28 C26.5824916,28 30.5,24.0824916 30.5,19.25 C30.5,14.4175084 26.5824916,10.5 21.75,10.5 C16.9175084,10.5 13,14.4175084 13,19.25 C13,24.0824916 16.9175084,28 21.75,28 Z M21.75,23 C19.6789322,23 18,21.3210678 18,19.25 C18,17.1789322 19.6789322,15.5 21.75,15.5 C23.8210678,15.5 25.5,17.1789322 25.5,19.25 C25.5,21.3210678 23.8210678,23 21.75,23 Z" id="Oval"></path>
                        <path d="M15.5,48 L15.5,41.75 C15.5,38.2982119 18.2982119,35.5 21.75,35.5 C25.2017881,35.5 28,38.2982119 28,41.75 L28,48 C28,49.3807119 29.1192881,50.5 30.5,50.5 C31.8807119,50.5 33,49.3807119 33,48 L33,41.75 C33,35.5367881 27.9632119,30.5 21.75,30.5 C15.5367881,30.5 10.5,35.5367881 10.5,41.75 L10.5,48 C10.5,49.3807119 11.6192881,50.5 13,50.5 C14.3807119,50.5 15.5,49.3807119 15.5,48 Z" id="Path"></path>
                        <path d="M38,20.5 L48,20.5 C49.3807119,20.5 50.5,19.3807119 50.5,18 C50.5,16.6192881 49.3807119,15.5 48,15.5 L38,15.5 C36.6192881,15.5 35.5,16.6192881 35.5,18 C35.5,19.3807119 36.6192881,20.5 38,20.5 Z" id="Path"></path>
                        <path d="M38,30.5 L48,30.5 C49.3807119,30.5 50.5,29.3807119 50.5,28 C50.5,26.6192881 49.3807119,25.5 48,25.5 L38,25.5 C36.6192881,25.5 35.5,26.6192881 35.5,28 C35.5,29.3807119 36.6192881,30.5 38,30.5 Z" id="Path"></path>
                        <path d="M53,50.5 L8,50.5 C3.85678813,50.5 0.5,47.1432119 0.5,43 L0.5,8 C0.5,3.85678813 3.85678813,0.5 8,0.5 L53,0.5 C57.1432119,0.5 60.5,3.85678813 60.5,8 L60.5,43 C60.5,47.1432119 57.1432119,50.5 53,50.5 Z M53,45.5 C54.3817881,45.5 55.5,44.3817881 55.5,43 L55.5,8 C55.5,6.61821187 54.3817881,5.5 53,5.5 L8,5.5 C6.61821187,5.5 5.5,6.61821187 5.5,8 L5.5,43 C5.5,44.3817881 6.61821187,45.5 8,45.5 L53,45.5 Z" id="Path"></path>
                    </g>
                </g>
            </g>
        </g>
    </g>
</svg>