<?xml version="1.0" encoding="UTF-8"?>
<svg width="50px" height="50px" viewBox="0 0 50 50" version="1.1" xmlns="http://www.w3.org/2000/svg" xmlns:xlink="http://www.w3.org/1999/xlink">
    <!-- Generator: Sketch 57.1 (83088) - https://sketch.com -->
    <title>Icon/Amenities/Kids Club</title>
    <desc>Created with Sketch.</desc>
    <defs>
        <path d="M16.3404773,28.0004182 C17.4955998,28.0004182 18.6778296,28.515557 19.5815841,29.4193115 C20.5992533,30.4369807 21.0968196,31.7779044 20.9883644,33.0006992 L29.014832,33.0009914 C28.9064299,31.7785985 29.4036139,30.4380682 30.4208932,29.4207891 C31.3242332,28.5162284 32.5064908,28.0014182 33.6624773,28.0014182 C34.5773629,28.0014182 35.4257716,28.326499 36.0519258,28.9526533 C37.5150406,30.4171831 37.2357004,32.9271303 35.5830614,34.5810474 C34.6797214,35.4856081 33.4974638,36.0004182 32.3414773,36.0004182 C31.4261653,36.0004182 30.5780322,35.6761867 29.9520292,35.0501835 L29.905,35 L20.0989683,35.0010683 C20.0827976,35.0179523 20.0664032,35.034705 20.0497846,35.0513236 C19.4231993,35.6764945 18.5762427,36.0004182 17.6614773,36.0004182 C16.5063548,36.0004182 15.324125,35.4852795 14.4206439,34.5817983 C12.7665914,32.9290241 12.4874393,30.4162427 13.9513705,28.9523115 C14.5778534,28.3258286 15.4261516,28.0004182 16.3404773,28.0004182 Z M16.3404773,30.0004182 C15.9388841,30.0004182 15.6027477,30.1293614 15.3655841,30.366525 C14.7608463,30.9712628 14.9011994,32.234648 15.8345841,33.1673115 C16.3721105,33.7048379 17.0504596,34.0004182 17.6614773,34.0004182 C18.064556,34.0004182 18.4000356,33.872112 18.6363705,33.6363115 C19.2426712,33.0300108 19.1023164,31.7684709 18.1673705,30.833525 C17.6298441,30.2959986 16.951495,30.0004182 16.3404773,30.0004182 Z M33.6624773,30.0014182 C33.0506134,30.0014182 32.3728241,30.2965594 31.8355841,30.834525 C30.9009605,31.7691486 30.7608445,33.0299864 31.3665841,33.6363115 C31.602273,33.8720004 31.9381918,34.0004182 32.3414773,34.0004182 C32.9533412,34.0004182 33.6311305,33.7052771 34.1680972,33.1675848 C35.1013678,32.2335925 35.2418232,30.9715624 34.6373705,30.366525 C34.4010948,30.1302493 34.0648663,30.0014182 33.6624773,30.0014182 Z M25.0014773,12.0004182 C26.1312022,12.0004182 27.2221458,12.2700064 28.2004572,12.7743033 C29.5310937,11.6759167 31.5635275,11.860547 32.8819308,13.1776583 C34.2740826,14.5711764 34.400376,16.7637331 33.0825841,18.081525 C32.7718881,18.392221 32.4045353,18.6249735 32.0014773,18.7772533 L32.0014773,20.0004182 C32.0014773,20.1389547 31.9967238,20.2758738 31.987352,20.4110884 L32.6158098,20.1886709 C34.3297799,19.5881349 36.2091849,20.4852245 36.8135697,22.1978874 C37.4182579,23.9128465 36.5197608,25.7928951 34.820248,26.3919979 L33.348248,26.9379979 C32.8304371,27.1300663 32.2549661,26.8659999 32.0628977,26.3481889 C31.8708292,25.830378 32.1348957,25.2549071 32.6527066,25.0628386 L34.1399464,24.5113259 C34.8124886,24.27419 35.1649456,23.536696 34.9274724,22.863197 C34.6907447,22.192375 33.9519505,21.839729 33.2792275,22.0754332 L31.2691295,22.7857463 C30.1317375,24.7597723 27.7799835,26.0004182 25.0014773,26.0004182 C22.2229711,26.0004182 19.8712171,24.7597723 18.7338251,22.7857463 L16.7225425,22.0750144 C16.0508316,21.8370465 15.312978,22.1901983 15.0754822,22.863197 C14.838189,23.5356218 15.1912953,24.2742838 15.8784558,24.5169157 L17.3494558,25.0629157 C17.8672241,25.2550989 18.131163,25.8306284 17.9389798,26.3483967 C17.7467966,26.8661651 17.1712671,27.130104 16.6534988,26.9379208 L15.1976985,26.3974232 C13.4839309,25.7926485 12.5846697,23.9114865 13.1894724,22.1976395 C13.7946075,20.4828503 15.675907,19.582422 17.3892275,20.1894032 L18.0156025,20.4110884 C18.0062307,20.2758738 18.0014773,20.1389547 18.0014773,20.0004182 L18.0014773,18.7704288 C17.6012424,18.6165531 17.2365492,18.3835329 16.9283705,18.074525 C15.5995831,16.7457377 15.726782,14.5348999 17.1313705,13.1303115 C18.4661016,11.7955804 20.5290212,11.614255 21.8700026,12.7396748 C22.8318122,12.2575685 23.8984302,12.0004182 25.0014773,12.0004182 Z M25.0014773,14.0004182 C23.9987202,14.0004182 23.0414413,14.2965764 22.2233834,14.8436634 C21.7535978,15.1578386 21.1169952,15.020572 20.8184207,14.5407201 C20.773474,14.4684845 20.7206897,14.4018442 20.6599857,14.34114 C20.1518863,13.8324871 19.203019,13.8870901 18.5455841,14.544525 C17.8880708,15.2020383 17.8334621,16.1511895 18.3435326,16.6612612 C18.5299325,16.8481623 18.7843571,16.9599716 19.0874325,16.9861192 C19.6044793,17.0307272 20.0014773,17.4634508 20.0014773,17.9824182 L20.0014773,20.0004182 C20.0014773,22.3122494 22.0964948,24.0004182 25.0014773,24.0004182 C27.9064598,24.0004182 30.0014773,22.3122494 30.0014773,20.0004182 L30.0014773,17.9834182 C30.0014773,17.4612831 30.4031854,17.0270334 30.9237405,16.9864443 C31.2286873,16.9626668 31.4827972,16.8528847 31.6683705,16.6673115 C32.1665528,16.1691292 32.112901,15.2376891 31.4677174,14.5918717 C30.8212857,13.9460738 29.8901329,13.8924279 29.3925841,14.390525 C29.3335979,14.4495112 29.2820936,14.5141879 29.2361992,14.5866237 C28.9328483,15.0654064 28.2926151,15.1966173 27.8253841,14.8757595 C26.9992427,14.3084301 26.0245137,14.0004182 25.0014773,14.0004182 Z M26.0004773,20.0004182 C26.552762,20.0004182 27.0004773,20.4481335 27.0004773,21.0004182 C27.0004773,21.552703 26.552762,22.0004182 26.0004773,22.0004182 L24.0004773,22.0004182 C23.4481925,22.0004182 23.0004773,21.552703 23.0004773,21.0004182 C23.0004773,20.4481335 23.4481925,20.0004182 24.0004773,20.0004182 L26.0004773,20.0004182 Z M23.0004773,16.9904182 C23.552762,16.9904182 24.0004773,17.4381335 24.0004773,17.9904182 L24.0004773,18.0004182 C24.0004773,18.552703 23.552762,19.0004182 23.0004773,19.0004182 C22.4481925,19.0004182 22.0004773,18.552703 22.0004773,18.0004182 L22.0004773,17.9904182 C22.0004773,17.4381335 22.4481925,16.9904182 23.0004773,16.9904182 Z M27.0004773,16.9904182 C27.552762,16.9904182 28.0004773,17.4381335 28.0004773,17.9904182 L28.0004773,18.0004182 C28.0004773,18.552703 27.552762,19.0004182 27.0004773,19.0004182 C26.4481925,19.0004182 26.0004773,18.552703 26.0004773,18.0004182 L26.0004773,17.9904182 C26.0004773,17.4381335 26.4481925,16.9904182 27.0004773,16.9904182 Z" id="path-1"></path>
    </defs>
    <g id="Icon/Amenities/Kids-Club" stroke="none" stroke-width="1" fill="none" fill-rule="evenodd">
        <mask id="mask-2" fill="white">
            <use xlink:href="#path-1"></use>
        </mask>
        <use id="Mask" fill="#000000" fill-rule="nonzero" xlink:href="#path-1"></use>
    </g>
</svg>