<?xml version="1.0" encoding="UTF-8"?>
<svg width="50px" height="50px" viewBox="0 0 50 50" version="1.1" xmlns="http://www.w3.org/2000/svg" xmlns:xlink="http://www.w3.org/1999/xlink">
    <!-- Generator: Sketch 57.1 (83088) - https://sketch.com -->
    <title>Icon/Amenities/Lounge</title>
    <desc>Created with Sketch.</desc>
    <defs>
        <path d="M25,14 C29.9702847,14 34,18.0297153 34,23 L33.999358,24.0352215 C34.140584,24.0549135 34.2827885,24.0831666 34.425469,24.120395 C35.5919292,24.4254909 36.5371731,25.3541999 36.8618641,26.5140136 C37.2182735,27.7850917 36.8628233,29.0597506 36,29.9381596 L36,34 C36,35.1042847 35.1042847,36 34,36 L32,36 C30.8960499,36 30.0005429,35.1048275 30.0000002,34.0010038 L20,34 C20,35.1042847 19.1042847,36 18,36 L16,36 C14.8957153,36 14,35.1042847 14,34 L14,29.9382089 C13.1360649,29.0591214 12.7806223,27.7849158 13.1380238,26.5144137 C13.4628269,25.3541999 14.4080708,24.4254909 15.5739553,24.1205454 C15.7164432,24.0833672 15.8584543,24.0551363 15.9994887,24.0354401 L16,23 C16,18.0297153 20.0297153,14 25,14 Z M16.0797569,26.0555299 C15.6015,26.1807384 15.197072,26.5781611 15.0636367,27.0547962 C14.882448,27.6988927 15.1020294,28.3123029 15.6032837,28.6914733 C15.8531575,28.8804887 16,29.175689 16,29.489 L16,34 L18,34 L18,27.5 C18,26.5156894 17.0794166,25.7948815 16.0797569,26.0555299 Z M32,27.5 L32,34 L34,34 L34,29.489 C34,29.1756187 34.146908,28.8803606 34.3968758,28.6913527 C34.8968961,28.3132728 35.1168786,27.698577 34.9360238,27.0535863 C34.8029279,26.5781608 34.3985,26.1807384 33.9202431,26.0555299 C32.9205834,25.7948815 32,26.5156894 32,27.5 Z M29.9992234,30 L19.9992234,30 L19.9992234,32 L29.9992234,32 L29.9992234,30 Z M25,16 C21.1342847,16 18,19.1342847 18,23 L17.9998812,24.3382423 C19.1716652,24.8935121 20,26.080784 20,27.5 L19.9992234,28 L29.9992234,28 L30,27.5 C30,26.080784 30.8283348,24.8935121 31.9999814,24.3382064 L32,23 C32,19.1342847 28.8657153,16 25,16 Z" id="path-1"></path>
    </defs>
    <g id="Icon/Amenities/Lounge" stroke="none" stroke-width="1" fill="none" fill-rule="evenodd">
        <mask id="mask-2" fill="white">
            <use xlink:href="#path-1"></use>
        </mask>
        <use id="Mask" fill="#000000" fill-rule="nonzero" xlink:href="#path-1"></use>
    </g>
</svg>