<?xml version="1.0" encoding="UTF-8"?>
<svg width="24px" height="24px" viewBox="0 0 24 24" version="1.1" xmlns="http://www.w3.org/2000/svg" xmlns:xlink="http://www.w3.org/1999/xlink">
    <!-- Generator: Sketch 57.1 (83088) - https://sketch.com -->
    <title>Icon / Map Grid</title>
    <desc>Created with Sketch.</desc>
    <defs>
        <path d="M8.655,2 C9.20728475,2 9.655,2.44771525 9.655,3 C9.655,3.51283584 9.26895981,3.93550716 8.77162113,3.99327227 L8.655,4 L5,4 C3.40245315,4 2.09634869,5.24904921 2.00509321,6.82374106 L2,7 L2,15 L12.5,15 C13.0128358,15 13.4355072,15.3860402 13.4932723,15.8833789 L13.5,16 C13.5,16.5128358 13.1139598,16.9355072 12.6166211,16.9932723 L12.5,17 L10,17 L10,22 L19,22 C20.5975468,22 21.9036513,20.7509508 21.9949068,19.1762589 L22,19 L22,15.445 C22,14.8927153 22.4477153,14.445 23,14.445 C23.5128358,14.445 23.9355072,14.8310402 23.9932723,15.3283789 L24,15.445 L24,19 C24,21.6886194 21.8775615,23.881811 19.2168792,23.9953802 L19,24 L5,24 C2.31138064,24 0.118189009,21.8775615 0.00461979503,19.2168792 L0,19 L0,7 C0,4.31138064 2.12243849,2.11818901 4.78312078,2.0046198 L5,2 L8.655,2 Z M8,17 L2,17 L2,19 C2,20.5975468 3.24904921,21.9036513 4.82374106,21.9949068 L5,22 L8,22 L8,17 Z M17.5,-5.32907052e-15 C21.4473682,-5.32907052e-15 24,2.93693636 24,6.625 C24,7.79768219 23.351251,9.31837206 22.2013388,11.2050317 C21.8622699,11.7613418 21.4839119,12.3400797 21.0729963,12.9354217 C20.4590932,13.8248558 19.8030072,14.7082934 19.14701,15.5468765 C18.9174003,15.8403942 18.704005,16.1075875 18.5121546,16.3434913 C18.4065342,16.4733646 18.3276928,16.5689579 18.2796646,16.6265025 C18.2609992,16.6496799 18.2411674,16.672177 18.2200926,16.6939359 C18.0212169,16.9007258 17.7512865,17.0047791 17.4769488,16.9997472 C17.2326594,16.9940186 16.9915275,16.8992866 16.8060641,16.7200926 C16.775191,16.6904011 16.7466078,16.6591258 16.7203354,16.6265025 C16.6723072,16.5689579 16.5934658,16.4733646 16.4878454,16.3434913 C16.295995,16.1075875 16.0825997,15.8403942 15.85299,15.5468765 C15.1969928,14.7082934 14.5409068,13.8248558 13.9270037,12.9354217 C13.5160881,12.3400797 13.1377301,11.7613418 12.7986612,11.2050317 C11.648749,9.31837206 11,7.79768219 11,6.625 C11,2.93693636 13.5526318,-5.32907052e-15 17.5,-5.32907052e-15 Z M17.5,2 C14.7244118,2 13,3.984026 13,6.625 C13,7.3119496 13.5410771,8.58025292 14.5064507,10.1641402 C14.8245753,10.686087 15.1825,11.2335702 15.5729963,11.7993283 C16.0149127,12.4395848 16.4814411,13.079079 16.9541599,13.7002202 L17.42826,14.3145923 L17.5,14.4061108 C17.5237192,14.3759151 17.5476348,14.3454067 17.57174,14.3145923 C18.2048053,13.5053238 18.8377818,12.6530036 19.4270037,11.7993283 C19.8175,11.2335702 20.1754247,10.686087 20.4935493,10.1641402 C21.4589229,8.58025292 22,7.3119496 22,6.625 C22,3.984026 20.2755882,2 17.5,2 Z M17.5,5 C18.0522847,5 18.5,5.44771525 18.5,6 L18.5,6 L18.5,6.01 C18.5,6.56228475 18.0522847,7.01 17.5,7.01 C16.9477153,7.01 16.5,6.56228475 16.5,6.01 L16.5,6.01 L16.5,6 C16.5,5.44771525 16.9477153,5 17.5,5 Z" id="path-1"></path>
    </defs>
    <g id="Property-Page" stroke="none" stroke-width="1" fill="none" fill-rule="evenodd">
        <g transform="translate(-923.000000, -208.000000)" id="Map-Btn">
            <g transform="translate(905.000000, 190.000000)">
                <g id="Icon-/-Map-Grid">
                    <g id="Color-/-Smoke" transform="translate(18.000000, 18.000000)">
                        <mask id="mask-2" fill="white">
                            <use xlink:href="#path-1"></use>
                        </mask>
                        <use id="Mask" fill="#000000" fill-rule="nonzero" xlink:href="#path-1"></use>
                        <g id="Color-/-Blue" mask="url(#mask-2)" fill="#484B79">
                            <g transform="translate(-18.000000, -18.000000)" id="White">
                                <rect x="0" y="0" width="60" height="60"></rect>
                            </g>
                        </g>
                    </g>
                </g>
            </g>
        </g>
    </g>
</svg>