<?xml version="1.0" encoding="UTF-8"?>
<svg width="61px" height="61px" viewBox="0 0 61 61" version="1.1" xmlns="http://www.w3.org/2000/svg" xmlns:xlink="http://www.w3.org/1999/xlink">
    <!-- Generator: Sketch 57.1 (83088) - https://sketch.com -->
    <title>money-home</title>
    <desc>Created with Sketch.</desc>
    <g id="Citizenship" stroke="none" stroke-width="1" fill="none" fill-rule="evenodd" stroke-linecap="round" stroke-linejoin="round">
        <g transform="translate(-162.000000, -1028.000000)" id="Group-3" stroke="#000000" stroke-width="5">
            <g transform="translate(135.000000, 988.000000)">
                <g id="money-home" transform="translate(30.000000, 43.000000)">
                    <path d="M32.5,22.5 L25,22.5 C22.2375,22.5 20,24.7375 20,27.5 C20,30.2625 22.2375,32.5 25,32.5 L30,32.5 C32.7625,32.5 35,34.7375 35,37.5 C35,40.2625 32.7625,42.5 30,42.5 L21.25,42.5" id="Path"></path>
                    <path d="M27.5,22.5 L27.5,17.5" id="Path"></path>
                    <path d="M27.5,47.5 L27.5,42.5" id="Path"></path>
                    <path d="M0,50 L0,22.5 L27.5,0 L55,22.5 L55,50 C55,52.7625 52.7625,55 50,55 L5,55 C2.2375,55 0,52.7625 0,50 Z" id="Path"></path>
                </g>
            </g>
        </g>
    </g>
</svg>