<?xml version="1.0" encoding="UTF-8"?>
<svg width="50px" height="50px" viewBox="0 0 50 50" version="1.1" xmlns="http://www.w3.org/2000/svg" xmlns:xlink="http://www.w3.org/1999/xlink">
    <!-- Generator: Sketch 57.1 (83088) - https://sketch.com -->
    <title>Icon/Amenities/Music Room</title>
    <desc>Created with Sketch.</desc>
    <defs>
        <path d="M29.9999998,31 C32.2861979,31 34.5007892,31.8996179 36.5865329,33.4100746 C37.0338423,33.7340078 37.1338586,34.3592234 36.8099254,34.8065329 C36.4859922,35.2538423 35.8607766,35.3538586 35.4134671,35.0299254 C33.6396687,33.7453736 31.8047808,33 29.9999998,33 C28.1058921,33 27.0703845,33.3328417 24.9472136,34.3944272 C22.5703845,35.5828417 21.2725588,36 18.9999998,36 C16.7305749,36 14.8282787,35.1086121 13.2989406,33.6051029 C12.9051048,33.2179185 12.8997127,32.5847765 13.2868971,32.1909406 C13.6740815,31.7971048 14.3072235,31.7917127 14.7010594,32.1788971 C15.8783087,33.336264 17.2947769,34 18.9999998,34 C20.8941079,34 21.9296155,33.6671583 24.0527864,32.6055728 C26.4296155,31.4171583 27.7274412,31 29.9999998,31 Z M27,14 C27.5522847,14 28,14.4477153 28,15 L28,26.5 C28,28.477434 26.1729208,30 24,30 C21.8270792,30 20,28.477434 20,26.5 C20,24.522566 21.8270792,23 24,23 C24.7234871,23 25.4086343,23.1687913 26.0007671,23.4669635 L26,15 C26,14.4477153 26.4477153,14 27,14 Z M23.7525767,14.3414954 C24.1162587,14.757132 24.0741412,15.3888946 23.6585046,15.7525767 L16,22.4537682 L16,29 C16,29.5522847 15.5522847,30 15,30 C14.4477153,30 14,29.5522847 14,29 L14,22 C14,21.7116374 14.1244804,21.4373114 14.3414954,21.2474233 L22.3414954,14.2474233 C22.757132,13.8837413 23.3888946,13.9258588 23.7525767,14.3414954 Z M31.7071068,17.2928932 L35.7071068,21.2928932 C35.8946432,21.4804296 36,21.7347835 36,22 L36,29 C36,29.5522847 35.5522847,30 35,30 C34.4477153,30 34,29.5522847 34,29 L34,22.4142136 L30.2928932,18.7071068 C29.9023689,18.3165825 29.9023689,17.6834175 30.2928932,17.2928932 C30.6834175,16.9023689 31.3165825,16.9023689 31.7071068,17.2928932 Z M24,25 C22.8592123,25 22,25.7160103 22,26.5 C22,27.2839897 22.8592123,28 24,28 C25.1407877,28 26,27.2839897 26,26.5 C26,25.7160103 25.1407877,25 24,25 Z" id="path-1"></path>
    </defs>
    <g id="Icon/Amenities/Music-Room" stroke="none" stroke-width="1" fill="none" fill-rule="evenodd">
        <mask id="mask-2" fill="white">
            <use xlink:href="#path-1"></use>
        </mask>
        <use id="Mask" fill="#000000" fill-rule="nonzero" xlink:href="#path-1"></use>
    </g>
</svg>