<?xml version="1.0" encoding="UTF-8"?>
<svg width="50px" height="50px" viewBox="0 0 50 50" version="1.1" xmlns="http://www.w3.org/2000/svg" xmlns:xlink="http://www.w3.org/1999/xlink">
    <!-- Generator: Sketch 57.1 (83088) - https://sketch.com -->
    <title>Icon/Amenities/Outdoor Terrace</title>
    <desc>Created with Sketch.</desc>
    <defs>
        <path d="M28.8221068,15.5828932 C29.7818861,16.5426725 30.3223174,17.8006752 30.39111,19.1089031 C31.6992256,19.1777915 32.9574888,19.7183656 33.9161068,20.6778932 C36.0266311,22.7884175 36.0266311,26.2095825 33.9164417,28.3197717 C32.9568967,29.2802262 31.6983851,29.821141 30.3900702,29.8900821 C30.3211039,31.1979015 29.7803578,32.4558558 28.8201068,33.4161068 C26.7095825,35.5266311 23.2884175,35.5266311 21.1778932,33.4161068 C20.5450722,32.7832858 20.0945541,32.0208183 19.8413272,31.1997892 C18.9848418,32.1534192 18.2179892,33.0669336 17.5413086,33.9270609 C17.1838139,34.3814717 16.8782549,34.7873092 16.6246677,35.1385931 C16.4750755,35.3458169 16.3774922,35.4865645 16.3319483,35.5548532 C16.0255114,36.0143255 15.4046192,36.1383852 14.9451468,35.8319483 C14.4856745,35.5255114 14.3616148,34.9046192 14.6680517,34.4451468 C14.7271328,34.3565605 14.8387917,34.1955112 15.0030511,33.9679694 C15.2725498,33.594644 15.5946705,33.1668096 15.9694414,32.6904391 C16.7084756,31.7510544 17.5488622,30.7529271 18.4907017,29.7120107 C17.5977473,29.4736129 16.7649063,29.0031199 16.0828932,28.3211068 C13.9723689,26.2105825 13.9723689,22.7894175 16.0828932,20.6788932 C17.0431489,19.7186376 18.3011107,19.1778909 19.6089369,19.1089288 C19.6779456,17.8008444 20.2190339,16.5428433 21.1798932,15.5828932 C23.2904175,13.4723689 26.7115825,13.4723689 28.8221068,15.5828932 Z M22.5937721,16.9974413 C21.8000908,17.7903718 21.4621143,18.9042954 21.6539139,19.9959551 C21.7739328,20.6790623 21.1790623,21.2739328 20.4959551,21.1539139 C19.4044224,20.9621366 18.2902268,21.2999867 17.4971068,22.0931068 C16.1676311,23.4225825 16.1676311,25.5774175 17.4971068,26.9068932 C18.2896941,27.6994806 19.4049089,28.0375764 20.4952558,27.8452092 C21.1785218,27.7246623 21.773912,28.3195557 21.6539355,29.0029221 C21.4621472,30.095316 21.7998162,31.2096026 22.5921068,32.0018932 C23.9215825,33.3313689 26.0764175,33.3313689 27.4058932,32.0018932 C28.1990133,31.2087732 28.5368634,30.0945776 28.3450861,29.0030449 C28.2250672,28.3199377 28.8199377,27.7250672 29.5030449,27.8450861 C30.5947498,28.0368937 31.7096415,27.6988958 32.5018932,26.9058932 C33.8313689,25.5764175 33.8313689,23.4215825 32.501558,22.0917714 C31.7105322,21.2999951 30.5956044,20.9621319 29.5040449,21.1539139 C28.8209897,21.2739236 28.22614,20.6791481 28.3460645,19.9960779 C28.5378528,18.903684 28.2001838,17.7893974 27.4078932,16.9971068 C26.0784175,15.6676311 23.9235825,15.6676311 22.5937721,16.9974413 Z M25,21.487 C26.6568542,21.487 28,22.8301458 28,24.487 C28,26.1438542 26.6568542,27.487 25,27.487 C23.3431458,27.487 22,26.1438542 22,24.487 C22,22.8301458 23.3431458,21.487 25,21.487 Z M25,23.487 C24.4477153,23.487 24,23.9347153 24,24.487 C24,25.0392847 24.4477153,25.487 25,25.487 C25.5522847,25.487 26,25.0392847 26,24.487 C26,23.9347153 25.5522847,23.487 25,23.487 Z" id="path-1"></path>
    </defs>
    <g id="Icon/Amenities/Outdoor-Terrace" stroke="none" stroke-width="1" fill="none" fill-rule="evenodd">
        <mask id="mask-2" fill="white">
            <use xlink:href="#path-1"></use>
        </mask>
        <use id="Mask" fill="#000000" fill-rule="nonzero" xlink:href="#path-1"></use>
    </g>
</svg>