<?xml version="1.0" encoding="UTF-8"?>
<svg width="50px" height="50px" viewBox="0 0 50 50" version="1.1" xmlns="http://www.w3.org/2000/svg" xmlns:xlink="http://www.w3.org/1999/xlink">
    <!-- Generator: Sketch 57.1 (83088) - https://sketch.com -->
    <title>Icon/Amenities/Party &amp; Karaoke</title>
    <desc>Created with Sketch.</desc>
    <defs>
        <path d="M33.2736195,14.7285836 C35.5793593,17.0331193 35.5793593,20.7704268 33.2741144,23.0756715 C32.0566098,24.294245 30.3976169,24.8898422 28.7156115,24.7767961 L20.1391455,32.2382463 C19.1515996,33.0976011 17.7657601,33.2249073 16.6619928,32.6435121 L15.152563,34.147216 C14.8363524,34.4614316 15.0606717,34.999875 15.5146975,34.999875 L36.0026975,34.999875 C36.5549822,34.999875 37.0026975,35.4475903 37.0026975,35.999875 C37.0026975,36.5521598 36.5549822,36.999875 36.0026975,36.999875 L15.5146975,36.999875 C13.2803765,36.999875 12.1572877,34.3040749 13.7416212,32.7297393 L15.2845071,31.1898307 C14.7900615,30.1127421 14.9426717,28.8054996 15.7633182,27.8624363 L23.2256425,19.2852108 C23.1131692,17.6043111 23.7088961,15.9453946 24.926406,14.728953 C27.2305974,12.4235577 30.9677619,12.4239301 33.2736195,14.7285836 Z M24.316,21.079 L17.2720687,29.1753231 C16.8932592,29.61064 16.9160204,30.2649845 17.3238042,30.6727683 L17.3288042,30.6777683 C17.7371676,31.0861316 18.3904839,31.1087036 18.8262587,30.7294957 L26.922,23.685 L24.316,21.079 Z M26.3404939,16.143292 C25.5378683,16.9452136 25.145385,18.0391352 25.2214992,19.1564632 L28.8460918,22.7810558 C29.9639288,22.8572186 31.0571907,22.4648726 31.8595907,21.6617683 C33.3840356,20.1373233 33.3840356,17.6666307 31.8597754,16.1431665 C30.3349419,14.6191292 27.8641072,14.618883 26.3404939,16.143292 Z" id="path-1"></path>
    </defs>
    <g id="Icon/Amenities/Party-&amp;-Karaoke" stroke="none" stroke-width="1" fill="none" fill-rule="evenodd">
        <mask id="mask-2" fill="white">
            <use xlink:href="#path-1"></use>
        </mask>
        <use id="Mask" fill="#000000" fill-rule="nonzero" xlink:href="#path-1"></use>
    </g>
</svg>