<?xml version="1.0" encoding="UTF-8"?>
<svg width="56px" height="61px" viewBox="0 0 56 61" version="1.1" xmlns="http://www.w3.org/2000/svg" xmlns:xlink="http://www.w3.org/1999/xlink">
    <!-- Generator: Sketch 57.1 (83088) - https://sketch.com -->
    <title>passport</title>
    <desc>Created with Sketch.</desc>
    <g id="Citizenship" stroke="none" stroke-width="1" fill="none" fill-rule="evenodd">
        <g transform="translate(-165.000000, -3774.000000)" fill="#FFFFFF" fill-rule="nonzero" id="passport">
            <g transform="translate(168.000000, 3777.000000)">
                <path d="M25,45 C30.0400296,45 32.8575,37.1116089 32.8575,27.5 C32.8575,17.8883911 30.0400296,10 25,10 C19.9599704,10 17.1425,17.8883911 17.1425,27.5 C17.1425,37.1116089 19.9599704,45 25,45 Z M24.8247012,39.7082821 C24.4042724,39.2104014 23.9613763,38.3726561 23.5660124,37.265711 C22.6709834,34.7597968 22.1425,31.2614997 22.1425,27.5 C22.1425,23.7385003 22.6709834,20.2402032 23.5660124,17.734289 C23.9613763,16.6273439 24.4042724,15.7895986 24.8247012,15.2917179 C24.888871,15.2157266 24.9477668,15.1532209 25,15.1034125 C25.0522332,15.1532209 25.111129,15.2157266 25.1752988,15.2917179 C25.5957276,15.7895986 26.0386237,16.6273439 26.4339876,17.734289 C27.3290166,20.2402032 27.8575,23.7385003 27.8575,27.5 C27.8575,31.2614997 27.3290166,34.7597968 26.4339876,37.265711 C26.0386237,38.3726561 25.5957276,39.2104014 25.1752988,39.7082821 C25.111129,39.7842734 25.0522332,39.8467791 25,39.8965875 C24.9477668,39.8467791 24.888871,39.7842734 24.8247012,39.7082821 Z" id="Oval"></path>
                <path d="M10,30 L40,30 C41.3807119,30 42.5,28.8807119 42.5,27.5 C42.5,26.1192881 41.3807119,25 40,25 L10,25 C8.61928813,25 7.5,26.1192881 7.5,27.5 C7.5,28.8807119 8.61928813,30 10,30 Z" id="Path"></path>
                <path d="M25,45 C34.6649831,45 42.5,37.1649831 42.5,27.5 C42.5,17.8350169 34.6649831,10 25,10 C15.3350169,10 7.5,17.8350169 7.5,27.5 C7.5,37.1649831 15.3350169,45 25,45 Z M25,40 C18.0964406,40 12.5,34.4035594 12.5,27.5 C12.5,20.5964406 18.0964406,15 25,15 C31.9035594,15 37.5,20.5964406 37.5,27.5 C37.5,34.4035594 31.9035594,40 25,40 Z" id="Oval"></path>
                <path d="M-2.5,0 L-2.5,55 C-2.5,56.3807119 -1.38071187,57.5 0,57.5 L45,57.5 C49.1432119,57.5 52.5,54.1432119 52.5,50 L52.5,5 C52.5,0.856788125 49.1432119,-2.5 45,-2.5 L0,-2.5 C-1.38071187,-2.5 -2.5,-1.38071187 -2.5,0 Z M2.5,2.5 L45,2.5 C46.3817881,2.5 47.5,3.61821187 47.5,5 L47.5,50 C47.5,51.3817881 46.3817881,52.5 45,52.5 L2.5,52.5 L2.5,2.5 Z" id="Path"></path>
            </g>
        </g>
    </g>
</svg>