<?xml version="1.0" encoding="UTF-8"?>
<svg width="50px" height="50px" viewBox="0 0 50 50" version="1.1" xmlns="http://www.w3.org/2000/svg" xmlns:xlink="http://www.w3.org/1999/xlink">
    <!-- Generator: Sketch 57.1 (83088) - https://sketch.com -->
    <title>Icon/Amenities/Playgraund</title>
    <desc>Created with Sketch.</desc>
    <defs>
        <path d="M22,13 C26.9702847,13 31,17.0297153 31,22 L31,27 C31,29.2092847 29.2092847,31 27,31 L25,31 L25,34 C25,35.6572847 23.6572847,37 22,37 C20.3427153,37 19,35.6572847 19,34 L19,31 L17,31 C14.7907153,31 13,29.2092847 13,27 L13,22 C13,17.0297153 17.0297153,13 22,13 Z M33.5,30 C35.4329966,30 37,31.5670034 37,33.5 C37,35.4329966 35.4329966,37 33.5,37 C31.5670034,37 30,35.4329966 30,33.5 C30,31.5670034 31.5670034,30 33.5,30 Z M29,27 L15,27 C15,28.1047153 15.8952847,29 17,29 L20,29 C20.5522847,29 21,29.4477153 21,30 L21,34 C21,34.5527153 21.4472847,35 22,35 C22.5527153,35 23,34.5527153 23,34 L23,30 C23,29.4477153 23.4477153,29 24,29 L27,29 C28.1047153,29 29,28.1047153 29,27 Z M33.5,32 C32.6715729,32 32,32.6715729 32,33.5 C32,34.3284271 32.6715729,35 33.5,35 C34.3284271,35 35,34.3284271 35,33.5 C35,32.6715729 34.3284271,32 33.5,32 Z M22,15 C18.1342847,15 15,18.1342847 15,22 L15,25 L29,25 L29,22 C29,18.1342847 25.8657153,15 22,15 Z" id="path-1"></path>
    </defs>
    <g id="Icon/Amenities/Playgraund" stroke="none" stroke-width="1" fill="none" fill-rule="evenodd">
        <mask id="mask-2" fill="white">
            <use xlink:href="#path-1"></use>
        </mask>
        <use id="Mask" fill="#000000" fill-rule="nonzero" xlink:href="#path-1"></use>
    </g>
</svg>