<?xml version="1.0" encoding="UTF-8"?>
<svg width="50px" height="50px" viewBox="0 0 50 50" version="1.1" xmlns="http://www.w3.org/2000/svg" xmlns:xlink="http://www.w3.org/1999/xlink">
    <!-- Generator: Sketch 57.1 (83088) - https://sketch.com -->
    <title>Icon/Amenities/Playstation Room</title>
    <desc>Created with Sketch.</desc>
    <defs>
        <path d="M30.5,16 C34.0832544,16 37,18.8284592 37,22.333 L37,29.444 C37,31.967191 34.9036164,34 32.333,34 C30.8882974,34 29.542334,33.1976905 28.6439639,32 L21.3560361,32 C20.457666,33.1976905 19.1117026,34 17.667,34 C15.0963836,34 13,31.967191 13,29.444 L13,22.333 C13,18.8284592 15.9167456,16 19.5,16 L30.5,16 Z M30.5,18 L19.5,18 C17.0077925,18 15,19.947019 15,22.333 L15,29.444 C15,30.848604 16.1874051,32 17.667,32 C18.5263449,32 19.4254143,31.3887076 19.9675786,30.4853851 C20.1483182,30.1842473 20.4737867,30 20.825,30 L29.175,30 C29.5262133,30 29.8516818,30.1842473 30.0324214,30.4853851 C30.5745857,31.3887076 31.4736551,32 32.333,32 C33.8125949,32 35,30.848604 35,29.444 L35,22.333 C35,19.947019 32.9922075,18 30.5,18 Z M21,20 C21.5522847,20 22,20.4477153 22,21 L22,23 L24,23 C24.5522847,23 25,23.4477153 25,24 C25,24.5522847 24.5522847,25 24,25 L22,25 L22,27 C22,27.5522847 21.5522847,28 21,28 C20.4477153,28 20,27.5522847 20,27 L20,25 L18,25 C17.4477153,25 17,24.5522847 17,24 C17,23.4477153 17.4477153,23 18,23 L20,23 L20,21 C20,20.4477153 20.4477153,20 21,20 Z M28,24.99 C28.5522847,24.99 29,25.4377153 29,25.99 L29,26 C29,26.5522847 28.5522847,27 28,27 C27.4477153,27 27,26.5522847 27,26 L27,25.99 C27,25.4377153 27.4477153,24.99 28,24.99 Z M31,21.98 C31.5522847,21.98 32,22.4277153 32,22.98 L32,22.99 C32,23.5422847 31.5522847,23.99 31,23.99 C30.4477153,23.99 30,23.5422847 30,22.99 L30,22.98 C30,22.4277153 30.4477153,21.98 31,21.98 Z" id="path-1"></path>
    </defs>
    <g id="Icon/Amenities/Playstation-Room" stroke="none" stroke-width="1" fill="none" fill-rule="evenodd">
        <mask id="mask-2" fill="white">
            <use xlink:href="#path-1"></use>
        </mask>
        <use id="Mask" fill="#000000" fill-rule="nonzero" xlink:href="#path-1"></use>
    </g>
</svg>