<?xml version="1.0" encoding="UTF-8"?>
<svg width="24px" height="24px" viewBox="0 0 24 24" version="1.1" xmlns="http://www.w3.org/2000/svg" xmlns:xlink="http://www.w3.org/1999/xlink">
    <!-- Generator: Sketch 57.1 (83088) - https://sketch.com -->
    <title>Icon / Mail</title>
    <desc>Created with Sketch.</desc>
    <defs>
        <path d="M34,18 C34.2652165,18 34.5195704,18.1053568 34.7071068,18.2928932 L34.7071068,18.2928932 L36.4142136,20 L39,20 C40.6565529,20 42,21.3429832 42,23 L42,23 L42,27 C42,28.6562847 40.6562847,30 39,30 L39,30 L38,30 L38,41 C38,41.5128358 37.6139598,41.9355072 37.1166211,41.9932723 L37,42 L23,42 C22.4871642,42 22.0644928,41.6139598 22.0067277,41.1166211 L22,41 L22,30 L21,30 C19.4028683,30 18.0963783,28.7505505 18.0050948,27.1762161 L18,27 L18,23 C18,21.3429832 19.3434471,20 21,20 L21,20 L23.5857864,20 L25.2928932,18.2928932 C25.4804296,18.1053568 25.7347835,18 26,18 L26,18 Z M36,30 L24,30 L24,40 L36,40 L36,30 Z M27,36 L33,36 C33.5522847,36 34,36.4477153 34,37 C34,37.5128358 33.6139598,37.9355072 33.1166211,37.9932723 L33,38 L27,38 C26.4477153,38 26,37.5522847 26,37 C26,36.4871642 26.3860402,36.0644928 26.8833789,36.0067277 L27,36 L33,36 Z M33,32 C33.5522847,32 34,32.4477153 34,33 C34,33.5128358 33.6139598,33.9355072 33.1166211,33.9932723 L33,34 L27,34 C26.4477153,34 26,33.5522847 26,33 C26,32.4871642 26.3860402,32.0644928 26.8833789,32.0067277 L27,32 L33,32 Z M33.5857864,20 L26.4142136,20 L24.7071068,21.7071068 C24.5195704,21.8946432 24.2652165,22 24,22 L24,22 L21,22 C20.447862,22 20,22.4477074 20,23 L20,23 L20,27 C20,27.5517153 20.4482847,28 21,28 L21,28 L39,28 C39.5517153,28 40,27.5517153 40,27 L40,27 L40,23 C40,22.4477074 39.552138,22 39,22 L39,22 L36,22 C35.7347835,22 35.4804296,21.8946432 35.2928932,21.7071068 L35.2928932,21.7071068 L33.5857864,20 Z" id="path-1"></path>
    </defs>
    <g id="Property-Page" stroke="none" stroke-width="1" fill="none" fill-rule="evenodd">
        <g transform="translate(-941.000000, -599.000000)" id="Icon-/-Print">
            <g transform="translate(923.000000, 581.000000)">
                <mask id="mask-2" fill="white">
                    <use xlink:href="#path-1"></use>
                </mask>
                <use id="Mask" fill="#000000" fill-rule="nonzero" xlink:href="#path-1"></use>
                <g id="Color-/-Smoke" mask="url(#mask-2)" fill="#FFFFFF" fill-rule="evenodd">
                    <rect id="White" x="0" y="0" width="60" height="60"></rect>
                </g>
            </g>
        </g>
    </g>
</svg>