<?xml version="1.0" encoding="UTF-8"?>
<svg width="50px" height="50px" viewBox="0 0 50 50" version="1.1" xmlns="http://www.w3.org/2000/svg" xmlns:xlink="http://www.w3.org/1999/xlink">
    <!-- Generator: Sketch 57.1 (83088) - https://sketch.com -->
    <title>Icon/Amenities/Private Cinema</title>
    <desc>Created with Sketch.</desc>
    <defs>
        <path d="M36,34.995 C36.5522847,34.995 37,35.4427153 37,35.995 C37,36.5522847 36.5522847,37 36,37 C35.4477153,37 35,36.5522847 35,36 C35,35.4427153 35.4477153,34.995 36,34.995 Z M32,31.995 C32.5522847,31.995 33,32.4427153 33,32.995 L33,33.005 C33,33.5572847 32.5522847,34.005 32,34.005 C31.4477153,34.005 31,33.5572847 31,33.005 L31,32.995 C31,32.4427153 31.4477153,31.995 32,31.995 Z M18,16.995 C19.6572847,16.995 21,18.3377153 21,19.995 L21,20.995 L23.4,19.195 C24.0592363,18.7005728 25,19.1709547 25,19.995 L25,29.995 C25,30.8190453 24.0592363,31.2894272 23.4,30.795 L21,28.994 L21,29.995 C21,31.6522847 19.6572847,32.995 18,32.995 L16,32.995 C14.3427153,32.995 13,31.6522847 13,29.995 L13,19.995 C13,18.3377153 14.3427153,16.995 16,16.995 L18,16.995 Z M18,18.995 L16,18.995 C15.4472847,18.995 15,19.4422847 15,19.995 L15,29.995 C15,30.5477153 15.4472847,30.995 16,30.995 L18,30.995 C18.5527153,30.995 19,30.5477153 19,29.995 L19,19.995 C19,19.4422847 18.5527153,18.995 18,18.995 Z M28,28.985 C28.5522847,28.985 29,29.4327153 29,29.985 L29,29.995 C29,30.5472847 28.5522847,30.995 28,30.995 C27.4477153,30.995 27,30.5472847 27,29.995 L27,29.985 C27,29.4327153 27.4477153,28.985 28,28.985 Z M23,21.995 L21,23.495 L21,26.494 L23,27.995 L23,21.995 Z M28,18.995 C28.5522847,18.995 29,19.4427153 29,19.995 L29,20.005 C29,20.5572847 28.5522847,21.005 28,21.005 C27.4477153,21.005 27,20.5572847 27,20.005 L27,19.995 C27,19.4427153 27.4477153,18.995 28,18.995 Z M32,15.995 C32.5522847,15.995 33,16.4427153 33,16.995 L33,17.005 C33,17.5572847 32.5522847,18.005 32,18.005 C31.4477153,18.005 31,17.5572847 31,17.005 L31,16.995 C31,16.4427153 31.4477153,15.995 32,15.995 Z M36,13 C36.5522847,13 37,13.4477153 37,14 L37,14.01 C37,14.5622847 36.5522847,15.01 36,15.01 C35.4477153,15.01 35,14.5622847 35,14.01 L35,14 C35,13.4477153 35.4477153,13 36,13 Z" id="path-1"></path>
    </defs>
    <g id="Icon/Amenities/Private-Cinema" stroke="none" stroke-width="1" fill="none" fill-rule="evenodd">
        <mask id="mask-2" fill="white">
            <use xlink:href="#path-1"></use>
        </mask>
        <use id="Mask" fill="#000000" fill-rule="nonzero" xlink:href="#path-1"></use>
    </g>
</svg>