<?xml version="1.0" encoding="UTF-8"?>
<svg width="50px" height="50px" viewBox="0 0 50 50" version="1.1" xmlns="http://www.w3.org/2000/svg" xmlns:xlink="http://www.w3.org/1999/xlink">
    <!-- Generator: Sketch 57.1 (83088) - https://sketch.com -->
    <title>Icon/Amenities/Sauna</title>
    <desc>Created with Sketch.</desc>
    <defs>
        <path d="M23,10 C23.5522847,10 24,10.4477153 24,11 C24,11.5522847 23.5522847,12 23,12 L22,12 L22,18 C22,19.6351011 21.2150071,21.0869662 20.0013531,21.9992636 L20,24 C20,24.5522847 19.5522847,25 19,25 L18.9801958,24.9997585 C18.9728166,24.9999192 18.9654177,25 18.958,25 C18.4057153,25 17.958,24.5522847 17.958,24 L17.9581509,22.9082774 C17.6480395,22.9684697 17.3276997,23 17,23 L7,23 C6.65748499,23 6.32301044,22.9655542 5.99985171,22.8999381 L6,24 C6,24.5522847 5.55228475,25 5,25 C4.44771525,25 4,24.5522847 4,24 L3.99986531,22.0001792 C2.78551827,21.0879378 2,19.6356482 2,18 L2,12 L1,12 C0.44771525,12 0,11.5522847 0,11 C0,10.4477153 0.44771525,10 1,10 L23,10 Z M20,12 L4,12 L4,16.5 L9.31892019,16.5 C9.87120494,16.5 10.3189202,16.9477153 10.3189202,17.5 C10.3189202,18.0522847 9.87120494,18.5 9.31892019,18.5 L4.04160007,18.5006616 C4.27994761,19.9190985 5.51386967,21 7,21 L17,21 C17.4741522,21 17.9226312,20.8899708 18.3212942,20.6940551 C18.4100322,20.6204754 18.5118585,20.5620395 18.6226934,20.5226017 C19.3176484,20.075708 19.8158052,19.3487031 19.9583477,18.5009717 L19,18.5 C18.4477153,18.5 18,18.0522847 18,17.5 C18,16.9477153 18.4477153,16.5 19,16.5 L20,16.5 L20,12 Z M15,16.5 C15.5522847,16.5 16,16.9477153 16,17.5 C16,18.0522847 15.5522847,18.5 15,18.5 L14,18.5 C13.4477153,18.5 13,18.0522847 13,17.5 C13,16.9477153 13.4477153,16.5 14,16.5 L15,16.5 Z M8,6 C8.55228475,6 9,6.44771525 9,7 C9,7.55228475 8.55228475,8 8,8 C7.44771525,8 7,7.55228475 7,7 C7,6.44771525 7.44771525,6 8,6 Z M13,4 C13.5522847,4 14,4.44771525 14,5 C14,5.55228475 13.5522847,6 13,6 C12.4477153,6 12,5.55228475 12,5 C12,4.44771525 12.4477153,4 13,4 Z M11,0 C11.5522847,0 12,0.44771525 12,1 C12,1.55228475 11.5522847,2 11,2 C10.4477153,2 10,1.55228475 10,1 C10,0.44771525 10.4477153,0 11,0 Z" id="path-1"></path>
    </defs>
    <g id="Icon/Amenities/Sauna" stroke="none" stroke-width="1" fill="none" fill-rule="evenodd">
        <g id="Color/Smoke" transform="translate(13.000000, 13.000000)">
            <mask id="mask-2" fill="white">
                <use xlink:href="#path-1"></use>
            </mask>
            <use id="Mask" fill="#000000" fill-rule="nonzero" xlink:href="#path-1"></use>
        </g>
    </g>
</svg>