<?xml version="1.0" encoding="UTF-8"?>
<svg width="50px" height="50px" viewBox="0 0 50 50" version="1.1" xmlns="http://www.w3.org/2000/svg" xmlns:xlink="http://www.w3.org/1999/xlink">
    <!-- Generator: Sketch 57.1 (83088) - https://sketch.com -->
    <title>Icon/Amenities/Security</title>
    <desc>Created with Sketch.</desc>
    <defs>
        <path d="M11.7071068,0.792893219 C12.4994444,1.58523082 13.7824284,2.042 15.151,2.042 C16.03854,2.042 16.8801544,1.84702635 17.5208427,1.49727095 C17.9569627,1.25919053 18.5017393,1.37743261 18.7999177,1.77489027 L21.4249177,5.27389027 C21.6607534,5.58824801 21.6906016,6.01159562 21.5012074,6.35593426 C20.0544991,8.98620277 19.6825584,10.8233758 20.5970944,12.1052674 C22.5889159,14.8974835 21.5743388,18.9793208 18.5147457,20.3136261 L11.3988185,23.4175943 C11.1438771,23.5287998 10.8541384,23.528802 10.5991953,23.4176003 L3.48525434,20.3146261 C0.425713033,18.9803434 -0.58903213,14.8974243 1.40293597,12.1062249 C2.31749309,10.8243035 1.94527947,8.98558769 0.498886496,6.35710489 C0.30941519,6.01278487 0.339194918,5.58940678 0.575,5.275 L3.2,1.775 C3.49815516,1.37745979 4.04299156,1.25916558 4.4791573,1.49727095 C5.1198456,1.84702635 5.96146004,2.042 6.849,2.042 C8.2175716,2.042 9.50055562,1.58523082 10.2928932,0.792893219 C10.6834175,0.402368927 11.3165825,0.402368927 11.7071068,0.792893219 Z M11,2.80270175 C9.85739337,3.61396966 8.37771786,4.042 6.849,4.042 C5.96173927,4.042 5.09503189,3.89586406 4.32137471,3.61316705 L2.55691148,5.96578469 C4.09327312,8.94048436 4.45599945,11.270464 3.0309742,13.267901 C1.76296778,15.0446658 2.41438427,17.6656991 4.28480473,18.4813997 L10.9989918,21.4100084 L17.7151815,18.4804057 C19.5857498,17.6646406 20.2370255,15.0444344 18.968936,13.2667751 C17.5439988,11.2694615 17.9064994,8.94113535 19.4431125,5.96496215 L17.6787326,3.61312783 C16.9050483,3.89585054 16.0383018,4.042 15.151,4.042 C13.6222821,4.042 12.1426066,3.61396966 11,2.80270175 Z M11,6.671 C11.5522847,6.671 12,7.11871525 12,7.671 L11.9997302,9.974 L14.1910368,9.262926 C14.7163005,9.09229035 15.2804383,9.37977315 15.451074,9.90503682 C15.6217097,10.4303005 15.3342268,10.9944383 14.8089632,11.165074 L12.61773,11.877 L13.9721001,13.7413292 C14.2966618,14.1881829 14.1975245,14.8135385 13.7506708,15.1381001 C13.3038171,15.4626618 12.6784615,15.3635245 12.3538999,14.9166708 L10.9999289,13.0529293 L9.64610014,14.9166708 C9.32153853,15.3635245 8.69618288,15.4626618 8.24932921,15.1381001 C7.80247554,14.8135385 7.70333824,14.1881829 8.02789986,13.7413292 L9.38173001,11.877 L7.19103682,11.165074 C6.66577315,10.9944383 6.37829035,10.4303005 6.548926,9.90503682 C6.71956165,9.37977315 7.28369952,9.09229035 7.80896318,9.262926 L9.99973001,9.974 L10,7.671 C10,7.11871525 10.4477153,6.671 11,6.671 Z" id="path-1"></path>
    </defs>
    <g id="Icon/Amenities/Security" stroke="none" stroke-width="1" fill="none" fill-rule="evenodd">
        <g id="Color/Blue" transform="translate(14.000000, 13.000000)">
            <mask id="mask-2" fill="white">
                <use xlink:href="#path-1"></use>
            </mask>
            <use id="Mask" fill="#000000" fill-rule="nonzero" xlink:href="#path-1"></use>
        </g>
    </g>
</svg>