<?xml version="1.0" encoding="UTF-8"?>
<svg width="61px" height="61px" viewBox="0 0 61 61" version="1.1" xmlns="http://www.w3.org/2000/svg" xmlns:xlink="http://www.w3.org/1999/xlink">
    <!-- Generator: Sketch 57.1 (83088) - https://sketch.com -->
    <title>travel-card</title>
    <desc>Created with Sketch.</desc>
    <g id="Citizenship" stroke="none" stroke-width="1" fill="none" fill-rule="evenodd">
        <g transform="translate(-565.000000, -4061.000000)" id="Group-4">
            <g transform="translate(535.000000, 4015.000000)">
                <g id="travel-card" transform="translate(30.000000, 46.000000)">
                    <g id="policeman">
                        <path d="M38,37.975 L38,38" id="Path" stroke="#FFFFFF" stroke-width="5" stroke-linecap="round" stroke-linejoin="round"></path>
                        <path d="M23,37.975 L23,38" id="Path" stroke="#FFFFFF" stroke-width="5" stroke-linecap="round" stroke-linejoin="round"></path>
                        <path d="M8,12.518544 L8,10.0495098 L30.5,5.54950976 L53,10.0495098 L53,12.518544 L48.1788083,24.5715233 C47.6660248,25.8534821 48.2895645,27.3084082 49.5715233,27.8211917 C50.8534821,28.3339752 52.3084082,27.7104355 52.8211917,26.4284767 L57.8211917,13.9284767 C57.939312,13.633176 58,13.3180486 58,13 L58,8 C58,6.80829745 57.1588508,5.78226041 55.9902903,5.54854831 L30.9902903,0.548548311 C30.6666349,0.48381723 30.3333651,0.48381723 30.0097097,0.548548311 L5.00970966,5.54854831 C3.84114917,5.78226041 3,6.80829745 3,8 L3,13 C3,13.3180486 3.060688,13.633176 3.17880827,13.9284767 L8.17880827,26.4284767 C8.69159179,27.7104355 10.1465179,28.3339752 11.4284767,27.8211917 C12.7104355,27.3084082 13.3339752,25.8534821 12.8211917,24.5715233 L8,12.518544 Z" id="Path" fill="#FFFFFF" fill-rule="nonzero"></path>
                        <path d="M30.5,20.5 C33.2614237,20.5 35.5,18.2614237 35.5,15.5 C35.5,12.7385763 33.2614237,10.5 30.5,10.5 C27.7385763,10.5 25.5,12.7385763 25.5,15.5 C25.5,18.2614237 27.7385763,20.5 30.5,20.5 Z" id="Oval" fill="#FFFFFF" fill-rule="nonzero"></path>
                        <path d="M8,25.5 L8,38 C8,50.4257119 18.0742881,60.5 30.5,60.5 C42.9257119,60.5 53,50.4257119 53,38 L53,25.5 C53,24.1192881 51.8807119,23 50.5,23 C49.1192881,23 48,24.1192881 48,25.5 L48,38 C48,47.6642881 40.1642881,55.5 30.5,55.5 C20.8357119,55.5 13,47.6642881 13,38 L13,25.5 C13,24.1192881 11.8807119,23 10.5,23 C9.11928813,23 8,24.1192881 8,25.5 Z" id="Path" fill="#FFFFFF" fill-rule="nonzero"></path>
                        <path d="M56.8029535,20.8052153 C56.5966572,20.9177303 56.1072136,21.1513112 55.3345968,21.4673638 C53.9954321,22.0151727 52.3729621,22.5682655 50.4669079,23.0880867 C44.9500661,24.5926457 38.29621,25.5 30.5,25.5 C22.70379,25.5 16.0499339,24.5926457 10.5330921,23.0880867 C8.62703787,22.5682655 7.00456791,22.0151727 5.66540323,21.4673638 C4.89278641,21.1513112 4.40334276,20.9177303 4.19704646,20.8052153 C2.98490035,20.1441048 1.46632582,20.5908074 0.805215322,21.8029535 C0.14410482,23.0150997 0.590807437,24.5336742 1.80295354,25.1947847 C2.16962599,25.3947697 2.82610031,25.7080638 3.77233114,26.0951362 C5.29791256,26.7192023 7.11307932,27.3379845 9.2175329,27.9119133 C15.1592849,29.5323543 22.2552725,30.5 30.5,30.5 C38.7447275,30.5 45.8407151,29.5323543 51.7824671,27.9119133 C53.8869207,27.3379845 55.7020874,26.7192023 57.2276689,26.0951362 C58.1738997,25.7080638 58.830374,25.3947697 59.1970465,25.1947847 C60.4091926,24.5336742 60.8558952,23.0150997 60.1947847,21.8029535 C59.5336742,20.5908074 58.0150997,20.1441048 56.8029535,20.8052153 Z" id="Path" fill="#FFFFFF" fill-rule="nonzero"></path>
                    </g>
                </g>
            </g>
        </g>
    </g>
</svg>