<?xml version="1.0" encoding="UTF-8"?>
<svg width="24px" height="24px" viewBox="0 0 24 24" version="1.1" xmlns="http://www.w3.org/2000/svg" xmlns:xlink="http://www.w3.org/1999/xlink">
    <!-- Generator: Sketch 57.1 (83088) - https://sketch.com -->
    <title>Icon / Mail</title>
    <desc>Created with Sketch.</desc>
    <defs>
        <path d="M20,0 C22.209139,0 24,1.790861 24,4 C24,6.209139 22.209139,8 20,8 C18.866523,8 17.8431605,7.52854397 17.1153116,6.771031 L7.86697151,11.9731494 C7.95375886,12.3008361 8,12.645018 8,13 C8,13.2162524 7.9828392,13.4284966 7.94980511,13.6354453 L16.852804,17.5308851 C17.585131,16.5987423 18.7226436,16 20,16 C22.209139,16 24,17.790861 24,20 C24,22.209139 22.209139,24 20,24 C17.790861,24 16,22.209139 16,20 C16,19.7833971 16.0172165,19.5708154 16.0503556,19.3635485 L7.14719601,15.4691149 C6.41486899,16.4012577 5.27735637,17 4,17 C1.790861,17 0,15.209139 0,13 C0,10.790861 1.790861,9 4,9 C5.13347697,9 6.15683948,9.47145603 6.88468845,10.228969 L16.1330285,5.0268506 C16.0462411,4.69916388 16,4.35498204 16,4 C16,1.790861 17.790861,0 20,0 Z M20,18 C19.1924608,18 18.4967047,18.4786003 18.180908,19.1676248 C18.1779761,19.1781991 18.173666,19.1885125 18.1691693,19.1987914 L18.1594955,19.2160343 C18.0568221,19.4567708 18,19.7217497 18,20 C18,21.1045695 18.8954305,22 20,22 C21.1045695,22 22,21.1045695 22,20 C22,18.8954305 21.1045695,18 20,18 Z M4,11 C2.8954305,11 2,11.8954305 2,13 C2,14.1045695 2.8954305,15 4,15 C4.80753919,15 5.50329527,14.5213997 5.81909202,13.8323752 C5.82202394,13.8218009 5.82633401,13.8114875 5.83083066,13.8012086 L5.84092851,13.7829708 C5.94333434,13.5424992 6,13.2778671 6,13 C6,12.6593909 5.91485519,12.3386685 5.76468881,12.057956 C5.75529304,12.047028 5.74774414,12.0342729 5.74044174,12.021292 L5.72537453,11.9878917 C5.37787479,11.396774 4.73527316,11 4,11 Z M20,2 C18.8954305,2 18,2.8954305 18,4 C18,4.34060907 18.0851448,4.6613315 18.2353112,4.94204404 C18.244707,4.95297203 18.2522559,4.96572707 18.2595583,4.97870804 L18.2746255,5.01210832 C18.6221252,5.60322599 19.2647268,6 20,6 C21.1045695,6 22,5.1045695 22,4 C22,2.8954305 21.1045695,2 20,2 Z" id="path-1"></path>
    </defs>
    <g id="Property-Page" stroke="none" stroke-width="1" fill="none" fill-rule="evenodd">
        <g transform="translate(-821.000000, -599.000000)" id="Icon-/-Share">
            <g transform="translate(803.000000, 581.000000)">
                <g id="Color-/-Smoke" transform="translate(18.000000, 18.000000)">
                    <mask id="mask-2" fill="white">
                        <use xlink:href="#path-1"></use>
                    </mask>
                    <use id="Mask" fill="#000000" fill-rule="nonzero" xlink:href="#path-1"></use>
                    <g mask="url(#mask-2)" fill="#FFFFFF" id="White">
                        <g transform="translate(-18.000000, -18.000000)">
                            <rect x="0" y="0" width="60" height="60"></rect>
                        </g>
                    </g>
                </g>
            </g>
        </g>
    </g>
</svg>