<?xml version="1.0" encoding="UTF-8"?>
<svg width="50px" height="50px" viewBox="0 0 50 50" version="1.1" xmlns="http://www.w3.org/2000/svg" xmlns:xlink="http://www.w3.org/1999/xlink">
    <!-- Generator: Sketch 57.1 (83088) - https://sketch.com -->
    <title>Icon/Amenities/Social</title>
    <desc>Created with Sketch.</desc>
    <g id="Icon/Amenities/Social" stroke="none" stroke-width="1" fill="none" fill-rule="evenodd">
        <path d="M20,32 C22.2092847,32 24,33.7907153 24,36 C24,36.5522847 23.5522847,37 23,37 C22.4477153,37 22,36.5522847 22,36 C22,34.9454991 21.184255,34.0818222 20.1492805,34.0054849 L20,34 L18,34 C16.8952847,34 16,34.8952847 16,36 C16,36.5522847 15.5522847,37 15,37 C14.4477153,37 14,36.5522847 14,36 C14,33.8576633 15.6838314,32.1089126 17.8003472,32.0048949 L18,32 L20,32 Z M32,32 C34.2092847,32 36,33.7907153 36,36 C36,36.5522847 35.5522847,37 35,37 C34.4477153,37 34,36.5522847 34,36 C34,34.9454991 33.184255,34.0818222 32.1492805,34.0054849 L32,34 L30,34 C28.8952847,34 28,34.8952847 28,36 C28,36.5522847 27.5522847,37 27,37 C26.4477153,37 26,36.5522847 26,36 C26,33.8576633 27.6838314,32.1089126 29.8003472,32.0048949 L30,32 L32,32 Z M31,25 C32.6568542,25 34,26.3431458 34,28 C34,29.6568542 32.6568542,31 31,31 C29.3431458,31 28,29.6568542 28,28 C28,26.3431458 29.3431458,25 31,25 Z M19,25 C20.6568542,25 22,26.3431458 22,28 C22,29.6568542 20.6568542,31 19,31 C17.3431458,31 16,29.6568542 16,28 C16,26.3431458 17.3431458,25 19,25 Z M31,27 C30.4477153,27 30,27.4477153 30,28 C30,28.5522847 30.4477153,29 31,29 C31.5522847,29 32,28.5522847 32,28 C32,27.4477153 31.5522847,27 31,27 Z M19,27 C18.4477153,27 18,27.4477153 18,28 C18,28.5522847 18.4477153,29 19,29 C19.5522847,29 20,28.5522847 20,28 C20,27.4477153 19.5522847,27 19,27 Z M32,20 C33.152372,20 34.2286456,20.4915042 34.9814635,21.3334536 C35.349587,21.7451618 35.3142545,22.3773401 34.9025464,22.7454635 C34.4908382,23.113587 33.8586599,23.0782545 33.4905365,22.6665464 C33.1511491,22.2869766 32.6830044,22.0507299 32.1718574,22.0072762 L32,22 L30,22 C29.4226173,22 28.8865606,22.2448022 28.5094635,22.6665464 C28.1413401,23.0782545 27.5091618,23.113587 27.0974536,22.7454635 C26.6857455,22.3773401 26.650413,21.7451618 27.0185365,21.3334536 C27.7211666,20.5476341 28.7055624,20.0670914 29.7706135,20.0065116 L30,20 L32,20 Z M20,20 C21.152372,20 22.2286456,20.4915042 22.9814635,21.3334536 C23.349587,21.7451618 23.3142545,22.3773401 22.9025464,22.7454635 C22.4908382,23.113587 21.8586599,23.0782545 21.4905365,22.6665464 C21.1134394,22.2448022 20.5773827,22 20,22 L20,22 L18,22 C17.4226173,22 16.8865606,22.2448022 16.5094635,22.6665464 C16.1413401,23.0782545 15.5091618,23.113587 15.0974536,22.7454635 C14.6857455,22.3773401 14.650413,21.7451618 15.0185365,21.3334536 C15.7713544,20.4915042 16.847628,20 18,20 L18,20 Z M31,13 C32.6568542,13 34,14.3431458 34,16 C34,17.6568542 32.6568542,19 31,19 C29.3431458,19 28,17.6568542 28,16 C28,14.3431458 29.3431458,13 31,13 Z M19,13 C20.6568542,13 22,14.3431458 22,16 C22,17.6568542 20.6568542,19 19,19 C17.3431458,19 16,17.6568542 16,16 C16,14.3431458 17.3431458,13 19,13 Z M31,15 C30.4477153,15 30,15.4477153 30,16 C30,16.5522847 30.4477153,17 31,17 C31.5522847,17 32,16.5522847 32,16 C32,15.4477153 31.5522847,15 31,15 Z M19,15 C18.4477153,15 18,15.4477153 18,16 C18,16.5522847 18.4477153,17 19,17 C19.5522847,17 20,16.5522847 20,16 C20,15.4477153 19.5522847,15 19,15 Z" id="Combined-Shape" fill="#000000" fill-rule="nonzero"></path>
    </g>
</svg>