<?xml version="1.0" encoding="UTF-8"?>
<svg width="50px" height="50px" viewBox="0 0 50 50" version="1.1" xmlns="http://www.w3.org/2000/svg" xmlns:xlink="http://www.w3.org/1999/xlink">
    <!-- Generator: Sketch 57.1 (83088) - https://sketch.com -->
    <title>Icon/Amenities/Spa</title>
    <desc>Created with Sketch.</desc>
    <defs>
        <path d="M16.3178578,23.2579494 C17.7235739,23.4819652 19.1176395,23.9071685 20.4282269,24.5851579 C21.4267322,25.1017018 22.3424495,25.7495827 23.1245675,26.5124507 C23.8679395,27.1789626 24.4856231,27.9147583 24.9962949,28.7157968 C25.5036081,27.9172983 26.113978,27.1889274 26.8391085,26.5417965 C27.6538295,25.7479065 28.5730375,25.09843 29.57577,24.581409 C30.8836897,23.9070298 32.2748243,23.4843402 33.6778108,23.2619952 C34.5941861,23.1167682 35.377274,23.0756423 35.9582888,23.091998 C36.0252267,23.0942285 36.0252267,23.0942285 36.04879,23.0954477 C36.5556704,23.1227523 36.96168,23.5254905 36.9930844,24.0321335 L36.994685,24.0620289 C36.9951837,24.0733485 36.995814,24.0897957 36.9970744,24.12269 C37.015069,24.6781052 36.9704032,25.4225279 36.8127436,26.2918273 C36.5719514,27.619501 36.1142405,28.9353542 35.3852356,30.1702457 C34.8279107,31.1143213 34.1290232,31.9779272 33.3075383,32.7125475 C31.2569455,34.7087405 28.6764349,35.7254201 25.9732925,36.0584941 L25.9601685,35.9519835 C25.3781737,36.1284373 24.6210525,36.1263275 24.0392094,35.9480153 L24.0265699,36.0504771 C21.3321062,35.7180933 18.7497542,34.6973462 16.7297071,32.7287954 C15.8809222,31.9683341 15.1836747,31.1082758 14.626734,30.1685058 C13.8932908,28.9309096 13.4324839,27.6120509 13.1896431,26.2815659 C13.0308914,25.4117913 12.9855787,24.6680235 13.0030709,24.1148481 C13.005438,24.0515624 13.005438,24.0515624 13.0068287,24.0275507 C13.0375727,23.5198894 13.4444596,23.1161668 13.9523455,23.0893872 C13.9752258,23.088229 13.9752258,23.088229 14.0397967,23.0861246 C14.6186081,23.0701904 15.401037,23.1118442 16.3178578,23.2579494 Z M24.4315434,34.1 C24.5382734,34.2215844 24.7422503,34.4907222 25.1485121,35.0267652 C25.1354806,34.6097578 24.8669014,34.2534493 24.4881041,34.1171144 L24.4315434,34.1 Z M25.6345434,34.089 L25.6247357,34.0913283 C25.4271587,34.1341019 25.3114052,34.2075338 25.6306888,34.0935499 L25.6306888,34.0935499 L25.6345434,34.089 Z M15.0417427,25.1161992 C15.0669023,25.3633278 15.1044095,25.6335597 15.1571393,25.9224575 C15.359708,27.0322981 15.7429022,28.1290244 16.3472849,29.1488468 C16.8023744,29.9167551 17.3706957,30.6177823 18.0946994,31.2676094 C19.7901754,32.9188489 21.9741817,33.7821387 24.2714301,34.0655229 L24.3821722,34.0855058 L24.3821722,34.0855058 L24.4315434,34.1 L24.4085434,34.075 L24.4411951,34.0764588 L24.4411951,34.0764588 C24.5855701,34.0801901 24.7871607,34.082496 25.0027259,34.0830028 C25.2120306,34.0834948 25.4172403,34.0822404 25.5671792,34.0795374 L25.6326923,34.0781764 L25.6326923,34.0781764 L25.6445434,34.078 L25.6716382,34.0489858 C25.7291204,33.9900086 25.7354587,34.0044728 25.7310059,34.0467751 L25.7265434,34.073 L25.7287075,34.0735059 C28.0349382,33.7893383 30.2175082,32.9294409 31.9428197,31.2511037 C32.6384806,30.628022 33.2077892,29.9245349 33.6629528,29.1535146 C34.2634756,28.1362643 34.6440126,27.0422747 34.8448467,25.9349216 C34.8977658,25.6431378 34.935207,25.3702227 34.9601172,25.1207229 C34.6659342,25.1442636 34.3406918,25.181902 33.9908635,25.2373427 C32.7861072,25.4282723 31.5963706,25.789768 30.4923301,26.3590247 C29.6604246,26.7879652 28.9031698,27.3230119 28.2032614,28.0037183 C27.2671814,28.8400581 26.5757674,29.8155886 26.0689693,30.9284335 L25.9235434,31.262 L25.9633861,31.1460111 C26.0080812,30.9811657 26.0109987,30.803901 25.9652753,30.6308014 L25.9217553,30.5020169 C25.661903,29.8752532 25.3555844,29.2793774 24.9962949,28.7157968 C24.638961,29.2782317 24.3327566,29.875459 24.0735918,30.5035954 C23.9833158,30.7223968 23.9763826,30.9548076 24.0381248,31.1655559 L24.0735434,31.266 L23.9397306,30.9578903 C23.4296862,29.8334469 22.7319125,28.8464876 21.7593146,27.9734043 C21.0927224,27.3242294 20.3379875,26.7902455 19.5092749,26.3615382 C18.4027407,25.7891091 17.2103194,25.4254092 16.0031081,25.2330273 C15.6561583,25.1777371 15.3335877,25.1400042 15.0417427,25.1161992 Z M25.7135434,34.075 L25.6865556,34.0766882 L25.6865556,34.0766882 L25.6445434,34.078 L25.6345434,34.089 L25.6756302,34.0813998 L25.6756302,34.0813998 L25.7135434,34.075 Z M25.7265434,34.073 L25.7135434,34.075 L25.7273622,34.0751322 L25.7273622,34.0751322 L25.7265434,34.073 Z M24.3072519,34.0717544 C24.3187758,34.0165087 24.3257607,33.9872973 24.4062597,34.0725513 L24.4085434,34.075 L24.3882121,34.0749412 C24.3718479,34.0744211 24.3568266,34.0738897 24.343287,34.0733557 Z M25.0595434,31.881 L25.0058518,31.8852281 L25.0058518,31.8852281 L24.9985434,31.885 L25.0595434,31.881 Z M24.6755434,31.829 L24.7691097,31.8568036 C24.8456933,31.8750334 24.9250752,31.8847174 25.0058518,31.8852281 L24.9985434,31.885 L24.9918569,31.8852401 C24.9147054,31.8859489 24.8302877,31.8753822 24.7448163,31.8526772 L24.6755434,31.829 Z M25.1305434,31.875 L25.1220925,31.8775248 L25.0595434,31.881 L25.1305434,31.875 Z M25.1705434,31.868 L25.1347528,31.8757291 L25.1347528,31.8757291 L25.1305434,31.875 L25.1705434,31.868 Z M25.2605434,31.849 L25.2523181,31.8522437 L25.1705434,31.868 L25.2605434,31.849 Z M24.6455434,31.819 L24.6755434,31.829 L24.6565084,31.8231277 L24.6565084,31.8231277 L24.6455434,31.819 Z M24.5625434,31.783 L24.6455434,31.819 L24.6165954,31.8094082 L24.6165954,31.8094082 L24.5625434,31.783 Z M25.7035434,31.592 L25.7009211,31.5966311 C25.6467223,31.6518379 25.5793583,31.7041789 25.5026282,31.7486283 L25.3825434,31.807 L25.4992073,31.7491353 C25.5369945,31.7271421 25.5736657,31.7025683 25.6090074,31.6754759 L25.7035434,31.592 Z M24.5405434,31.773 L24.5625434,31.783 L24.549157,31.7771034 L24.549157,31.7771034 L24.5405434,31.773 Z M24.4645434,31.729 L24.5405434,31.773 L24.5113559,31.7587092 L24.5113559,31.7587092 L24.4645434,31.729 Z M24.4385434,31.712 L24.4645434,31.729 L24.4481082,31.719201 L24.4481082,31.719201 L24.4385434,31.712 Z M24.3735434,31.664 L24.4385434,31.712 L24.4147103,31.6975414 L24.4147103,31.6975414 L24.3735434,31.664 Z M24.3445434,31.64 L24.3735434,31.664 L24.3544147,31.6498909 L24.3544147,31.6498909 L24.3445434,31.64 Z M24.2965434,31.596 L24.3445434,31.64 L24.327066,31.6268845 L24.327066,31.6268845 L24.2965434,31.596 Z M25.7335434,31.558 L25.7108309,31.5867045 L25.7108309,31.5867045 L25.7055434,31.59 L25.7335434,31.558 Z M24.2285434,31.521 L24.2595434,31.558 L24.2488305,31.5477182 L24.2488305,31.5477182 L24.2285434,31.521 Z M24.1435434,31.402 L24.1895434,31.474 L24.1804112,31.4610225 L24.1804112,31.4610225 L24.1435434,31.402 Z M25.8635434,31.384 L25.862122,31.3885198 L25.8145434,31.458 L25.8635434,31.384 Z M24.0955434,31.312 L24.1245434,31.372 L24.1222156,31.367777 L24.0955434,31.312 Z M24.0742447,31.2679831 L24.0746509,31.2689616 L24.0955434,31.312 L24.0742447,31.2679831 L24.0742447,31.2679831 Z M25.5822748,14.104008 C26.2290283,14.5672207 27.1579156,15.4166645 28.0833359,16.6298902 C29.1162276,17.9840107 29.8875796,19.4978795 30.2847168,21.1630042 C30.4128445,21.7002208 30.0812125,22.239589 29.5439958,22.3677168 C29.0067792,22.4958445 28.467411,22.1642125 28.3392832,21.6269958 C28.0119667,20.2546165 27.366522,18.9878556 26.4931412,17.8428538 C26.0307522,17.2366621 25.5346537,16.7043064 25.0402294,16.2521679 C25.0266423,16.2397429 25.013211,16.2275145 24.9999391,16.2154834 C24.9867233,16.2274621 24.9733494,16.2396364 24.959821,16.2520057 C24.4655004,16.7039763 23.9695035,17.236176 23.5072072,17.8422396 C22.6334419,18.9877328 21.9878653,20.2552411 21.660796,21.6286634 C21.5328518,22.1659238 20.993597,22.4977402 20.4563366,22.369796 C19.9190762,22.2418518 19.5872598,21.702597 19.715204,21.1653366 C20.1120502,19.4989084 20.8836053,17.9840572 21.9170189,16.6292675 C22.8423372,15.4161891 23.7711322,14.566967 24.4178405,14.1039254 C24.765976,13.8546612 25.2341746,13.8546944 25.5822748,14.104008 Z M25.3825434,31.807 L25.3809831,31.8087553 L25.3485434,31.819 L25.3825434,31.807 Z M24.2691289,31.5696437 L24.2595434,31.558 L24.2865434,31.586 L24.2691289,31.5696437 L24.2691289,31.5696437 Z M25.7945434,31.488 L25.7877722,31.4988119 L25.7877722,31.4988119 L25.7435434,31.547 L25.7945434,31.488 Z M24.1279913,31.3782194 L24.1245434,31.372 L24.1345434,31.388 L24.1279913,31.3782194 L24.1279913,31.3782194 Z" id="path-1"></path>
    </defs>
    <g id="Icon/Amenities/Spa" stroke="none" stroke-width="1" fill="none" fill-rule="evenodd">
        <mask id="mask-2" fill="white">
            <use xlink:href="#path-1"></use>
        </mask>
        <use id="Mask" fill="#000000" fill-rule="nonzero" xlink:href="#path-1"></use>
    </g>
</svg>