<?xml version="1.0" encoding="UTF-8"?>
<svg width="50px" height="50px" viewBox="0 0 50 50" version="1.1" xmlns="http://www.w3.org/2000/svg" xmlns:xlink="http://www.w3.org/1999/xlink">
    <!-- Generator: Sketch 57.1 (83088) - https://sketch.com -->
    <title>Icon/Amenities/Swimming Pool</title>
    <desc>Created with Sketch.</desc>
    <defs>
        <path d="M29.9999998,32 C32.2861979,32 34.5007892,32.8996179 36.5865329,34.4100746 C37.0338423,34.7340078 37.1338586,35.3592234 36.8099254,35.8065329 C36.4859922,36.2538423 35.8607766,36.3538586 35.4134671,36.0299254 C33.6396687,34.7453736 31.8047808,34 29.9999998,34 C28.1058921,34 27.0703845,34.3328417 24.9472136,35.3944272 C22.5703845,36.5828417 21.2725588,37 18.9999998,37 C16.7305749,37 14.8282787,36.1086121 13.2989406,34.6051029 C12.9051048,34.2179185 12.8997127,33.5847765 13.2868971,33.1909406 C13.6740815,32.7971048 14.3072235,32.7917127 14.7010594,33.1788971 C15.8783087,34.336264 17.2947769,35 18.9999998,35 C20.8941079,35 21.9296155,34.6671583 24.0527864,33.6055728 C26.4296155,32.4171583 27.7274412,32 29.9999998,32 Z M35,13 C35.5522847,13 36,13.4477153 36,14 C36,14.5522847 35.5522847,15 35,15 C32.7912847,15 31,16.7912847 31,19 L31,29 C31,29.5522847 30.5522847,30 30,30 C29.4477153,30 29,29.5522847 29,29 L28.9999998,28 L19.9999998,28 L20,32 C20,32.5522847 19.5522847,33 19,33 C18.4477153,33 18,32.5522847 18,32 L18,19 C18,15.6867153 20.6867153,13 24,13 C24.5522847,13 25,13.4477153 25,14 C25,14.5522847 24.5522847,15 24,15 C21.7912847,15 20,16.7912847 20,19 L19.9999998,20 L28.9999998,20 L29,19 C29,15.6867153 31.6867153,13 35,13 Z M28.9999998,22 L19.9999998,22 L19.9999998,26 L28.9999998,26 L28.9999998,22 Z" id="path-1"></path>
    </defs>
    <g id="Icon/Amenities/Swimming-Pool" stroke="none" stroke-width="1" fill="none" fill-rule="evenodd">
        <mask id="mask-2" fill="white">
            <use xlink:href="#path-1"></use>
        </mask>
        <use id="Mask" fill="#000000" fill-rule="nonzero" xlink:href="#path-1"></use>
    </g>
</svg>