<?xml version="1.0" encoding="UTF-8"?>
<svg width="61px" height="46px" viewBox="0 0 61 46" version="1.1" xmlns="http://www.w3.org/2000/svg" xmlns:xlink="http://www.w3.org/1999/xlink">
    <!-- Generator: Sketch 57.1 (83088) - https://sketch.com -->
    <title>travel-card</title>
    <desc>Created with Sketch.</desc>
    <g id="Citizenship" stroke="none" stroke-width="1" fill="none" fill-rule="evenodd">
        <g transform="translate(-165.000000, -3494.000000)" fill="#FFFFFF" fill-rule="nonzero" id="Group-4">
            <g transform="translate(135.000000, 3441.000000)">
                <g id="travel-card" transform="translate(30.000000, 53.000000)">
                    <path d="M53,0.5 C57.1432119,0.5 60.5,3.85678813 60.5,8 L60.5,38 C60.5,42.1432119 57.1432119,45.5 53,45.5 L8,45.5 C3.85678813,45.5 0.5,42.1432119 0.5,38 L0.5,8 C0.5,3.85678813 3.85678813,0.5 8,0.5 L53,0.5 Z M53,5.5 L8,5.5 C6.61821187,5.5 5.5,6.61821187 5.5,8 L5.5,38 C5.5,39.3817881 6.61821187,40.5 8,40.5 L53,40.5 C54.3817881,40.5 55.5,39.3817881 55.5,38 L55.5,8 C55.5,6.61821187 54.3817881,5.5 53,5.5 Z M29.8878545,11.3609344 L30,11.5 L36.75,20.5 L45.5,20.5 C46.8807119,20.5 48,21.6192881 48,23 C48,24.3254834 46.9684641,25.4100387 45.6643757,25.4946823 L45.5,25.5 L36.75,25.5 L30,34.5 C29.2075914,35.5565447 27.7394345,35.8072964 26.6465981,35.1021022 L26.5,35 C25.3954305,34.1715729 25.1715729,32.6045695 26,31.5 L26,31.5 L30.5,25.5 L22.045,25.5 L20.236068,29.118034 C19.6443229,30.3015241 18.2405174,30.8105527 17.0376403,30.3074568 L16.881966,30.236068 C15.6984759,29.6443229 15.1894473,28.2405174 15.6925432,27.0376403 L15.763932,26.881966 L17.704915,23 L15.763932,19.118034 C15.1464589,17.8830877 15.6470198,16.3814051 16.881966,15.763932 C18.0654562,15.1721869 19.4939177,15.6072474 20.1543618,16.7314504 L20.236068,16.881966 L22.045,20.5 L30.5,20.5 L26,14.5 C25.2075914,13.4434553 25.3779538,11.9638141 26.3609344,11.1121455 L26.5,11 C27.5565447,10.2075914 29.0361859,10.3779538 29.8878545,11.3609344 Z" id="Combined-Shape"></path>
                </g>
            </g>
        </g>
    </g>
</svg>