<?xml version="1.0" encoding="UTF-8"?>
<svg width="50px" height="50px" viewBox="0 0 50 50" version="1.1" xmlns="http://www.w3.org/2000/svg" xmlns:xlink="http://www.w3.org/1999/xlink">
    <!-- Generator: Sketch 57.1 (83088) - https://sketch.com -->
    <title>Icon/Amenities/Turkish Bath</title>
    <desc>Created with Sketch.</desc>
    <defs>
        <path d="M27.5,13 C29.1717066,13 30.6006141,14.1810484 30.929948,15.8007468 C31.0399926,16.3419571 30.6904636,16.8699035 30.1492532,16.979948 C29.6080429,17.0899926 29.0800965,16.7404636 28.970052,16.1992532 C28.8292705,15.5068752 28.2160206,15 27.5,15 C26.6712847,15 26,15.6712847 26,16.5 L25.999,24 L31,24 L31,22 L30,22 C29.4477153,22 29,21.5522847 29,21 C29,20.4477153 29.4477153,20 30,20 L34,20 C34.5522847,20 35,20.4477153 35,21 C35,21.5522847 34.5522847,22 34,22 L33,22 L33,24 L36,24 C36.5522847,24 37,24.4477153 37,25 C37,25.5522847 36.5522847,26 36,26 L35,26 L35,27 C35,30.8662847 31.8662847,34 28,34 L28,36 C28,36.5522847 27.5522847,37 27,37 C26.4477153,37 26,36.5522847 26,36 L26,34 L24,34 L24,36 C24,36.5522847 23.5522847,37 23,37 C22.4477153,37 22,36.5522847 22,36 L22,34 C18.1337153,34 15,30.8662847 15,27 L15,26 L14,26 C13.4477153,26 13,25.5522847 13,25 C13,24.4477153 13.4477153,24 14,24 L17,24 L17,22 L16,22 C15.4477153,22 15,21.5522847 15,21 C15,20.4477153 15.4477153,20 16,20 L20,20 C20.5522847,20 21,20.4477153 21,21 C21,21.5522847 20.5522847,22 20,22 L19,22 L19,24 L23.999,24 L24,16.5 C24,14.5667153 25.5667153,13 27.5,13 Z M33,26 L17,26 L17,27 C17,29.7617153 19.2382847,32 22,32 L28,32 C30.7617153,32 33,29.7617153 33,27 L33,26 Z" id="path-1"></path>
    </defs>
    <g id="Icon/Amenities/Turkish-Bath" stroke="none" stroke-width="1" fill="none" fill-rule="evenodd">
        <mask id="mask-2" fill="white">
            <use xlink:href="#path-1"></use>
        </mask>
        <use id="Mask" fill="#000000" fill-rule="nonzero" xlink:href="#path-1"></use>
    </g>
</svg>