<?xml version="1.0" encoding="UTF-8"?>
<svg width="17px" height="21px" viewBox="0 0 17 21" version="1.1" xmlns="http://www.w3.org/2000/svg" xmlns:xlink="http://www.w3.org/1999/xlink">
    <!-- Generator: Sketch 57.1 (83088) - https://sketch.com -->
    <title>Icon / Arrow</title>
    <desc>Created with Sketch.</desc>
    <defs>
        <path d="M7.69106644,0.0485861019 C7.89147821,-0.0161953673 8.10852179,-0.0161953673 8.30893356,0.0485861019 C8.31937837,0.0520198844 8.3299074,0.0556321697 8.34035545,0.0594135851 C8.35875492,0.065966006 8.37661155,0.0729990723 8.394292,0.0805650354 C8.41315155,0.0888353122 8.43173813,0.0975112157 8.45000341,0.106730859 C8.46225696,0.112646204 8.47436807,0.119060918 8.48636922,0.125741862 C8.50968972,0.139041739 8.5325318,0.15301453 8.5547463,0.167853206 C8.56515563,0.174479177 8.57526089,0.181508351 8.58526082,0.188745658 C8.60612102,0.204143362 8.62643899,0.220060283 8.64610448,0.236723556 C8.68361024,0.268364009 8.71918216,0.303330212 8.75257669,0.341495392 L8.67915526,0.265998995 C8.70009805,0.285386223 8.72020954,0.305658632 8.73943027,0.326756768 L8.75257669,0.341495392 L15.7525767,8.34149539 C16.1162587,8.75713202 16.0741412,9.38889464 15.6585046,9.75257669 C15.242868,10.1162587 14.6111054,10.0741412 14.2474233,9.65850461 L14.2474233,9.65850461 L8.9999863,3.661 L9,19 C9,19.5128358 8.61395981,19.9355072 8.11662113,19.9932723 L8,20 C7.44771525,20 7,19.5522847 7,19 L7,19 L6.9999863,3.661 L1.75257669,9.65850461 C1.41687018,10.0421692 0.852739997,10.107569 0.441027699,9.82931447 L0.341495392,9.75257669 C-0.0741412394,9.38889464 -0.116258747,8.75713202 0.247423305,8.34149539 L0.247423305,8.34149539 L7.24742331,0.341495392 C7.25180145,0.336491797 7.25621702,0.331543186 7.2606692,0.326649559 C7.27979046,0.305658632 7.29990195,0.285386223 7.32084474,0.265998995 C7.3316791,0.255791807 7.34264629,0.246052578 7.35377406,0.236596782 C7.37356101,0.220060283 7.39387898,0.204143362 7.41480569,0.189016531 C7.42473911,0.181508351 7.43484437,0.174479177 7.44504889,0.167658134 C7.4674682,0.15301453 7.49031028,0.139041739 7.51373168,0.125983087 C7.52563193,0.119060918 7.53774304,0.112646204 7.54995534,0.10649772 C7.56826187,0.0975112157 7.58684845,0.0888353122 7.60573507,0.08072442 C7.62338845,0.0729990723 7.64124508,0.065966006 7.65925307,0.0594658365 C7.66067599,0.0590402827 7.66170821,0.0586686285 7.66274122,0.0582986258 Z" id="path-1"></path>
    </defs>
    <g id="Citizenship" stroke="none" stroke-width="1" fill="none" fill-rule="evenodd">
        <g transform="translate(-1189.000000, -4707.000000)" id="Form">
            <g transform="translate(133.000000, 4461.000000)">
                <g id="Up" transform="translate(1020.000000, 219.000000)">
                    <g id="Icon-/-Arrow" transform="translate(14.500000, 7.500000)">
                        <g id="arrow-up" transform="translate(22.000000, 20.000000)">
                            <g id="Color-/-Smoke">
                                <mask id="mask-2" fill="white">
                                    <use xlink:href="#path-1"></use>
                                </mask>
                                <use id="Mask" fill="#000000" fill-rule="nonzero" xlink:href="#path-1"></use>
                                <g id="Color-/-Blue" mask="url(#mask-2)" fill="#252851">
                                    <g transform="translate(-22.000000, -20.000000)" id="White">
                                        <rect x="0" y="0" width="60" height="60"></rect>
                                    </g>
                                </g>
                            </g>
                        </g>
                    </g>
                </g>
            </g>
        </g>
    </g>
</svg>