<?xml version="1.0" encoding="UTF-8"?>
<svg width="50px" height="50px" viewBox="0 0 50 50" version="1.1" xmlns="http://www.w3.org/2000/svg" xmlns:xlink="http://www.w3.org/1999/xlink">
    <!-- Generator: Sketch 57.1 (83088) - https://sketch.com -->
    <title>Icon/Amenities/Walking Paths</title>
    <desc>Created with Sketch.</desc>
    <defs>
        <path d="M29.7693825,17 C32.5259265,17 34.3947463,19.1585507 35.8006846,22.4607915 C36.0802331,23.1184178 36.2257383,24.054724 36.304519,25.3489786 C36.4003174,26.9159669 36.4900489,28.1437074 36.5978849,29.2397449 L36.5822367,29.1501562 C36.5930326,29.197384 36.6002908,29.2445952 36.6041854,29.2915122 C36.6777193,30.0439995 36.7611534,30.7350606 36.8612513,31.433015 C37.101148,33.1052468 37.0882512,34.3033176 36.6111817,35.0580834 C36.072114,35.9091732 35.2405773,36.5315398 34.2244723,36.8301806 C33.7948957,36.9430355 33.3835554,37 32.9893825,37 C31.103511,37 29.8256147,35.7247124 29.4250256,33.7912316 C29.3817247,33.5760005 29.2823509,32.6685182 29.2064999,31.8396525 C29.1429967,31.1420243 28.9861758,30.4923995 28.732133,29.900972 C28.7238144,29.8812702 28.7189505,29.8707438 28.7209345,29.87441 C28.4798363,29.4221309 28.2360639,29.0156641 27.7919955,28.3088275 C27.6436437,28.0729781 27.566162,27.9497184 27.4941869,27.8345794 C26.3746721,26.0436846 25.8488282,24.9288609 25.6067652,23.4690527 C25.1655841,20.7995062 26.0461819,18.0462492 28.4853995,17.1761319 L28.5851063,17.1463141 C28.9861649,17.0487922 29.381507,17 29.7693825,17 Z M34.7341018,30.5986289 L31.1725747,31.4117453 C31.1821713,31.493395 31.1907183,31.575442 31.1982214,31.6578689 C31.2653145,32.3910305 31.3631547,33.2845091 31.3845851,33.3911149 C31.6062667,34.4610369 32.1463324,35 32.9893825,35 C33.2054859,35 33.4470954,34.9665407 33.6880115,34.9036947 C34.2128888,34.7491973 34.6435657,34.4268556 34.9210832,33.988707 C35.0399718,33.8006146 35.0497742,32.8898597 34.8815167,31.7170061 C34.8281066,31.3445932 34.7793396,30.974946 34.7341018,30.5986289 Z M17.8633825,13 C20.0981308,13 21.8905934,14.8867311 22.6945827,17.1926278 C23.2357888,18.7440853 23.2915958,19.941557 23.1522806,22.639244 C23.1023269,23.6065449 23.0843766,24.0915148 23.0894383,24.6295463 L23.0915012,24.767019 C23.0917983,24.7690939 23.0925709,24.7794395 23.094473,24.8056617 C23.1309302,25.2167477 23.2050944,25.6300991 23.3152107,26.042348 L23.3260777,26.0812183 L23.4134927,26.3799631 C23.5125248,26.6942461 23.6322593,27.0073485 23.7719136,27.3177687 C24.0357309,27.9025435 24.220137,28.3289786 24.2665555,28.4801997 C25.0015845,30.8746093 24.0660131,33.007948 21.5276595,33.8272106 C21.1334163,33.9418761 20.7324599,34 20.3343825,34 C19.6963634,34 19.0754026,33.8516499 18.5147396,33.5626207 C17.663793,33.1234224 17.0248989,32.0468975 16.4260637,30.4774385 C15.657822,28.4636754 15.1258653,27.1641455 14.5158787,25.8704656 C13.6736628,24.0841845 13.1991158,22.8391524 13.1075061,21.9400988 C12.6651115,17.5866538 13.5262305,14.2698849 16.8488436,13.1337851 L16.9463225,13.1058866 C17.2521204,13.0349209 17.5587589,13 17.8633825,13 Z M21.7065833,27.5572016 L17.932117,28.8222732 C18.0477271,29.1197189 18.168128,29.4327798 18.2946828,29.7645129 C18.7160393,30.8688265 19.1840295,31.6573815 19.4315931,31.7851563 C19.7062841,31.9267632 20.0128374,32 20.3343825,32 C20.5417797,32 20.7548013,31.9691197 20.9410774,31.915389 C22.3501845,31.460344 22.7849493,30.4689705 22.3544114,29.0664609 L22.3537086,29.0641616 C22.3465368,29.0405971 22.1508624,28.5880068 21.948423,28.1392802 C21.8616888,27.9464898 21.7810263,27.7524077 21.7065833,27.5572016 Z M29.7693825,19 C29.5592432,19 29.3398892,19.0252279 29.1105159,19.0772629 C27.8349048,19.5696695 27.2810779,21.3341975 27.5799118,23.1424152 C27.7674066,24.2731383 28.2006033,25.191544 29.190096,26.7744415 C29.2605191,26.8870977 29.3364016,27.0078134 29.4855156,27.2448774 C29.9533408,27.9895283 30.2163619,28.4280905 30.4838536,28.9299002 C30.515134,28.9879923 30.5439275,29.0503067 30.5721925,29.1172999 C30.621569,29.2322418 30.6681343,29.3486318 30.7119112,29.4663996 L34.5301744,28.5946259 C34.4522796,27.6866155 34.3819052,26.6758741 34.3082299,25.4707571 C34.2426901,24.3940307 34.1236439,23.6279848 33.9603011,23.2437273 C32.8452792,20.6247855 31.4385801,19 29.7693825,19 Z M17.8633825,15 C17.726131,15 17.5871933,15.0142273 17.4464909,15.043534 C15.3748828,15.7870344 14.7435183,18.2568681 15.0972312,21.7376292 C15.1571959,22.3261197 15.5845449,23.447322 16.3248788,25.0175185 C16.6207018,25.6449099 16.897423,26.2699078 17.1876626,26.9656728 L21.1827131,25.6228291 C21.1479457,25.4076029 21.1208799,25.1917116 21.1016979,24.975362 C21.0950962,24.8977827 21.0913825,24.8402205 21.0915244,24.7948448 C21.0806432,24.1489689 21.0981206,23.6363864 21.1549423,22.5360965 C21.2810685,20.0937987 21.2336746,19.07685 20.8061323,17.8512286 C20.2505221,16.2577005 19.0556613,15 17.8633825,15 Z" id="path-1"></path>
    </defs>
    <g id="Icon/Amenities/Walking-Paths" stroke="none" stroke-width="1" fill="none" fill-rule="evenodd">
        <mask id="mask-2" fill="white">
            <use xlink:href="#path-1"></use>
        </mask>
        <use id="Mask" fill="#000000" fill-rule="nonzero" xlink:href="#path-1"></use>
    </g>
</svg>