<?xml version="1.0" encoding="UTF-8"?>
<svg width="24px" height="22px" viewBox="0 0 24 22" version="1.1" xmlns="http://www.w3.org/2000/svg" xmlns:xlink="http://www.w3.org/1999/xlink">
    <!-- Generator: Sketch 57.1 (83088) - https://sketch.com -->
    <title>Icon / Price</title>
    <desc>Created with Sketch.</desc>
    <defs>
        <path d="M21,0 C21.5522847,0 22,0.44771525 22,1 C22,1.55228475 21.5522847,2 21,2 L21,2 L3,2 C2.44728475,2 2,2.44728475 2,3 C2,3.55271525 2.44728475,4 3,4 L3,4 L21,4 C22.6572847,4 24,5.34271525 24,7 L24,7 L24,19 C24,20.6572847 22.6572847,22 21,22 L21,22 L5,22 C2.23871525,22 0,19.7612847 0,17 L0,17 L0,3 C0,1.34271525 1.34271525,0 3,0 L3,0 Z M2,5.82939991 L2,17 C2,18.6567153 3.34328475,20 5,20 L5,20 L21,20 C21.5527153,20 22,19.5527153 22,19 L22,19 L22,7 C22,6.44728475 21.5527153,6 21,6 L21,6 L3,6 C2.64933696,6 2.31275715,5.93988683 2,5.82939991 L2,5.82939991 Z M17,10 C18.6568542,10 20,11.3431458 20,13 C20,14.6568542 18.6568542,16 17,16 C15.3431458,16 14,14.6568542 14,13 C14,11.3431458 15.3431458,10 17,10 Z M17,12 C16.4477153,12 16,12.4477153 16,13 C16,13.5522847 16.4477153,14 17,14 C17.5522847,14 18,13.5522847 18,13 C18,12.4477153 17.5522847,12 17,12 Z" id="path-1"></path>
    </defs>
    <g id="Symbols" stroke="none" stroke-width="1" fill="none" fill-rule="evenodd" opacity="0.5">
        <g id="Seacrh-Box-S" transform="translate(-577.000000, -39.000000)">
            <g id="Seacrh-Box">
                <g id="Icon-/-Wallet" transform="translate(559.000000, 20.000000)">
                    <g id="wallet" transform="translate(18.000000, 19.000000)">
                        <g id="Color-/-Smoke">
                            <mask id="mask-2" fill="white">
                                <use xlink:href="#path-1"></use>
                            </mask>
                            <use id="Mask" fill="#000000" fill-rule="nonzero" xlink:href="#path-1"></use>
                            <g mask="url(#mask-2)" fill="#FFFFFF" id="White">
                                <g transform="translate(-18.000000, -19.000000)">
                                    <rect x="0" y="0" width="60" height="60"></rect>
                                </g>
                            </g>
                        </g>
                    </g>
                </g>
            </g>
        </g>
    </g>
</svg>