<?xml version="1.0" encoding="UTF-8"?>
<svg width="23px" height="23px" viewBox="0 0 23 23" version="1.1" xmlns="http://www.w3.org/2000/svg" xmlns:xlink="http://www.w3.org/1999/xlink">
    <!-- Generator: Sketch 57.1 (83088) - https://sketch.com -->
    <title>Fill 1</title>
    <desc>Created with Sketch.</desc>
    <g id="Symbols" stroke="none" stroke-width="1" fill="none" fill-rule="evenodd">
        <g id="Header-Top" transform="translate(-1159.000000, -29.000000)" fill="#25D366">
            <g id="Group-2" transform="translate(1150.000000, 20.000000)">
                <g id="Group-3" transform="translate(9.000000, 9.000000)">
                    <path d="M16.8714787,13.4582665 C16.5963351,13.3203888 15.2344415,12.6569367 14.9815638,12.5670165 C14.7268511,12.4747718 14.542484,12.4282824 14.358117,12.7034261 C14.1758298,12.9785697 13.645117,13.5963888 13.4824043,13.7807559 C13.3212819,13.9642665 13.1601596,13.9875112 12.8834255,13.8520803 C12.6068138,13.7126122 11.7147074,13.4247452 10.6576862,12.4898197 C9.83531383,11.7610378 9.28001064,10.8639154 9.11937766,10.5887718 C8.95678723,10.3143622 9.10298404,10.165841 9.24012766,10.0295537 C9.36393617,9.90586755 9.51673936,9.70853245 9.6554734,9.54741011 C9.79408511,9.38787819 9.83984043,9.2747133 9.93196277,9.09095798 C10.0227394,8.90720266 9.97710638,8.7475484 9.90871809,8.60881436 C9.83984043,8.4709367 9.2874734,7.12176649 9.0556383,6.57196862 C8.8256383,6.02351649 8.59551596,6.1140484 8.43341489,6.1140484 C8.27229255,6.1140484 8.08792553,6.09166011 7.90355851,6.09166011 C7.71906915,6.09166011 7.41921277,6.15833564 7.16670213,6.43347926 C6.91406915,6.70862287 6.19886702,7.372075 6.19886702,8.72283564 C6.19886702,10.0751867 7.18896809,11.3789686 7.32782447,11.5618676 C7.46717021,11.7440324 9.24245213,14.6069207 12.0543245,15.7057824 C14.8677872,16.8041548 14.8677872,16.4376229 15.3745213,16.3911335 C15.8826011,16.3446441 17.0118032,15.7274367 17.2410691,15.0872293 C17.4720479,14.444208 17.4720479,13.893309 17.4023138,13.778309 C17.3319681,13.6652665 17.1474787,13.5963888 16.8714787,13.4582665 M11.701984,20.6137133 C9.77548936,20.6137133 7.9816117,20.0410378 6.48220745,19.0575431 L2.83744149,20.2156176 L4.02181915,16.7202293 C2.88613298,15.1684633 2.2143617,13.2611761 2.2143617,11.2010856 C2.2143617,6.00920266 6.47009574,1.78564415 11.701984,1.78564415 C16.934484,1.78564415 21.1925426,6.00920266 21.1910748,11.1990059 C21.1910748,16.3911335 16.93375,20.6137133 11.701984,20.6137133 M11.7040638,-3.67021277e-05 C5.47020745,-3.67021277e-05 0.419015957,5.01359628 0.418281915,11.1980271 C0.418281915,13.3123144 1.00979787,15.2927612 2.0367234,16.9794686 L0,22.989442 L6.24829255,21.0050803 C7.866,21.8910697 9.72435106,22.3970697 11.7028404,22.3970697 C17.9368191,22.3970697 22.9894787,17.383559 22.9894787,11.1990059 C22.9894787,5.01433032 17.9374309,0.00143138298 11.7040638,-3.67021277e-05" id="Fill-1"></path>
                </g>
            </g>
        </g>
    </g>
</svg>