<?xml version="1.0" encoding="UTF-8"?>
<svg width="24px" height="24px" viewBox="0 0 24 24" version="1.1" xmlns="http://www.w3.org/2000/svg" xmlns:xlink="http://www.w3.org/1999/xlink">
    <!-- Generator: Sketch 57.1 (83088) - https://sketch.com -->
    <title>check-circle</title>
    <desc>Created with Sketch.</desc>
    <g id="Search" stroke="none" stroke-width="1" fill="none" fill-rule="evenodd">
        <g id="Search-1" transform="translate(-357.000000, -862.000000)" fill="#9197B6" fill-rule="nonzero">
            <g id="Group" transform="translate(337.000000, 832.000000)">
                <g id="check-circle" transform="translate(20.000000, 30.000000)">
                    <path d="M12,24 C18.627417,24 24,18.627417 24,12 C24,5.372583 18.627417,0 12,0 C5.372583,0 0,5.372583 0,12 C0,18.627417 5.372583,24 12,24 Z M12,22 C6.4771525,22 2,17.5228475 2,12 C2,6.4771525 6.4771525,2 12,2 C17.5228475,2 22,6.4771525 22,12 C22,17.5228475 17.5228475,22 12,22 Z" id="Oval"></path>
                    <path d="M9.0547002,12.1679497 C8.59517151,11.8615972 7.97430216,11.9857711 7.66794971,12.4452998 C7.36159725,12.9048285 7.48577112,13.5256978 7.9452998,13.8320503 L10.9452998,15.8320503 C11.4048285,16.1384028 12.0256978,16.0142289 12.3320503,15.5547002 L16.3320503,9.5547002 C16.6384028,9.09517151 16.5142289,8.47430216 16.0547002,8.16794971 C15.5951715,7.86159725 14.9743022,7.98577112 14.6679497,8.4452998 L11.2226499,13.6132495 L9.0547002,12.1679497 Z" id="Path"></path>
                </g>
            </g>
        </g>
    </g>
</svg>