<?xml version="1.0" encoding="UTF-8"?>
<svg width="18px" height="24px" viewBox="0 0 18 24" version="1.1" xmlns="http://www.w3.org/2000/svg" xmlns:xlink="http://www.w3.org/1999/xlink">
    <!-- Generator: Sketch 57.1 (83088) - https://sketch.com -->
    <title>location</title>
    <desc>Created with Sketch.</desc>
    <defs>
        <path d="M8.846,23.987 L8.972,23.999 C8.92881519,23.9981967 8.8887604,23.9944897 8.84904369,23.9883983 L8.846,23.987 Z M9.32,23.947 C9.20530437,23.9865061 9.08760384,24.0033478 8.97314854,23.9996547 L8.97314854,23.9996547 L8.972,23.999 L9.08880312,23.995915 C9.12839493,23.9924289 9.16758533,23.9866586 9.20622309,23.9786265 L9.32,23.947 Z M8.808,23.979 L8.846,23.987 L8.84376054,23.9877178 L8.808,23.979 Z M8.726,23.96 L8.803,23.978 L8.7311412,23.9629917 L8.7311412,23.9629917 L8.726,23.96 Z M8.682,23.945 L8.726,23.96 L8.71619337,23.9588525 L8.71619337,23.9588525 L8.682,23.945 Z M8.599,23.915 L8.682,23.945 L8.61666758,23.9234048 L8.61666758,23.9234048 L8.599,23.915 Z M8.566,23.898 L8.599,23.915 L8.59218993,23.912898 L8.566,23.898 Z M8.49,23.858 L8.566,23.898 L8.5070232,23.8697643 L8.5070232,23.8697643 L8.49,23.858 Z M8.446,23.83 L8.49,23.858 L8.47349309,23.8496937 L8.47349309,23.8496937 L8.446,23.83 Z M8.382,23.784 L8.446,23.83 L8.40360847,23.8021967 L8.40360847,23.8021967 L8.382,23.784 Z M9.633,23.774 L9.63179761,23.7761918 L9.595,23.802 L9.633,23.774 Z M8.30782376,23.7208284 L8.382,23.784 L8.36184576,23.7690786 C8.3524854,23.7612995 8.34330307,23.7533857 8.33430309,23.7453538 L8.30782376,23.7208284 L8.30782376,23.7208284 Z M9.72192046,23.6931455 C9.69640699,23.7196158 9.6691784,23.7449516 9.64024875,23.769 L9.64024875,23.769 L9.633,23.774 Z M8.255,23.666 L8.269,23.681 L8.26139513,23.6732239 L8.26139513,23.6732239 L8.255,23.666 Z M8.225,23.631 L8.246,23.656 L8.23199998,23.6392487 L8.23199998,23.6392487 L8.225,23.631 Z M9.001,-3.55271368e-15 C14.4768551,-3.55271368e-15 18,4.08765401 18,9.25 C18,10.8546738 17.0814397,13.0257615 15.4519162,15.7218142 C14.9637752,16.5294453 14.4184146,17.3706884 13.8257319,18.236669 C12.9386069,19.5328652 11.9897635,20.8213777 11.041006,22.0445384 C10.7089283,22.4726608 10.4003849,22.8622825 10.1231474,23.2060877 C9.96664735,23.400165 9.85126096,23.5411873 9.78336927,23.6231358 L9.78336927,23.6231358 C10.0730692,23.2601753 10.0785167,22.731889 9.77000002,22.3607513 C9.71055628,22.2892419 9.59646663,22.1500343 9.43557068,21.9505555 C9.29840857,21.7805018 9.15317438,21.5986763 9.00090194,21.4060602 C8.84864018,21.5987115 8.70341707,21.7805689 8.56626669,21.9506505 C8.40541112,22.1501292 8.29135014,22.2893366 8.23192142,22.3608458 C7.95149316,22.6982782 7.93055539,23.1655536 8.14675552,23.5203949 L8.21870734,23.623232 C8.15079901,23.5412839 8.03538342,23.4002612 7.87884338,23.2061828 C7.60153665,22.8623778 7.29291634,22.4727563 6.96075572,22.044634 C6.01176121,20.8214737 5.06268071,19.5329614 4.1753339,18.2367652 C3.5825028,17.3707842 3.03700559,16.5295407 2.54874212,15.7219089 C0.918796713,13.0258323 0,10.8547287 0,9.25 C0,4.08732986 3.52352606,-3.55271368e-15 9.001,-3.55271368e-15 Z M9.001,2 C4.69947394,2 2,5.13142014 2,9.25 C2,10.3725441 2.81244897,12.2923495 4.26027366,14.687182 C4.72780207,15.4605161 5.25306229,16.270551 5.8256661,17.1069848 C6.68853804,18.3674292 7.61469191,19.6248154 8.54093178,20.8186472 C8.70019965,21.0239278 8.8538335,21.2200268 9.00090194,21.4060602 C9.14791065,21.2200553 9.30148074,21.0239883 9.4606815,20.8187429 C10.3866896,19.6249113 11.3126118,18.3675254 12.1752681,17.107081 C12.747729,16.2706468 13.2728582,15.4606115 13.7402701,14.6872767 C15.1877474,12.2924203 16,10.3725989 16,9.25 C16,5.1316761 13.3008115,2 9.001,2 Z M9,5 C11.209139,5 13,6.790861 13,9 C13,11.209139 11.209139,13 9,13 C6.790861,13 5,11.209139 5,9 C5,6.790861 6.790861,5 9,5 Z M9,7 C7.8954305,7 7,7.8954305 7,9 C7,10.1045695 7.8954305,11 9,11 C10.1045695,11 11,10.1045695 11,9 C11,7.8954305 10.1045695,7 9,7 Z M9.538,23.843 L9.53416718,23.8463293 L9.439,23.898 L9.538,23.843 Z M9.77655576,23.631354 L9.77007858,23.6391542 L9.77007858,23.6391542 L9.755,23.656 L9.77655576,23.631354 L9.77655576,23.631354 Z" id="path-1"></path>
    </defs>
    <g id="Symbols" stroke="none" stroke-width="1" fill="none" fill-rule="evenodd">
        <g id="Seacrh-Box-B" transform="translate(-50.000000, -88.000000)">
            <g id="Seacrh-Box" transform="translate(0.000000, -1.000000)">
                <g id="location" transform="translate(50.000000, 89.000000)">
                    <g id="Color-/-Smoke">
                        <mask id="mask-2" fill="white">
                            <use xlink:href="#path-1"></use>
                        </mask>
                        <use id="Mask" fill-opacity="0.5" fill="#FDFBFB" fill-rule="nonzero" xlink:href="#path-1"></use>
                    </g>
                </g>
            </g>
        </g>
    </g>
</svg>