<?xml version="1.0" encoding="UTF-8"?>
<svg width="35px" height="23px" viewBox="0 0 35 23" version="1.1" xmlns="http://www.w3.org/2000/svg" xmlns:xlink="http://www.w3.org/1999/xlink">
    <!-- Generator: Sketch 57.1 (83088) - https://sketch.com -->
    <title>Group</title>
    <desc>Created with Sketch.</desc>
    <g id="Symbols" stroke="none" stroke-width="1" fill="none" fill-rule="evenodd">
        <g id="Subscribe" transform="translate(-136.000000, -39.000000)" fill="#18181D">
            <g id="Logo-Circle">
                <g transform="translate(136.000000, 39.000000)">
                    <g id="Group">
                        <polygon id="Fill-1" points="16.1 16.030303 19.6 16.030303 19.6 0 16.1 0"></polygon>
                        <polygon id="Fill-2" points="14 8.36363636 14 23 10.5 22.2088752 10.5 8.36363636"></polygon>
                        <polygon id="Fill-3" points="9.1 13.9393939 9.1 22.3030303 5.6 21.5068124 5.6 13.9393939"></polygon>
                        <polygon id="Fill-4" points="3.5 15.3333333 3.5 20.9090909 0 20.0933959 0 15.3333333"></polygon>
                        <polygon id="Fill-5" points="24.5 8.36363636 24.5 22.2088752 21 23 21 8.36363636"></polygon>
                        <polygon id="Fill-6" points="30.1 13.9393939 30.1 21.5068124 26.6 22.3030303 26.6 13.9393939"></polygon>
                        <polygon id="Fill-7" points="35 15.3333333 35 20.0933959 31.5 20.9090909 31.5 15.3333333"></polygon>
                    </g>
                </g>
            </g>
        </g>
    </g>
</svg>