<?xml version="1.0" encoding="UTF-8"?>
<svg width="20px" height="20px" viewBox="0 0 20 20" version="1.1" xmlns="http://www.w3.org/2000/svg" xmlns:xlink="http://www.w3.org/1999/xlink">
    <!-- Generator: Sketch 57.1 (83088) - https://sketch.com -->
    <title>Icon / Phone</title>
    <desc>Created with Sketch.</desc>
    <defs>
        <path d="M2.87324435,0.736577682 C3.85534793,-0.245525894 5.44715207,-0.245525894 6.42925565,0.736577682 L6.42925565,0.736577682 L8.85554807,3.16287034 C9.83808827,4.14416366 9.83808827,5.73625637 8.85580033,6.71854428 L8.85580033,6.71854428 L7.2499985,8.32368146 C8.1883663,10.2469207 9.75234519,11.8108802 11.6755986,12.7492235 L11.6755986,12.7492235 L13.2807443,11.1440777 C14.2628479,10.1619741 15.8546521,10.1619741 16.8367557,11.1440777 L16.8367557,11.1440777 L19.2634223,13.5707443 C20.2452708,14.5525928 20.2456562,16.1441084 19.2642557,17.1267557 L19.2642557,17.1267557 L18.110089,18.2809223 C16.7205384,19.6704729 14.7226812,20.2682445 12.7802545,19.8887122 C6.39721799,18.6419979 1.35788444,13.6024142 0.112132528,7.21980376 C-0.267411135,5.27731876 0.330360404,3.27946163 1.71991102,1.88991102 L1.71991102,1.88991102 Z M5.25074435,1.91508898 C4.91951459,1.58385923 4.38298541,1.58385923 4.05175565,1.91508898 L4.05175565,1.91508898 L2.89842232,3.06842232 C1.90350992,4.06333471 1.47403257,5.49872323 1.74790005,6.90036304 C2.8637247,12.617291 7.38248723,17.1362779 13.0998038,18.2529659 C14.5012768,18.5268008 15.9366653,18.0973234 16.9315777,17.102411 L16.9315777,17.102411 L18.0853703,15.9486186 C18.4162681,15.6173004 18.4161381,15.0804828 18.084911,14.7492557 L18.084911,14.7492557 L15.6582443,12.322589 C15.3270146,11.9913592 14.7904854,11.9913592 14.4592557,12.322589 L14.4592557,12.322589 L12.4467557,14.335089 C12.207729,14.5741156 11.8479875,14.6450671 11.5361048,14.5146959 C8.80808203,13.3743445 6.62482214,11.1910846 5.48447081,8.46306185 C5.35407529,8.1511212 5.4250791,7.79131064 5.66419967,7.55228905 L5.66419967,7.55228905 L7.67741102,5.53991102 C8.0085784,5.20874363 8.0085784,4.67250301 7.67741102,4.34175565 L7.67741102,4.34175565 Z" id="path-1"></path>
    </defs>
    <g id="Symbols" stroke="none" stroke-width="1" fill="none" fill-rule="evenodd">
        <g id="Header-Top" transform="translate(-835.000000, -30.000000)">
            <g id="Phone" transform="translate(820.000000, 15.000000)">
                <g id="Icon-/-Phone">
                    <g id="Color-/-Smoke" transform="translate(15.000000, 15.000000)">
                        <g>
                            <mask id="mask-2" fill="white">
                                <use xlink:href="#path-1"></use>
                            </mask>
                            <use id="Mask" fill="#000000" fill-rule="nonzero" xlink:href="#path-1"></use>
                            <g id="Color-/-Blue" mask="url(#mask-2)" fill="#252851">
                                <g transform="translate(-15.000000, -15.000000)" id="White">
                                    <rect x="0" y="0" width="50" height="50"></rect>
                                </g>
                            </g>
                        </g>
                    </g>
                </g>
            </g>
        </g>
    </g>
</svg>