<?xml version="1.0" encoding="UTF-8"?>
<svg width="18px" height="15px" viewBox="0 0 18 15" version="1.1" xmlns="http://www.w3.org/2000/svg" xmlns:xlink="http://www.w3.org/1999/xlink">
    <!-- Generator: Sketch 57.1 (83088) - https://sketch.com -->
    <title>Twitter</title>
    <desc>Created with Sketch.</desc>
    <defs>
        <path d="M18,1.77519231 C17.3377719,2.07692308 16.6265941,2.28057692 15.8788447,2.37115385 C16.6412228,1.90269231 17.2269317,1.16076923 17.5031883,0.276923077 C16.7891973,0.710192308 15.9992498,1.02634615 15.158102,1.19538462 C14.4840585,0.459807692 13.5241935,0 12.4613653,0 C10.4217929,0 8.76931733,1.695 8.76931733,3.78634615 C8.76931733,4.08288462 8.80138785,4.3725 8.8644036,4.64942308 C5.7951988,4.49134615 3.07426857,2.98384615 1.25243811,0.692884615 C0.935108777,1.2525 0.752813203,1.90269231 0.752813203,2.59673077 C0.752813203,3.91096154 1.40491373,5.06942308 2.39516129,5.74903846 C1.79032258,5.72884615 1.22093023,5.55923077 0.722993248,5.27538462 C0.722430608,5.29096154 0.722430608,5.30769231 0.722430608,5.32269231 C0.722430608,7.15788462 1.99512378,8.68846154 3.68473368,9.03634615 C3.37528132,9.12230769 3.04894974,9.16903846 2.71192798,9.16903846 C2.47336834,9.16903846 2.24268567,9.14538462 2.01762941,9.10153846 C2.48687172,10.605 3.85127532,11.7 5.46661665,11.7311538 C4.20348837,12.7465385 2.6112153,13.3528846 0.881095274,13.3528846 C0.582895724,13.3528846 0.288634659,13.335 0,13.2998077 C1.63390848,14.3728846 3.57501875,15 5.66072768,15 C12.4529257,15 16.168042,9.23019231 16.168042,4.22596154 C16.168042,4.06211538 16.1635409,3.89826923 16.1567892,3.73557692 C16.8786572,3.20192308 17.5043136,2.53557692 18,1.77519231 Z" id="path-1"></path>
    </defs>
    <g id="Symbols" stroke="none" stroke-width="1" fill="none" fill-rule="evenodd">
        <g id="Header-Top" transform="translate(-418.000000, -34.000000)">
            <g id="Twitter" transform="translate(418.000000, 34.000000)">
                <mask id="mask-2" fill="white">
                    <use xlink:href="#path-1"></use>
                </mask>
                <use id="Icon" fill="#1D1F42" xlink:href="#path-1"></use>
            </g>
        </g>
    </g>
</svg>